<?xml version="1.0" encoding="UTF-8"?>
<svg width="1400px" height="320px" viewBox="0 0 1400 320" version="1.1" xmlns="http://www.w3.org/2000/svg" xmlns:xlink="http://www.w3.org/1999/xlink">
    <!-- Generator: Sketch 53.2 (72643) - https://sketchapp.com -->
    <title>logo-gopherConSg2019-landscape</title>
    <desc>Created with Sketch.</desc>
    <g id="logo-gopherConSg2019-landscape" stroke="none" stroke-width="1" fill="none" fill-rule="evenodd">
        <path d="M1024.61234,235.815828 C1023.68897,236.000001 1022.02693,236.046043 1019.62617,235.953957 C1017.22541,235.86187 1014.13217,235.815828 1010.34636,235.815828 C1006.00652,235.815828 1002.12843,234.894977 998.711963,233.053249 C995.295497,231.211521 992.525431,228.725225 990.401682,225.594286 C990.032335,224.949681 989.686076,224.097895 989.362897,223.038901 C989.039718,221.979907 988.762711,220.897908 988.531869,219.792871 C988.301027,218.687834 988.162524,217.628856 988.116355,216.615906 C988.070187,215.602955 988.093271,214.728147 988.185607,213.991456 C989.108977,213.62311 990.355506,213.369876 991.925234,213.231747 C993.494961,213.093617 995.133917,213.047574 996.84215,213.093618 C998.550382,213.139661 1000.21242,213.231746 1001.82832,213.369876 C1003.44421,213.508005 1004.80616,213.669154 1005.91421,213.853327 C1005.91421,216.247574 1006.67597,218.158338 1008.19953,219.585678 C1009.72309,221.013017 1011.4313,221.818761 1013.32421,222.002934 C1015.21711,222.187107 1017.06382,221.726682 1018.86439,220.621645 C1020.66496,219.516608 1021.84224,217.674907 1022.39626,215.096487 C1022.4886,214.175623 1022.58093,213.231751 1022.67327,212.264844 C1022.76561,211.297937 1022.76561,210.44615 1022.67327,209.709459 C1022.4886,208.14399 1022.4886,206.532501 1022.67327,204.874946 C1021.7499,205.887897 1020.66496,206.624577 1019.41841,207.085009 C1018.17186,207.545441 1016.833,207.867739 1015.40178,208.051912 C1013.97055,208.236084 1012.51627,208.328169 1011.03888,208.328169 C1009.56149,208.328169 1008.17646,208.374212 1006.88374,208.466298 C1005.12934,208.466298 1003.35188,208.328171 1001.55131,208.051912 C999.750739,207.775652 998.042531,207.315227 996.426635,206.670622 C994.81074,206.026017 993.356455,205.151209 992.063738,204.046172 C990.771022,202.941135 989.709163,201.513817 988.878131,199.764175 C987.585414,197.277842 986.662059,194.67644 986.108037,191.95989 C985.554016,189.243341 985.184674,186.457769 985,183.60309 C985,179.275028 985.092336,174.624734 985.277009,169.652067 C985.461683,164.679401 986.269619,160.006085 987.700841,155.63198 C989.132063,151.257875 991.417367,147.574474 994.556822,144.581665 C997.696277,141.588857 1002.22072,139.908305 1008.13028,139.539959 C1011.08506,139.355786 1013.83204,139.747148 1016.37131,140.714055 C1018.91057,141.680963 1020.7342,143.453599 1021.84224,146.032019 C1022.21159,146.216192 1022.41935,146.055043 1022.46551,145.548568 C1022.51168,145.042093 1022.51168,144.397497 1022.46551,143.614763 L1022.32701,141.266571 C1022.28084,140.483836 1022.39626,139.862262 1022.67327,139.40183 C1025.72039,139.033485 1028.81363,138.918378 1031.95308,139.056508 C1035.09254,139.194638 1038.23195,139.263701 1041.3714,139.263701 C1041.74075,150.774504 1041.9485,162.814622 1041.99467,175.384418 C1042.04084,187.954214 1041.78692,200.869141 1041.2329,214.129585 C1041.14056,216.339659 1041.14056,218.526678 1041.2329,220.690709 C1041.32523,222.85474 1040.90972,224.673419 1039.98636,226.146802 C1038.69364,228.172703 1037.37786,229.784191 1036.03897,230.981315 C1034.70009,232.178438 1033.38431,233.12231 1032.09159,233.812958 C1030.79887,234.503606 1029.50617,234.987053 1028.21346,235.263312 C1026.92074,235.539571 1025.72038,235.723741 1024.61234,235.815828 Z M1000.65103,176.696643 C1000.65103,181.39305 1002.03606,185.398749 1004.80617,188.71386 C1006.46823,190.739762 1008.68429,191.959888 1011.45439,192.374277 C1014.2245,192.788666 1016.80989,192.627517 1019.21065,191.890826 C1020.04169,191.614567 1020.68804,191.177163 1021.14972,190.578601 C1021.6114,189.980039 1021.98075,189.289402 1022.25776,188.506667 C1022.53477,187.723932 1022.74252,186.895167 1022.88103,186.020346 C1023.01953,185.145525 1023.13495,184.293739 1023.22729,183.464961 C1023.22729,179.781504 1023.15804,176.029039 1023.01953,172.207453 C1022.88103,168.385866 1022.3501,164.725486 1021.42673,161.226202 C1020.87271,159.844906 1019.97244,158.762907 1018.72589,157.980172 C1017.47934,157.197438 1016.11739,156.713991 1014.64,156.529818 C1013.16261,156.345645 1011.70832,156.460752 1010.2771,156.875141 C1008.84588,157.28953 1007.57627,157.957146 1006.46822,158.87801 C1005.08317,160.443479 1003.90589,162.170074 1002.93636,164.057845 C1001.96682,165.945617 1001.29738,167.948466 1000.92804,170.066454 C1000.74336,170.987318 1000.65103,171.885147 1000.65103,172.759968 L1000.65103,176.696643 Z" id="Combined-Shape" fill="#15C8DF"></path>
        <path d="M975.323453,141.990863 L975.185383,141.990863 C971.963741,142.541937 968.512034,142.886353 964.830157,143.024122 C961.148281,143.16189 957.696573,142.771552 954.474931,141.853095 C955.027213,139.373263 954.520963,137.306767 952.956165,135.653545 C951.391368,134.000324 949.504434,132.944114 947.295308,132.484886 C945.086182,132.025658 942.946124,132.255269 940.875068,133.173725 C938.804013,134.092182 937.584409,135.837223 937.216222,138.408901 C937.032128,139.05182 936.963094,139.671769 937.009117,140.268766 C937.055141,140.865763 937.124175,141.485711 937.216222,142.128631 C937.952597,144.332926 939.149189,145.802435 940.806033,146.5372 C942.462878,147.271965 944.257766,147.777109 946.190751,148.052646 C951.069237,148.603719 955.60248,150.165072 959.790614,152.73675 C963.978749,155.308428 967.407445,158.5689 970.076805,162.518263 C971.73365,164.630713 972.976264,166.903858 973.804686,169.337768 C974.633109,171.771678 975.116348,174.274434 975.254418,176.846112 C975.392488,179.41779 975.208397,182.012391 974.702139,184.629992 C974.195881,187.247593 973.390483,189.750349 972.28592,192.138336 C971.181357,194.985551 969.708628,197.419424 967.86769,199.440028 C966.026752,201.460632 963.932716,203.113829 961.58552,204.399668 C959.238324,205.685507 956.707072,206.626911 953.991688,207.223908 C951.276304,207.820905 948.491926,208.073476 945.638472,207.981631 C941.588408,207.889785 937.561416,207.177992 933.557375,205.84623 C929.553335,204.514468 925.98657,202.654622 922.856975,200.266635 C919.72738,197.878648 917.242151,194.962593 915.401213,191.518381 C913.560274,188.074169 912.777887,184.147826 913.054028,179.739235 L913.054028,178.912629 C916.27567,178.4534 919.819423,178.338595 923.685393,178.568209 C927.551364,178.797823 931.049094,178.866707 934.178689,178.774861 C934.362783,181.713922 935.536363,183.918184 937.699466,185.387714 C939.862568,186.857245 942.163706,187.569038 944.60295,187.523115 C947.042193,187.477192 949.15924,186.673555 950.954155,185.112179 C952.749069,183.550803 953.370377,181.162852 952.818095,177.948254 C952.541955,175.743959 951.713545,173.975957 950.332841,172.644195 C948.952137,171.312433 947.318329,170.233263 945.431368,169.406652 C943.544406,168.580041 941.496393,167.960092 939.287267,167.546787 C937.078141,167.133481 935.007117,166.743143 933.074131,166.375761 C931.233193,166.008378 929.530351,165.41139 927.965553,164.584779 C926.400756,163.758169 924.97405,162.793804 923.685393,161.691656 C919.451235,157.650447 916.712881,153.196 915.470247,148.328181 C914.227614,143.460362 914.15858,138.730382 915.263143,134.1381 C916.367706,129.545817 918.461742,125.366903 921.545313,121.601231 C924.628885,117.83556 928.37974,115.03431 932.797992,113.197397 C935.007118,112.27894 937.446325,111.658991 940.115685,111.337532 C942.785045,111.016072 945.477377,110.924228 948.192761,111.061996 C950.908145,111.199765 953.577465,111.590103 956.200802,112.233022 C958.824139,112.875942 961.240335,113.70254 963.449461,114.712842 C967.867712,117.008984 971.273397,120.407221 973.666617,124.907658 C976.059836,129.408095 976.61211,135.10244 975.323453,141.990863 Z" id="Path" fill="#15C8DF"></path>
        <path d="M359.742768,160.358486 C360.938001,159.622981 362.891718,159.186281 365.603978,159.048374 C368.316238,158.910467 371.189351,158.887483 374.223404,158.979421 C377.257458,159.071359 380.084601,159.232248 382.70492,159.462094 C385.325239,159.691939 387.095077,159.80686 388.014487,159.80686 L388.290309,159.80686 L388.428219,159.944766 C388.979865,164.817485 389.347624,169.988926 389.531506,175.459243 C389.715388,180.92956 389.347629,186.146968 388.428219,191.111626 C387.968514,195.800469 386.54345,199.386001 384.152984,201.86833 C381.762518,204.350658 378.820449,206.235361 375.326691,207.522494 C373.028166,208.166061 370.637735,208.740666 368.155328,209.246325 C365.672921,209.751985 363.144581,210.119731 360.570233,210.349577 C357.995885,210.579422 355.49053,210.556438 353.054093,210.280624 C350.617656,210.004809 348.296181,209.407221 346.089596,208.48784 C342.411956,206.924892 339.607797,204.810347 337.677036,202.144142 C335.746275,199.477938 334.229271,196.168216 333.125979,192.214877 C332.850156,191.203558 332.551352,189.801523 332.229559,188.00873 C331.907765,186.215938 331.654931,184.400187 331.471049,182.561425 C331.195226,179.619406 330.965377,176.953241 330.781495,174.562851 C330.597613,172.17246 330.436719,169.80509 330.298807,167.460668 C330.160895,165.116247 330.068956,162.633955 330.022985,160.013719 C329.977015,157.393484 330,154.382556 330.091941,150.980846 C330.183882,148.038827 330.321791,145.0279 330.505673,141.947973 C330.689555,138.868047 331.011344,135.85712 331.471049,132.9151 C331.930754,129.881143 332.735226,126.939168 333.884488,124.089087 C335.033751,121.239006 336.941498,118.89462 339.607788,117.055858 C341.446608,115.49291 343.515249,114.343701 345.813775,113.608196 C348.1123,112.872691 350.50273,112.321071 352.985138,111.953319 C358.041893,111.309752 362.868724,111.470641 367.465774,112.435991 C372.062825,113.401341 376.016229,115.125155 379.326105,117.607483 C382.635981,120.089812 385.118351,123.37655 386.773289,127.467795 C388.428228,131.559041 388.933896,136.408703 388.290309,142.016927 L388.152398,142.844365 C387.968516,143.12018 387.554787,143.258085 386.9112,143.258085 C386.267613,143.258085 385.210308,143.304053 383.739251,143.395991 C382.360136,143.395991 381.187906,143.418975 380.222525,143.464944 C379.257145,143.510913 378.291779,143.533898 377.326398,143.533898 C376.361017,143.533898 375.372666,143.487929 374.361315,143.395991 C373.349964,143.304053 372.154749,143.166148 370.775634,142.982272 C370.499811,142.062891 370.109067,140.936666 369.603392,139.603564 C369.097716,138.270461 368.454139,137.029315 367.67264,135.880089 C366.891142,134.730863 365.99473,133.719559 364.983379,132.846147 C363.972028,131.972735 362.776813,131.536036 361.397698,131.536036 C359.834701,131.444098 358.317697,131.398129 356.846641,131.398129 C355.375585,131.398129 354.08843,131.94975 352.985138,133.053007 C352.801256,133.236883 352.548422,133.719551 352.226628,134.501025 C351.904835,135.282498 351.652001,136.040976 351.468119,136.776481 C350.824531,138.982996 350.295879,141.64916 349.882144,144.775056 C349.468409,147.900951 349.169606,151.233657 348.985724,154.773274 C348.801842,158.312891 348.755872,161.967375 348.847813,165.736837 C348.939754,169.506299 349.123633,173.091832 349.399456,176.493541 C349.583338,178.516179 349.951097,180.722661 350.502743,183.113051 C351.054389,185.503442 352.203634,187.388145 353.950513,188.767216 C354.777982,189.318845 355.835288,189.73256 357.122462,190.008374 C358.501577,190.19225 359.949627,190.146282 361.466653,189.870468 C362.98368,189.594653 364.385759,189.226906 365.672933,188.767216 C366.684284,188.307526 367.557711,187.686953 368.293239,186.905479 C369.028767,186.124005 369.580405,185.089717 369.948169,183.802584 C370.04011,183.434831 370.155034,182.814258 370.292946,181.940846 C370.430858,181.067434 370.522797,180.171051 370.568768,179.25167 C370.614738,178.332289 370.614738,177.504859 370.568768,176.769354 C370.522797,176.033849 370.361903,175.620134 370.08608,175.528196 C369.534434,175.436258 368.775932,175.413274 367.810551,175.459243 C366.845171,175.505212 365.833835,175.55118 364.776513,175.597149 C363.719191,175.643118 362.753825,175.643118 361.880386,175.597149 C361.006946,175.55118 360.340384,175.436259 359.880679,175.252383 C359.696797,173.781374 359.581872,172.494259 359.535902,171.391002 C359.489931,170.287745 359.489931,169.207489 359.535902,168.1502 C359.581872,167.092912 359.604857,166.012656 359.604857,164.909399 C359.604857,163.806142 359.512918,162.427091 359.329035,160.772205 L359.329035,160.634298 C359.329035,160.54236 359.375005,160.496392 359.466946,160.496392 L359.742768,160.358486 Z M401.905868,145.464588 C402.549455,144.085517 403.583776,142.890339 405.008862,141.87902 C406.433947,140.867701 408.088861,140.017286 409.973651,139.327751 C411.858442,138.638215 413.881114,138.155547 416.041728,137.879733 C418.202341,137.603919 420.385908,137.466013 422.592492,137.466013 C424.431312,137.64989 426.20115,137.672874 427.902058,137.534967 C429.602967,137.39706 431.418775,137.420044 433.349536,137.60392 C436.291648,137.787796 439.095807,138.362401 441.762096,139.327751 C444.428386,140.293101 446.726876,141.695136 448.657638,143.533898 C449.944812,144.361341 450.956148,145.694423 451.691676,147.533185 C452.427204,149.371947 452.978842,151.509476 453.346606,153.945835 C453.71437,156.382195 453.944219,159.04836 454.03616,161.94441 C454.128101,164.84046 454.22004,167.805419 454.311981,170.839376 C454.22004,173.505581 454.105116,176.539493 453.967204,179.941203 C453.829293,183.342912 453.599444,186.606666 453.27765,189.732561 C452.955857,192.858457 452.542128,195.662527 452.036453,198.144855 C451.530777,200.627184 450.818245,202.328013 449.898835,203.247394 C448.335838,205.453909 446.290181,207.016833 443.761803,207.936214 C441.233426,208.855595 438.498222,209.430199 435.556109,209.660044 C432.613997,209.88989 429.579989,209.88989 426.453995,209.660044 C423.328001,209.430199 420.477872,209.315278 417.903524,209.315278 C413.214532,208.487835 409.261128,206.465228 406.043193,203.247394 C403.560786,201.04088 401.859902,198.282778 400.940492,194.973007 C400.021082,191.663235 399.469444,188.192624 399.285562,184.561069 C399.10168,180.929514 399.078696,177.27503 399.216607,173.597506 C399.354519,169.919982 399.285564,166.564291 399.009741,163.530334 C399.009741,161.875448 399.055711,160.243572 399.147652,158.634655 C399.239593,157.025738 399.423472,155.347893 399.699295,153.601069 C399.791236,152.58975 400.113025,151.233683 400.664671,149.532829 C401.216317,147.831974 401.630045,146.475907 401.905868,145.464588 Z M419.144721,161.73755 C418.593075,162.105303 418.179347,163.02467 417.903524,164.495679 C417.53576,167.437698 417.35188,170.356689 417.35188,173.252739 C417.35188,176.14879 417.259941,179.205685 417.076059,182.423519 C416.984118,184.538095 417.535756,186.169972 418.730989,187.319198 C419.926222,188.468424 421.374271,189.249887 423.07518,189.663608 C424.776088,190.077329 426.545926,190.169266 428.384746,189.939421 C430.223567,189.709576 431.74057,189.272876 432.935804,188.62931 C434.498801,187.893805 435.556106,186.376849 436.107753,184.078396 C436.475517,181.136377 436.77432,178.171418 437.004173,175.18343 C437.234025,172.195442 437.073131,169.368388 436.521485,166.702183 C436.06178,163.484349 434.728655,161.139963 432.522071,159.668953 C430.315487,158.197944 427.419389,157.876165 423.833689,158.703608 C421.902928,159.255237 420.339954,160.266541 419.144721,161.73755 Z M483.649375,234.827973 L483.649375,236.344944 C483.649375,236.436882 483.028782,236.551803 481.787579,236.68971 C480.546375,236.827617 479.029371,236.919554 477.236521,236.965523 C475.443672,237.011492 473.535924,237.011492 471.513222,236.965523 C469.49052,236.919554 467.743667,236.758665 466.272611,236.482851 L466.272611,227.381024 C466.272611,219.750162 466.180671,212.119414 465.996789,204.488552 C465.812907,196.85769 465.652013,189.341863 465.514101,181.940846 C465.37619,174.539829 465.28425,167.276829 465.23828,160.151626 C465.192309,153.026423 465.261264,146.154153 465.445146,139.53461 C468.295317,139.53461 471.421265,139.465658 474.823082,139.327751 C478.224899,139.189844 481.304877,139.304764 484.063107,139.672517 C484.155048,139.856393 484.201018,140.178172 484.201018,140.637862 C484.201018,141.557243 484.224003,142.292737 484.269974,142.844365 C484.315944,143.395994 484.338929,144.177456 484.338929,145.188775 C484.522811,145.648466 484.729675,145.993228 484.959528,146.223074 C485.18938,146.452919 485.442214,146.29203 485.718037,145.740401 C487.097152,142.982258 488.935945,141.212476 491.23447,140.431002 C493.532995,139.649528 495.969396,139.442671 498.543744,139.810423 C503.784381,140.178176 507.921665,141.534242 510.955718,143.878664 C513.989771,146.223085 516.265277,149.211029 517.782304,152.842584 C519.29933,156.474138 520.287681,160.542338 520.747387,165.047305 C521.207092,169.552272 521.52888,174.10314 521.712762,178.700045 C521.712762,181.917878 521.505898,185.043726 521.092164,188.077684 C520.678429,191.111641 520.034852,193.892727 519.161412,196.421024 C518.287972,198.949322 517.138727,201.109835 515.713641,202.902628 C514.288556,204.695421 512.564688,205.959551 510.541986,206.695056 C508.059578,207.614437 505.324374,208.189041 502.336292,208.418886 C499.348209,208.648732 496.521065,208.648732 493.854776,208.418886 C491.188487,208.189041 488.935966,207.752342 487.097145,207.108775 C485.258325,206.465208 484.246989,205.729715 484.063107,204.902272 C484.155048,209.223362 484.201018,212.716958 484.201018,215.383162 L484.201018,221.795813 C484.201018,223.40473 484.178033,224.645875 484.132063,225.519287 C484.086092,226.392699 484.040122,227.22013 483.994152,228.001603 C483.948181,228.783077 483.902212,229.656476 483.856241,230.621826 C483.810271,231.587176 483.741316,232.989211 483.649375,234.827973 Z M505.025553,182.837238 C505.485258,181.550105 505.761077,180.217022 505.853018,178.837951 C505.944959,177.45888 505.990928,176.125797 505.990928,174.838664 C505.990928,172.540211 505.715109,170.310746 505.163463,168.1502 C504.611817,165.989655 503.784361,164.058984 502.681069,162.358129 C501.577776,160.657274 500.244652,159.301208 498.681655,158.289889 C497.118658,157.27857 495.371805,156.772918 493.441043,156.772918 C491.050577,156.772918 489.211785,157.27857 487.92461,158.289889 C486.637436,159.301208 485.649085,160.680259 484.959528,162.427082 C484.26997,164.173906 483.856242,166.288451 483.71833,168.77078 C483.580419,171.253108 483.511464,173.919273 483.511464,176.769354 C483.511464,180.35494 483.580419,183.181994 483.71833,185.250601 C483.856242,187.319209 484.201015,188.905117 484.752661,190.008374 C485.304307,191.111631 486.154749,191.824141 487.304012,192.145924 C488.453274,192.467708 489.993263,192.628597 491.924024,192.628597 C495.693606,192.628597 498.704629,191.801166 500.957183,190.146281 C503.209738,188.491395 504.565848,186.055072 505.025553,182.837238 Z M550.774334,146.843653 C551.234039,146.567838 551.808662,146.24606 552.498219,145.878307 C553.187777,145.510555 553.7624,145.142808 554.222105,144.775056 C556.152866,143.395984 558.313447,142.292744 560.703914,141.465301 C563.09438,140.637858 565.553765,140.178174 568.082143,140.086236 C570.61052,139.994298 573.069905,140.270108 575.460372,140.913675 C577.850838,141.557242 580.011419,142.706451 581.94218,144.361336 C582.861591,145.188779 583.574123,146.912593 584.079798,149.532829 C584.585474,152.153064 584.907262,155.301897 585.045174,158.979421 C585.183085,162.656945 585.229055,166.679176 585.183085,171.046236 C585.137114,175.413296 585.06816,179.826258 584.976219,184.285256 C584.884278,188.744254 584.792338,193.042296 584.700397,197.17951 C584.608456,201.316724 584.654426,204.948225 584.838308,208.07412 C581.620372,208.533811 578.747259,208.740668 576.218881,208.694699 C573.690503,208.64873 570.81739,208.625746 567.599455,208.625746 C567.415573,206.51117 567.323633,204.120815 567.323633,201.45461 C567.323633,198.788405 567.346618,196.030304 567.392588,193.180223 C567.438559,190.330142 567.438559,187.480103 567.392588,184.630022 C567.346618,181.779941 567.231693,179.113776 567.047811,176.631448 C566.95587,175.52819 566.863931,174.310029 566.77199,172.976927 C566.680049,171.643824 566.519154,170.333726 566.289302,169.046592 C566.059449,167.759459 565.737661,166.61025 565.323926,165.598931 C564.910192,164.587612 564.335569,163.80615 563.600041,163.254521 C563.5081,163.162583 563.41616,163.116615 563.324219,163.116615 C563.232278,163.116615 563.140339,163.070646 563.048398,162.978708 C562.312869,162.610956 561.232579,162.312162 559.807493,162.082316 C558.382408,161.852471 556.980328,161.944408 555.601213,162.358129 C554.222098,162.771851 552.980913,163.599281 551.877621,164.840445 C550.774329,166.08161 550.130751,167.943328 549.946869,170.425657 C549.762987,173.64349 549.717017,176.792323 549.808958,179.872249 C549.900899,182.952176 550.015824,186.032056 550.153735,189.111982 C550.291647,192.191908 550.360602,195.248804 550.360602,198.282762 C550.360602,201.316719 550.176722,204.350631 549.808958,207.384588 L549.808958,207.936214 C548.245961,208.395904 546.889852,208.671714 545.740589,208.763652 C544.591326,208.855591 543.419096,208.878575 542.223863,208.832606 C541.02863,208.786637 539.695505,208.717684 538.224449,208.625746 C536.753393,208.533808 534.9146,208.579776 532.708016,208.763652 C532.708016,204.99419 532.685031,200.466307 532.639061,195.179866 C532.59309,189.893426 532.54712,184.216333 532.50115,178.148419 C532.455179,172.080504 532.432195,165.805823 532.432195,159.324187 L532.432195,140.362049 C532.432195,134.202197 532.455179,128.387199 532.50115,122.916882 C532.54712,117.446565 532.616075,112.68884 532.708016,108.643564 C533.811308,108.735502 534.730705,108.804454 535.466233,108.850423 C536.201761,108.896392 536.891308,108.919377 537.534895,108.919377 C538.178482,108.919377 538.868029,108.896392 539.603557,108.850423 C540.339085,108.804454 541.258482,108.735502 542.361774,108.643564 C542.729538,108.643564 543.373115,108.574611 544.292525,108.436704 C545.211936,108.298797 546.131332,108.183876 547.050742,108.091938 C547.970152,108 548.797609,107.977016 549.533137,108.022985 C550.268665,108.068954 550.636423,108.229843 550.636423,108.505657 C550.728364,108.965348 550.774334,110.183509 550.774334,112.160178 L550.774334,146.843653 Z M614.175701,173.735412 L614.175701,176.217728 C614.267642,178.975871 614.382567,181.228321 614.520478,182.975145 C614.65839,184.721969 615.233013,186.422798 616.244364,188.077684 C617.347656,190.19226 618.910629,191.755184 620.933332,192.766503 C622.956034,193.777822 624.932736,194.099601 626.863497,193.731849 C628.794258,193.364096 630.426187,192.237871 631.759331,190.35314 C633.092476,188.468409 633.667099,185.641355 633.483217,181.871893 C634.402627,181.963831 635.643812,181.986815 637.206809,181.940846 C638.769806,181.894877 640.401734,181.825925 642.102643,181.733987 C643.803552,181.642049 645.43548,181.619064 646.998477,181.665033 C648.561475,181.711002 649.848629,181.871892 650.85998,182.147706 C650.676098,184.538097 650.492219,186.882483 650.308337,189.180935 C650.124455,191.479388 649.894606,193.616917 649.618783,195.593586 C649.34296,197.570255 648.998186,199.271084 648.584452,200.696125 C648.170717,202.121165 647.642064,203.109485 646.998477,203.661114 C645.43548,205.867628 643.412808,207.430552 640.930401,208.349933 C638.447994,209.269314 635.735775,209.820934 632.793663,210.004811 C629.85155,210.188687 626.840527,210.188687 623.760504,210.004811 C620.68048,209.820934 617.853336,209.728998 615.278988,209.728998 C612.70464,209.361245 610.314209,208.533815 608.107625,207.246681 C605.625218,205.499858 603.556576,203.224424 601.901638,200.420312 C600.2467,197.6162 598.913575,194.53632 597.902224,191.180579 C596.890873,187.824838 596.201326,184.262291 595.833562,180.492829 C595.465798,176.723366 595.373858,172.953961 595.55774,169.184499 C595.833563,165.782789 596.132367,162.496052 596.45416,159.324187 C596.775954,156.152323 597.488486,153.049458 598.591778,150.015501 C599.787011,147.349296 601.625804,145.073863 604.108211,143.189132 C606.590618,141.3044 609.394777,139.879381 612.520771,138.914031 C615.646766,137.948681 618.956592,137.420045 622.450351,137.328107 C625.944109,137.236169 629.345875,137.603916 632.655752,138.431359 C636.885038,139.166863 640.286804,140.637851 642.861153,142.844365 C645.435501,145.05088 647.389218,147.717045 648.722363,150.84294 C650.055507,153.968835 650.859979,157.416462 651.135802,161.185924 C651.411625,164.955386 651.411625,168.77076 651.135802,172.63216 C650.492215,172.816037 649.274015,172.99991 647.481165,173.183786 C645.688316,173.367662 643.573704,173.551536 641.137267,173.735412 C638.700831,173.919288 636.103536,174.057193 633.345306,174.149131 C630.587076,174.24107 627.943811,174.287038 625.415433,174.287038 C622.887056,174.287038 620.61155,174.24107 618.588848,174.149131 C616.566145,174.057193 615.095111,173.919288 614.175701,173.735412 Z M630.862911,152.359911 C630.127383,151.90022 629.391866,151.555458 628.656338,151.325613 C627.92081,151.095767 627.047383,150.980846 626.036032,150.980846 C623.829448,150.980846 622.036625,151.210688 620.65751,151.670379 C619.278395,152.130069 618.175119,152.773626 617.34765,153.601069 C616.520181,154.428512 615.899589,155.393848 615.485854,156.497105 C615.07212,157.600362 614.773316,158.749571 614.589434,159.944766 C614.405552,160.956085 614.336597,161.668595 614.382567,162.082316 C614.428538,162.496038 614.865251,162.771848 615.69272,162.909755 C616.520189,163.047662 617.830329,163.093631 619.623179,163.047662 C621.416028,163.001692 624.059293,162.978708 627.553051,162.978708 C629.943517,162.978708 631.73634,163.024677 632.931573,163.116615 C634.126806,163.208553 634.977248,163.231537 635.482924,163.185568 C635.988599,163.139599 636.241433,163.001694 636.241433,162.771849 L636.241433,161.323831 C636.241433,159.485069 635.75875,157.738271 634.793369,156.083385 C633.827989,154.4285 632.517849,153.187354 630.862911,152.359911 Z M680.886928,144.22343 C681.254692,144.039554 682.105134,143.671807 683.438278,143.120178 C684.771423,142.56855 686.081563,142.062898 687.368737,141.603207 C689.115616,141.051579 691.092318,140.614879 693.298902,140.293096 C695.505487,139.971313 697.574128,139.764455 699.504889,139.672517 C701.435651,139.580579 703.067579,139.557595 704.400724,139.603564 C705.733868,139.649533 706.400431,139.718485 706.400431,139.810423 C706.400431,142.936319 706.377446,145.69442 706.331475,148.084811 C706.285505,150.475201 706.26252,152.61273 706.26252,154.497461 L706.26252,159.668953 C706.26252,161.231901 706.30849,162.702888 706.400431,164.08196 L705.159233,163.668241 C704.699528,163.484364 704.216845,163.323475 703.71117,163.185568 C703.205494,163.047661 702.722811,162.886772 702.263106,162.702895 C701.159814,162.427081 700.033553,162.197239 698.884291,162.013363 C697.735028,161.829487 697.114436,161.73755 697.022495,161.73755 C694.540087,161.461736 692.264581,161.323831 690.195909,161.323831 C688.127236,161.323831 686.334413,161.645609 684.817387,162.289176 C683.30036,162.932743 682.12813,163.944047 681.300661,165.323118 C680.473192,166.70219 680.105433,168.678829 680.197374,171.253096 C680.289315,174.470929 680.381255,177.504841 680.473196,180.354922 C680.565137,183.205003 680.611106,186.078026 680.611106,188.974076 C680.611106,191.870126 680.634091,194.812101 680.680062,197.800089 C680.726032,200.788077 680.749017,203.982878 680.749017,207.384588 L680.749017,207.936214 C679.18602,208.395904 677.760956,208.671714 676.473782,208.763652 C675.186608,208.855591 673.853483,208.878575 672.474368,208.832606 C671.095253,208.786637 669.601234,208.717684 667.992266,208.625746 C666.383298,208.533808 664.475551,208.579776 662.268967,208.763652 C662.268967,197.455266 662.154042,186.14705 661.92419,174.838664 C661.694337,163.530278 661.763292,151.808346 662.131056,139.672517 C663.234348,139.764455 664.153744,139.833407 664.889273,139.879377 C665.624801,139.925346 666.314348,139.94833 666.957935,139.94833 C667.601522,139.94833 668.291069,139.925346 669.026597,139.879377 C669.762125,139.833407 670.681522,139.764455 671.784814,139.672517 C672.152578,139.672517 672.81914,139.626548 673.784521,139.53461 C674.749901,139.442672 675.761237,139.350736 676.818559,139.258797 C677.87588,139.166859 678.795277,139.143875 679.576775,139.189844 C680.358274,139.235813 680.749017,139.350734 680.749017,139.53461 L680.749017,142.08588 C680.749017,142.315725 680.772002,142.568551 680.817973,142.844365 C680.863943,143.12018 680.886928,143.579863 680.886928,144.22343 Z M737.530665,133.604633 C737.346783,133.788509 737.185888,134.087303 737.047977,134.501025 C736.910065,134.914746 736.795141,135.21354 736.7032,135.397417 C736.519318,135.673231 736.358424,137.282123 736.220512,140.224143 C736.0826,143.166162 735.967676,146.659757 735.875735,150.705033 C735.783794,154.75031 735.737824,158.956415 735.737824,163.323474 C735.737824,167.690534 735.875734,171.482924 736.151557,174.700757 C736.42738,177.366962 737.139912,179.964174 738.289174,182.492472 C739.438437,185.02077 741.346184,186.652647 744.012474,187.388151 C746.035176,187.572028 747.942923,187.273233 749.735773,186.491759 C751.528622,185.710286 752.884732,184.400187 753.804142,182.561425 C754.815493,180.446849 755.252206,178.217384 755.114295,175.872962 C754.976383,173.528541 755.137278,171.207138 755.596983,168.908686 C756.884157,169.092562 758.332206,169.138531 759.941174,169.046592 C761.550141,168.954654 763.18207,168.908686 764.837008,168.908686 C766.491946,168.908686 768.123875,168.954654 769.732842,169.046592 C771.34181,169.138531 772.789859,169.368372 774.077033,169.736125 C775.64003,174.516906 776.053759,179.274631 775.318231,184.009443 C774.582703,188.744255 772.973759,192.996329 770.491352,196.765791 C768.008945,200.535253 764.768073,203.638117 760.768639,206.074477 C756.769205,208.510836 752.241178,209.774966 747.184423,209.866904 C743.874546,210.326595 740.47278,210.349579 736.979022,209.935857 C733.485263,209.522136 730.221406,208.602769 727.187353,207.177728 C724.1533,205.752688 721.601975,203.753064 719.533302,201.178797 C717.46463,198.60453 716.246429,195.386745 715.878665,191.525345 C715.694783,188.215574 715.556874,184.767947 715.464933,181.182361 C715.372992,177.596775 715.304037,173.574543 715.258067,169.115546 C715.212096,164.656548 715.212096,159.600028 715.258067,153.945835 C715.304037,148.291642 715.372992,141.741151 715.464933,134.294165 C715.281051,132.731217 715.350006,131.145309 715.671799,129.536392 C715.993593,127.927475 716.430306,126.433504 716.981952,125.054432 C717.809421,122.664042 718.843742,120.45756 720.084946,118.434922 C721.326149,116.412284 722.820168,114.619518 724.567047,113.05657 C725.578398,112.321066 726.681674,111.700493 727.876907,111.194833 C729.07214,110.689174 730.313325,110.252474 731.600499,109.884722 C735.829786,108.50565 740.013039,107.95403 744.150384,108.229844 C748.28773,108.505659 752.172179,109.44801 755.803849,111.056927 C759.435519,112.665843 762.722361,114.803372 765.664473,117.469577 C768.606585,120.135782 770.951046,123.192678 772.697925,126.640356 C774.444804,130.088035 775.50211,133.834457 775.869874,137.879733 C776.237638,141.925009 775.686,146.062162 774.214944,150.291314 C770.813127,151.026819 767.480315,151.279645 764.216409,151.0498 C760.952503,150.819954 757.573722,150.383255 754.079964,149.739688 C753.804141,147.992864 753.643246,146.016225 753.597276,143.809711 C753.551305,141.603196 753.298471,139.557604 752.838766,137.672873 C752.379061,135.788142 751.52862,134.248202 750.287416,133.053007 C749.046212,131.857812 747.092495,131.306191 744.426206,131.398129 C743.230973,131.582006 741.966803,131.811847 740.633658,132.087662 C739.300514,132.363476 738.266193,132.869128 737.530665,133.604633 Z M787.554682,145.464588 C788.198269,144.085517 789.23259,142.890339 790.657676,141.87902 C792.082761,140.867701 793.737674,140.017286 795.622465,139.327751 C797.507256,138.638215 799.529928,138.155547 801.690541,137.879733 C803.851155,137.603919 806.034721,137.466013 808.241306,137.466013 C810.080126,137.64989 811.849964,137.672874 813.550872,137.534967 C815.251781,137.39706 817.067589,137.420044 818.99835,137.60392 C821.940462,137.787796 824.744621,138.362401 827.41091,139.327751 C830.077199,140.293101 832.37569,141.695136 834.306451,143.533898 C835.593625,144.361341 836.604961,145.694423 837.340489,147.533185 C838.076018,149.371947 838.627655,151.509476 838.995419,153.945835 C839.363183,156.382195 839.593032,159.04836 839.684974,161.94441 C839.776915,164.84046 839.868854,167.805419 839.960795,170.839376 C839.868854,173.505581 839.75393,176.539493 839.616018,179.941203 C839.478107,183.342912 839.248258,186.606666 838.926464,189.732561 C838.60467,192.858457 838.190942,195.662527 837.685267,198.144855 C837.179591,200.627184 836.467059,202.328013 835.547649,203.247394 C833.984652,205.453909 831.938995,207.016833 829.410617,207.936214 C826.882239,208.855595 824.147035,209.430199 821.204923,209.660044 C818.262811,209.88989 815.228803,209.88989 812.102809,209.660044 C808.976814,209.430199 806.126686,209.315278 803.552338,209.315278 C798.863346,208.487835 794.909942,206.465228 791.692007,203.247394 C789.209599,201.04088 787.508716,198.282778 786.589306,194.973007 C785.669896,191.663235 785.118258,188.192624 784.934376,184.561069 C784.750494,180.929514 784.727509,177.27503 784.865421,173.597506 C785.003332,169.919982 784.934378,166.564291 784.658555,163.530334 C784.658555,161.875448 784.704524,160.243572 784.796465,158.634655 C784.888406,157.025738 785.072286,155.347893 785.348109,153.601069 C785.44005,152.58975 785.761838,151.233683 786.313485,149.532829 C786.865131,147.831974 787.278859,146.475907 787.554682,145.464588 Z M804.793535,161.73755 C804.241889,162.105303 803.828161,163.02467 803.552338,164.495679 C803.184574,167.437698 803.000694,170.356689 803.000694,173.252739 C803.000694,176.14879 802.908755,179.205685 802.724873,182.423519 C802.632932,184.538095 803.184569,186.169972 804.379803,187.319198 C805.575036,188.468424 807.023085,189.249887 808.723993,189.663608 C810.424902,190.077329 812.19474,190.169266 814.03356,189.939421 C815.87238,189.709576 817.389384,189.272876 818.584617,188.62931 C820.147615,187.893805 821.20492,186.376849 821.756566,184.078396 C822.12433,181.136377 822.423134,178.171418 822.652987,175.18343 C822.882839,172.195442 822.721945,169.368388 822.170299,166.702183 C821.710594,163.484349 820.377469,161.139963 818.170885,159.668953 C815.964301,158.197944 813.068202,157.876165 809.482503,158.703608 C807.551742,159.255237 805.988768,160.266541 804.793535,161.73755 Z M869.57401,146.843653 C870.033715,146.567838 870.608338,146.24606 871.297896,145.878307 C871.987453,145.510555 872.562076,145.142808 873.021781,144.775056 C874.952542,143.395984 877.113123,142.292744 879.50359,141.465301 C881.894056,140.637858 884.353441,140.178174 886.881819,140.086236 C889.410197,139.994298 891.869582,140.270108 894.260048,140.913675 C896.650514,141.557242 898.811095,142.706451 900.741857,144.361336 C901.661267,145.188779 902.373799,146.912593 902.879474,149.532829 C903.38515,152.153064 903.706939,155.301897 903.84485,158.979421 C903.982762,162.656945 904.028731,166.679176 903.982761,171.046236 C903.93679,175.413296 903.867836,179.826258 903.775895,184.285256 C903.683954,188.744254 903.592014,193.042296 903.500073,197.17951 C903.408132,201.316724 903.454102,204.948225 903.637984,208.07412 C900.420049,208.533811 897.546935,208.740668 895.018557,208.694699 C892.49018,208.64873 889.617066,208.625746 886.399131,208.625746 C886.215249,206.51117 886.123309,204.120815 886.123309,201.45461 C886.123309,198.788405 886.146294,196.030304 886.192265,193.180223 C886.238235,190.330142 886.238235,187.480103 886.192265,184.630022 C886.146294,181.779941 886.03137,179.113776 885.847488,176.631448 C885.755547,175.52819 885.663607,174.310029 885.571666,172.976927 C885.479725,171.643824 885.318831,170.333726 885.088978,169.046592 C884.859126,167.759459 884.537337,166.61025 884.123602,165.598931 C883.709868,164.587612 883.135245,163.80615 882.399717,163.254521 C882.307776,163.162583 882.215836,163.116615 882.123895,163.116615 C882.031954,163.116615 881.940015,163.070646 881.848074,162.978708 C881.112546,162.610956 880.032255,162.312162 878.607169,162.082316 C877.182084,161.852471 875.780004,161.944408 874.400889,162.358129 C873.021774,162.771851 871.780589,163.599281 870.677297,164.840445 C869.574005,166.08161 868.930427,167.943328 868.746545,170.425657 C868.562663,173.64349 868.516694,176.792323 868.608635,179.872249 C868.700576,182.952176 868.8155,186.032056 868.953412,189.111982 C869.091323,192.191908 869.160278,195.248804 869.160278,198.282762 C869.160278,201.316719 868.976399,204.350631 868.608635,207.384588 L868.608635,207.936214 C867.045637,208.395904 865.689528,208.671714 864.540265,208.763652 C863.391003,208.855591 862.218772,208.878575 861.023539,208.832606 C859.828306,208.786637 858.495181,208.717684 857.024125,208.625746 C855.553069,208.533808 853.714277,208.579776 851.507692,208.763652 C851.507692,197.455266 851.392768,186.14705 851.162915,174.838664 C850.933063,163.530278 851.002017,151.808346 851.369782,139.672517 C852.473074,139.764455 853.39247,139.833407 854.127998,139.879377 C854.863526,139.925346 855.553073,139.94833 856.19666,139.94833 C856.840247,139.94833 857.529795,139.925346 858.265323,139.879377 C859.000851,139.833407 859.920247,139.764455 861.023539,139.672517 C861.391303,139.672517 862.034881,139.603564 862.954291,139.465657 C863.873701,139.32775 864.793097,139.212829 865.712507,139.120891 C866.631917,139.028953 867.459374,139.005969 868.194902,139.051938 C868.93043,139.097907 869.298189,139.258796 869.298189,139.53461 C869.482071,141.097558 869.551025,142.384672 869.505055,143.395991 C869.459084,144.40731 869.482069,145.556519 869.57401,146.843653 Z" id="GopherConSg-Copy-5" fill="#E74861"></path>
        <g id="Group-8" transform="translate(1060.000000, 97.000000)" fill="#15C8DF">
            <path d="M56.8065798,0.388977227 C16.6817226,-2.80154431 0.0315300503,13.9085443 0.0315300503,40.4664056 C0.0315300503,67.0242669 -0.994212987,109.858694 8.65536966,121.610138 C18.3049523,133.361581 36.6879149,134.378443 66.1798681,133.911992 C95.6718212,133.445542 231.980022,129.026701 258.176861,129.026701 C284.3737,129.026701 290.772695,114.128271 291.380543,96.0859652 C291.988391,78.0436593 295,63.6210093 295,35.7428167 C295,17.157355 280.548651,6.73685048 251.645952,4.48130309 C148.502942,3.88010021 83.5564847,2.51599158 56.8065798,0.388977227 Z" id="Path-2-Copy"></path>
        </g>
        <path d="M1126.924,171.120879 C1123.7757,172.732609 1121.52433,173.996332 1120.16983,174.912088 C1118.81533,175.827843 1117.62558,176.963363 1116.60056,178.318681 C1115.57553,179.673999 1114.33087,181.816835 1112.86654,184.747253 C1114.55052,184.820513 1116.96662,184.857143 1120.11492,184.857143 C1124.28825,184.857143 1127.3999,184.820513 1129.44995,184.747253 C1133.98936,184.600732 1137.97959,184.527473 1141.42076,184.527473 C1142.15292,186.285723 1142.519,188.373614 1142.519,190.791209 L1142.40918,192.549451 L1142.40918,197.604396 C1142.40918,198.776563 1142.48239,199.692304 1142.62882,200.351648 C1142.62882,200.717951 1142.5007,200.937729 1142.24444,201.010989 C1141.98818,201.084249 1141.42076,201.120879 1140.54217,201.120879 L1098.80908,201.67033 L1095.18489,201.89011 C1094.3063,201.89011 1093.62906,201.835165 1093.15315,201.725275 C1092.67725,201.615384 1092.29287,201.56044 1092,201.56044 C1092.29287,197.750897 1092.4393,194.674004 1092.4393,192.32967 C1092.51251,187.860784 1092.75046,184.271076 1093.15315,181.56044 C1093.55584,178.849803 1094.52594,176.212467 1096.06348,173.648352 C1098.99214,170.424892 1103.86095,166.725296 1110.67006,162.549451 C1114.62375,160.131856 1117.73539,158.043965 1120.0051,156.285714 C1121.03013,155.62637 1121.83549,154.619054 1122.42122,153.263736 C1123.00695,151.908418 1123.29981,150.461546 1123.29981,148.923077 C1123.29981,147.018305 1122.89713,145.351655 1122.09175,143.923077 C1121.28637,142.494498 1120.22475,141.70696 1118.90686,141.56044 C1116.56394,141.6337 1114.98981,142.897424 1114.18443,145.351648 C1113.37905,147.805873 1112.82994,151.010969 1112.53707,154.967033 C1108.21731,155.553116 1103.93422,155.846154 1099.68767,155.846154 C1097.27154,155.846154 1095.03847,155.589746 1092.98842,155.076923 C1092.4759,152.512808 1092.21965,150.05862 1092.21965,147.714286 C1092.21965,144.124524 1092.76876,140.73628 1093.86701,137.549451 C1094.96525,134.362621 1096.57599,131.560452 1098.69926,129.142857 C1100.52967,126.945044 1103.34845,125.260079 1107.1557,124.087912 C1110.96295,122.915745 1114.98978,122.32967 1119.23633,122.32967 C1124.28826,122.32967 1128.42491,122.952375 1131.64643,124.197802 C1135.30725,126.102574 1138.14434,128.721595 1140.15778,132.054945 C1142.17123,135.388295 1143.39759,139.106207 1143.83689,143.208791 L1143.83689,144.197802 L1143.94671,145.186813 C1144.09314,148.776575 1144.12975,151.413911 1144.05653,153.098901 C1143.69045,157.421267 1142.02481,160.882771 1139.05955,163.483516 C1136.09429,166.084262 1132.04915,168.630024 1126.924,171.120879 Z M1210.5,146.725275 C1211.23216,150.754599 1211.52502,155.186789 1211.37859,160.021978 C1211.30537,166.102595 1210.24375,172.347953 1208.1937,178.758242 C1206.14364,185.16853 1203.0503,190.534777 1198.91358,194.857143 C1194.77686,199.179509 1189.7067,201.340659 1183.70297,201.340659 C1180.18858,201.340659 1177.18676,200.864474 1174.69741,199.912088 C1169.79191,198.080577 1166.13115,195.443241 1163.71501,192 C1161.29888,188.556759 1159.77966,184.912107 1159.15732,181.065934 C1158.53498,177.219761 1158.1506,172.3297 1158.00417,166.395604 L1157.89435,163.538462 C1157.74791,161.047607 1157.6747,158.959715 1157.6747,157.274725 C1157.6747,152.659318 1158.13229,148.318702 1159.0475,144.252747 C1159.9627,140.186793 1161.55513,136.358992 1163.82484,132.769231 L1163.71501,132.659341 L1165.0329,131.340659 C1167.59547,128.556763 1170.43256,126.377297 1173.54425,124.802198 C1176.65595,123.227098 1180.22519,122.43956 1184.25209,122.43956 C1191.5005,122.43956 1197.35772,124.783859 1201.82391,129.472527 C1206.29011,134.161196 1209.18211,139.912054 1210.5,146.725275 Z M1189.74328,166.725275 C1189.8165,165.553108 1189.8531,163.391957 1189.8531,160.241758 C1189.8531,156.798518 1189.61516,153.446903 1189.13925,150.186813 C1188.66334,146.926724 1187.9495,144.490851 1186.99768,142.879121 C1185.82622,141.706954 1184.61817,141.120879 1183.37349,141.120879 C1183.00741,141.120879 1182.71455,141.157509 1182.4949,141.230769 C1181.90917,141.30403 1181.34175,141.560437 1180.79263,142 C1180.24351,142.439563 1179.82252,142.952378 1179.52966,143.538462 C1179.16358,144.051285 1178.85241,145.113545 1178.59615,146.725275 C1178.3399,148.337004 1178.10195,150.021969 1177.8823,151.78022 C1177.51622,155.956065 1177.33318,159.655662 1177.33318,162.879121 C1177.33318,167.567789 1177.80908,171.816831 1178.76089,175.626374 L1178.76089,175.516484 C1179.05375,176.249088 1179.23679,176.835163 1179.31001,177.274725 C1180.11539,179.912101 1180.92076,181.450547 1181.72614,181.89011 L1181.94578,181.89011 C1182.60473,182.109891 1183.30027,182.21978 1184.03244,182.21978 C1185.2039,182.21978 1186.13739,181.780224 1186.83295,180.901099 C1187.5285,180.021974 1188.09592,178.776565 1188.53522,177.164835 C1189.04773,175.553105 1189.3772,173.062288 1189.52363,169.692308 C1189.52363,168.813182 1189.59685,167.787552 1189.74328,166.615385 L1189.74328,166.725275 Z M1251.24467,201.56044 C1246.99813,201.56044 1242.86147,201.194143 1238.83457,200.461538 L1238.83457,189.472527 C1238.83457,184.783859 1239.05421,177.750963 1239.49351,168.373626 L1239.71316,164.857143 C1240.00603,158.117182 1240.15246,153.172177 1240.15246,150.021978 C1239.20064,151.267405 1238.13902,151.89011 1236.96756,151.89011 C1236.45505,151.89011 1234.89923,151.597073 1232.30005,151.010989 C1229.70087,150.424905 1227.33968,149.765571 1225.2164,149.032967 C1223.09313,148.300363 1222.03151,147.714288 1222.03151,147.274725 C1222.17794,145.882777 1223.25787,143.337015 1225.27132,139.637363 C1227.28476,135.93771 1229.49952,132.219799 1231.91566,128.483516 C1234.3318,124.747234 1235.7595,122.659343 1236.1988,122.21978 L1237.51668,122.21978 C1241.1775,122.073259 1244.32575,122 1246.96154,122 C1251.64738,122 1256.04029,122.183148 1260.14041,122.549451 C1260.50649,127.750942 1260.68953,134.051245 1260.68953,141.450549 C1260.68953,147.091603 1260.46988,155.406538 1260.03058,166.395604 C1259.6645,175.553159 1259.48146,183.868095 1259.48146,191.340659 C1259.48146,194.7839 1259.51807,197.347977 1259.59129,199.032967 C1259.59129,200.717957 1256.80911,201.56044 1251.24467,201.56044 Z M1328.5607,165.516484 C1328.5607,166.102567 1328.63392,167.494495 1328.78035,169.692308 C1328.92678,172.036642 1329,173.758236 1329,174.857143 C1329,176.615393 1328.89018,178.336988 1328.67053,180.021978 C1327.79193,185.882813 1325.85173,190.901078 1322.84986,195.076923 C1320.87302,197.347997 1318.25558,199.069591 1314.99745,200.241758 C1311.73933,201.413925 1308.13348,202 1304.1798,202 C1299.2743,202 1294.47871,201.029314 1289.79286,199.087912 C1285.10702,197.14651 1281.59269,194.637378 1279.24977,191.56044 C1277.1265,188.410241 1276.06487,184.857163 1276.06487,180.901099 C1276.06487,179.142848 1276.13809,177.86081 1276.28452,177.054945 L1276.28452,176.065934 L1282.87396,175.846154 L1285.29008,175.736264 C1287.34014,175.589743 1289.02409,175.516484 1290.34198,175.516484 C1292.75812,175.516484 1294.88136,175.663002 1296.71177,175.956044 C1297.15107,177.421253 1297.84661,178.648347 1298.79842,179.637363 C1299.75024,180.626379 1300.81186,181.084249 1301.98332,181.010989 L1301.87349,181.010989 C1303.63069,180.791208 1304.85704,179.545799 1305.55259,177.274725 C1306.24815,175.003652 1306.52271,172.329686 1306.37627,169.252747 C1304.17979,169.838831 1301.98333,170.131868 1299.78684,170.131868 C1295.68673,170.131868 1291.86123,169.197812 1288.31024,167.32967 C1284.75925,165.461529 1281.92216,162.952397 1279.79889,159.802198 C1278.55421,157.970687 1277.62072,155.809536 1276.99838,153.318681 C1276.37604,150.827826 1276.06487,148.300379 1276.06487,145.736264 C1276.06487,139.728908 1277.56579,134.893791 1280.56766,131.230769 C1282.83736,128.446873 1285.9307,126.340666 1289.84778,124.912088 C1293.76485,123.483509 1298.06624,122.695971 1302.75209,122.549451 L1304.39944,122.659341 L1306.0468,122.659341 C1310.80586,122.732601 1314.61305,123.117213 1317.46849,123.813187 C1320.32393,124.509161 1322.5936,126.212441 1324.27757,128.923077 C1325.96155,131.413932 1327.04147,134.234416 1327.51738,137.384615 C1327.99328,140.534814 1328.26784,144.490819 1328.34106,149.252747 L1328.5607,165.516484 Z M1303.41103,141.230769 C1302.60565,141.230769 1301.47081,141.597066 1300.00649,142.32967 C1298.90824,142.769233 1298.35913,143.868123 1298.35913,145.626374 C1298.43235,147.091582 1298.61538,148.410251 1298.90825,149.582418 C1299.42076,150.534803 1300.098,151.304026 1300.93999,151.89011 C1301.78198,152.476193 1302.64226,152.769231 1303.52085,152.769231 C1304.25302,152.769231 1304.98517,152.567768 1305.71733,152.164835 C1306.44949,151.761903 1307.03522,151.230773 1307.47451,150.571429 C1307.84059,149.838824 1308.17006,148.520156 1308.46293,146.615385 C1308.53614,145.150176 1308.06025,143.886452 1307.03522,142.824176 C1306.01019,141.761899 1304.80214,141.230769 1303.41103,141.230769 Z" id="2019" fill="#FFFFFF"></path>
        <g id="Group-3-Copy" transform="translate(22.000000, 42.000000)">
            <path d="M174.070813,55.7058066 C100.827538,38.1512293 71.2251757,48.6799307 40.6388084,82.120064 C10.0524411,115.560197 11.8245188,155.255219 48.2512762,185.665393 C84.6780336,216.075567 156.273095,207.045906 204.846107,170.466845 C253.41912,133.887783 247.314087,73.2603838 174.070813,55.7058066 Z" id="Path-7-Copy-4" fill="#65D6E4"></path>
            <path d="M175.003109,51.8159706 C211.063568,60.4587589 233.781674,80.0560885 239.053963,105.129033 C244.099513,129.123702 232.258347,154.830793 207.252388,173.662124 C156.229204,212.086346 82.974646,219.864196 45.6878262,188.736016 C7.94654036,157.228433 5.17749813,114.963352 37.687244,79.4203848 C71.5457682,42.4027963 104.537215,34.9270618 175.003109,51.8159706 Z M173.138517,59.5956426 C137.24668,50.9932689 112.02451,49.2084802 92.2424449,53.6910199 C73.9966925,57.825437 59.6171885,67.2975953 43.5903728,84.8197432 C14.1541833,117.002385 16.579023,154.013755 50.8147262,182.59477 C84.8638875,211.020054 154.109515,203.667855 202.439826,167.271565 C225.12376,150.188889 235.580484,127.487415 231.225173,106.775255 C226.652298,85.0284478 206.415068,67.571198 173.138517,59.5956426 Z" id="Path-7-Copy-4" fill="#000000" fill-rule="nonzero"></path>
            <path d="M63.7694187,55.5491967 C61.8230768,36.2567885 36.1162889,25.5393488 20.1220203,33.8329843 C9.07243291,39.562615 6.46454013,48.10324 5,57.1438511 C7.68981856,57.1438511 10.2744121,57.305517 12.7477514,57.618959 C30.4301158,59.8598145 42.4261747,69.8580788 46.5328064,84 C61.3704562,77.837254 65.0304366,68.0485803 63.7694187,55.5491967 Z" id="Path-Copy-16" fill="#65D6E4" transform="translate(34.500000, 57.500000) scale(-1, 1) translate(-34.500000, -57.500000) "></path>
            <path d="M67.7492166,55.1476892 C69.3130468,70.64859 63.5014465,81.2834605 48.0671074,87.6940385 L43.9382556,89.4089371 L42.6914879,85.1154694 C38.9580961,72.2588667 28.0489131,63.590041 12.2448604,61.5872207 C9.92204357,61.2928541 7.5043081,61.1438511 5,61.1438511 L0.299871878,61.1438511 L1.05147429,56.5042069 C3.13941008,43.6153722 7.42914427,35.9089367 18.2806972,30.2819944 C37.3419194,20.398027 65.5755019,33.6015298 67.7492166,55.1476892 Z M59.7896207,55.9507043 C58.2087643,40.2810374 36.2133254,29.9948175 21.9633434,37.3839742 C14.9731517,41.008654 11.7109911,45.522794 9.83153815,53.313352 C10.9873415,53.3958322 12.127291,53.508337 13.2506423,53.6506973 C30.3370361,55.8160265 43.1086774,64.8898038 48.823282,78.4953665 C57.8920181,73.577864 60.8713109,66.6725664 59.7896207,55.9507043 Z" id="Path-Copy-16" fill="#000000" fill-rule="nonzero" transform="translate(34.147580, 58.177751) scale(-1, 1) translate(-34.147580, -58.177751) "></path>
            <path d="M20,56.7170835 C27.8277516,60.6274173 33.7131203,62.1091044 39.100645,69 C48.4440588,67.8438517 50.4822907,55.8368874 39.8339109,48.8105962 C29.1855312,41.784305 20.8574977,49.2571651 20,56.7170835 Z" id="Path-Copy-17" fill="#000000" transform="translate(33.500000, 57.500000) scale(-1, 1) translate(-33.500000, -57.500000) "></path>
            <path d="M38.5351562,72 C38.7175803,46.3242188 49.8725282,27.5755208 72,15.7539063 C105.191208,-1.97851563 135,5 165,15.7539063 C185,22.9231771 161.186849,48.5052083 93.5605469,92.5 L38.5351562,72 Z" id="Path-26-Copy-2" fill="#FFFFFF"></path>
            <path d="M93.0664566,88.0473459 C125.697987,66.7358774 147.781024,49.8723986 159.212298,37.5919909 C164.634756,31.7667434 167.45786,27.1612951 167.811872,24.1206668 C168.051901,22.0590527 167.031654,20.7314079 163.650245,19.5192962 C145.810244,13.1243061 132.603991,9.81143276 119.469772,9.06509081 C103.661056,8.1667726 88.8461957,11.2888775 73.8848719,19.2819734 C53.8661173,29.9770046 43.5244135,46.4703113 42.6008319,69.2461109 L93.0664566,88.0473459 Z M34.5352572,71.9715811 C34.7280226,44.8402721 46.6851423,24.7433225 70.1151281,12.2258391 C86.3954499,3.52806776 102.67297,0.0977198046 119.923634,1.07797559 C133.975442,1.87645881 147.849558,5.35687017 166.349755,11.9885163 C172.968346,14.36104 176.471455,18.9196256 175.758196,25.0458371 C175.158921,30.1930343 171.552093,36.0770066 165.067975,43.0427748 C152.882027,56.1339155 129.809532,73.6899139 95.741814,95.8529202 L94.0525568,96.951879 L34.5153677,74.7709846 L34.5352572,71.9715811 Z" id="Path-26-Copy-2" fill="#000000" fill-rule="nonzero"></path>
            <path d="M181.772679,243 C180.949461,229.974669 188.579221,216.241651 204.661959,201.800945 C232.487373,176.816479 283,162 283,101.874716 C283,37.7787587 233.038414,5 183.786558,5 C123.691814,5 92,23.4804687 78,67.3532572 C89.75694,67.3532572 127.501907,57.8143856 139.47308,57.8143856 C166.480135,57.8143856 182.97837,73.8615896 182.97837,96.1914961 C182.97837,127.361743 150.165061,125.222688 137.396903,167.487263 C128.884798,195.663647 143.676723,220.834559 181.772679,243 Z" id="Path-Copy-18" fill="#FFFFFF"></path>
            <path d="M185.764714,242.747698 C185.966463,245.939859 182.525697,248.065921 179.761069,246.457373 C140.230743,223.457369 124.431656,196.572605 133.567819,166.330494 C138.014653,151.610787 144.780804,141.272654 154.902913,131.452188 C157.586601,128.848474 166.38385,121.056184 166.35199,121.085406 C175.493611,112.700587 178.97837,106.572842 178.97837,96.1914961 C178.97837,75.6210315 163.756361,61.8143856 139.47308,61.8143856 C134.880085,61.8143856 127.51793,63.0304333 109.565465,66.4822608 L109.411491,66.5118667 C90.3132295,70.1840991 83.2808341,71.3532572 78,71.3532572 C75.2913741,71.3532572 73.3658872,68.7176812 74.189314,66.1372505 C88.7434911,20.5277982 121.955494,1 183.786558,1 C210.141684,1 235.606957,9.75716686 254.466357,25.9273894 C275.304923,43.7945683 287,69.5385093 287,101 C287,121.176578 281.565205,137.71023 271.198737,151.929515 C263.070976,163.078053 253.029755,171.842395 237.185755,182.926375 C234.621794,184.720044 225.14922,191.205215 223.048232,192.672038 C216.27065,197.403863 211.48059,201.054325 207.334364,204.777226 C192.074221,218.479323 185.032026,231.154768 185.764714,242.747698 Z M201.989553,198.824664 C206.426045,194.841133 211.446629,191.014991 218.468644,186.112512 C220.610761,184.616975 230.079157,178.134665 232.59995,176.371194 C247.780304,165.75148 257.243174,157.491945 264.734296,147.216661 C274.107144,134.360286 279,119.475312 279,101 C279,71.8601828 268.314752,48.3391399 249.259093,32.0006429 C231.902649,17.1190679 208.292926,9 183.786558,9 C127.877482,9 98.0290087,25.0301653 83.774986,62.9060346 C88.5726302,62.2908752 95.7834412,60.9857358 107.900914,58.6557762 L108.054926,58.626163 C126.79438,55.0230164 134.111633,53.8143856 139.47308,53.8143856 C168.00989,53.8143856 186.97837,71.0191499 186.97837,96.1914961 C186.97837,109.170886 182.400267,117.221212 171.759538,126.981033 C171.673422,127.06002 163.002062,134.740803 160.473567,137.193948 C151.272198,146.121114 145.250776,155.321359 141.225987,168.644032 C133.761985,193.351033 145.703255,215.682073 178.069881,236.083998 C179.808208,223.913771 187.867524,211.504847 201.989553,198.824664 Z" id="Path-Copy-18" fill="#000000" fill-rule="nonzero"></path>
            <path d="M193.515719,210.684038 L189.041618,217.315962 C174.483503,207.494609 166.980695,191.615089 173.188163,175.693337 C176.694647,166.699431 181.200237,159.875166 190.308373,148.345148 C190.568303,148.016102 190.833936,147.680292 191.186175,147.235326 C191.623742,146.682651 191.862211,146.381444 192.059616,146.131987 C192.765642,145.239792 193.282621,144.584659 193.787707,143.941205 C205.512394,129.004553 210,119.994764 210,107.391669 C210,94.7557905 202.223703,83.4213419 193.935037,79.6390236 L197.256186,72.3609764 C208.31401,77.4069287 218,91.5248759 218,107.391669 C218,115.581852 216.094622,123.05149 212.419343,130.430365 C209.549705,136.19175 206.047621,141.27911 200.080557,148.880845 C199.56777,149.534109 199.044968,150.196621 198.332991,151.096337 C198.134904,151.346656 197.895714,151.648772 197.458718,152.200727 C197.108023,152.643741 196.843924,152.977613 196.585981,153.304144 C187.941411,164.247332 183.779519,170.551024 180.641718,178.59928 C175.987428,190.537234 181.758972,202.752574 193.515719,210.684038 Z" id="Path-2-Copy-8" fill="#000000" fill-rule="nonzero"></path>
            <path d="" id="Path-3-Copy-4" stroke="#000000" stroke-width="8"></path>
            <path d="M198.951006,59.9996999 L199.048994,52.0003001 C221.805199,52.2790487 238.694797,64.8407945 249.270061,89.0616427 C258.361456,109.883941 254.346582,134.752343 237.64982,153.13541 C231.573851,159.825027 228.707868,165.341266 228.045616,170.743166 C227.513875,175.080505 228.177171,178.891702 230.495597,186.885847 L222.812196,189.114153 C220.20519,180.124955 219.401607,175.507699 220.105066,169.769685 C220.987715,162.570042 224.615679,155.587194 231.727876,147.756694 C246.30004,131.712802 249.772355,110.205043 241.93843,92.2627663 C232.560448,70.7840897 218.380549,60.2376991 198.951006,59.9996999 Z" id="Path-4-Copy-4" fill="#000000" fill-rule="nonzero"></path>
            <path d="M186.913664,41.6187179 L184.324617,34.0492508 C209.70889,25.3668569 235.443377,31.0976187 256.358241,47.5437692 C274.799879,62.0451287 287,83.3506785 287,101 L279,101 C279,86.0295913 268.057652,66.9205393 251.413244,53.8324102 C232.522667,38.9780329 209.574664,33.8677878 186.913664,41.6187179 Z" id="Path-5-Copy-4" fill="#000000" fill-rule="nonzero"></path>
            <path d="M198.769419,56.5491967 C196.823077,37.2567885 171.116289,26.5393488 155.12202,34.8329843 C144.072433,40.562615 141.46454,49.10324 140,58.1438511 C142.689819,58.1438511 145.274412,58.305517 147.747751,58.618959 C165.430116,60.8598145 177.426175,70.8580788 181.532806,85 C196.370456,78.837254 200.030437,69.0485803 198.769419,56.5491967 Z" id="Path-Copy-19" fill="#65D6E4"></path>
            <path d="M202.749217,56.1476892 C204.313047,71.64859 198.501447,82.2834605 183.067107,88.6940385 L178.938256,90.4089371 L177.691488,86.1154694 C173.958096,73.2588667 163.048913,64.590041 147.24486,62.5872207 C144.922044,62.2928541 142.504308,62.1438511 140,62.1438511 L135.299872,62.1438511 L136.051474,57.5042069 C138.13941,44.6153722 142.429144,36.9089367 153.280697,31.2819944 C172.341919,21.398027 200.575502,34.6015298 202.749217,56.1476892 Z M194.789621,56.9507043 C193.208764,41.2810374 171.213325,30.9948175 156.963343,38.3839742 C149.973152,42.008654 146.710991,46.522794 144.831538,54.313352 C145.987341,54.3958322 147.127291,54.508337 148.250642,54.6506973 C165.337036,56.8160265 178.108677,65.8898038 183.823282,79.4953665 C192.892018,74.577864 195.871311,67.6725664 194.789621,56.9507043 Z" id="Path-Copy-19" fill="#000000" fill-rule="nonzero"></path>
            <path d="M155,58.7170835 C162.827752,62.6274173 168.71312,64.1091044 174.100645,71 C183.444059,69.8438517 185.482291,57.8368874 174.833911,50.8105962 C164.185531,43.784305 155.857498,51.2571651 155,58.7170835 Z" id="Path-Copy-20" fill="#000000"></path>
            <path d="M117.643651,58.0793626 C95.7040857,56.769022 78,71.6584927 78,91.5432389 C78,109.339288 93.3887658,122.169401 113.251416,124.780925 C121.304313,125.839713 131.088643,123.026883 138.789153,117.3182 C147.11148,111.14854 152,102.482833 152,92.716978 C152,71.5155956 139.816335,59.4036262 117.643651,58.0793626 Z M118.120601,50.0935929 C144.408524,51.6636391 160,67.1633658 160,92.716978 C160,105.168864 153.810397,116.140954 143.553453,123.74482 C134.242176,130.647627 122.398636,134.052444 112.208558,132.712661 C88.7746855,129.631596 70,113.978532 70,91.5432389 C70,66.8345975 91.7764535,48.5201885 118.120601,50.0935929 Z" id="Path-8-Copy-8" fill="#000000" fill-rule="nonzero"></path>
            <g id="Group-3-Copy-5" transform="translate(12.000000, 49.000000)">
                <path d="M47.8821263,5.08647773 C71.7180893,6.51008074 86,19.9710133 86,43.716978 C86,67.4629426 60.8801455,82.1331604 42.7299872,79.7467931 C24.5798289,77.3604258 4,65.1154644 4,42.5432389 C4,19.9710133 24.0461632,3.66287473 47.8821263,5.08647773 Z" id="Path-8-Copy" fill="#FFFFFF"></path>
                <path d="M47.6436512,9.07936261 C25.7040857,7.76902196 8,22.6584927 8,42.5432389 C8,60.3392877 23.3887658,73.1694005 43.2514162,75.7809248 C51.3043129,76.8397127 61.088643,74.0268835 68.7891529,68.3182 C77.1114801,62.1485395 82,53.4828328 82,43.716978 C82,22.5155956 69.8163347,10.4036262 47.6436512,9.07936261 Z M48.1206013,1.09359286 C74.4085238,2.66363914 90,18.1633658 90,43.716978 C90,56.1688635 83.8103974,67.1409535 73.553453,74.74482 C64.2421762,81.6476268 52.3986358,85.0524442 42.2085582,83.7126615 C18.7746855,80.631596 1.33226763e-15,64.9785322 0,42.5432389 C0,17.8345975 21.7764535,-0.479811491 48.1206013,1.09359286 Z" id="Path-8-Copy" fill="#000000" fill-rule="nonzero"></path>
                <path d="M33.5282627,35.0788083 C36.5435957,30.205325 42.9131116,27.4167832 49.0129528,28.1029164 C55.9985314,28.8886807 61.2892424,33.923444 62.6835263,42.0920202 C64.071333,50.2226485 60.7713703,56.3908653 54.4680084,59.319879 C49.4521751,61.6506105 43.0013232,61.5447716 39.1170744,59.0719494 C31.6114931,54.2936848 28.3676903,43.4195006 33.5282627,35.0788083 Z" id="Path-9-Copy" fill="#000000" fill-rule="nonzero"></path>
                <ellipse id="Oval-Copy" fill="#FFFFFF" cx="52" cy="45.5" rx="5" ry="5.5"></ellipse>
            </g>
            <path d="M117.882126,54.0864777 C141.718089,55.5100807 156,68.9710133 156,92.716978 C156,116.462943 130.880146,131.13316 112.729987,128.746793 C94.5798289,126.360426 74,114.115464 74,91.5432389 C74,68.9710133 94.0461632,52.6628747 117.882126,54.0864777 Z" id="Path-8-Copy-9" fill="#FFFFFF"></path>
            <path d="M117.643651,58.0793626 C95.7040857,56.769022 78,71.6584927 78,91.5432389 C78,109.339288 93.3887658,122.169401 113.251416,124.780925 C121.304313,125.839713 131.088643,123.026883 138.789153,117.3182 C147.11148,111.14854 152,102.482833 152,92.716978 C152,71.5155956 139.816335,59.4036262 117.643651,58.0793626 Z M118.120601,50.0935929 C144.408524,51.6636391 160,67.1633658 160,92.716978 C160,105.168864 153.810397,116.140954 143.553453,123.74482 C134.242176,130.647627 122.398636,134.052444 112.208558,132.712661 C88.7746855,129.631596 70,113.978532 70,91.5432389 C70,66.8345975 91.7764535,48.5201885 118.120601,50.0935929 Z" id="Path-8-Copy-9" fill="#000000" fill-rule="nonzero"></path>
            <path d="M116.528263,84.0788083 C119.543596,79.205325 125.913112,76.4167832 132.012953,77.1029164 C138.998531,77.8886807 144.289242,82.923444 145.683526,91.0920202 C147.071333,99.2226485 143.77137,105.390865 137.468008,108.319879 C132.452175,110.65061 126.001323,110.544772 122.117074,108.071949 C114.611493,103.293685 111.36769,92.4195006 116.528263,84.0788083 Z" id="Path-9-Copy-5" fill="#000000" fill-rule="nonzero"></path>
            <ellipse id="Oval-Copy-5" fill="#FFFFFF" cx="135" cy="94.5" rx="5" ry="5.5"></ellipse>
            <path d="" id="Path-10-Copy-4" stroke="#000000" stroke-width="8"></path>
            <path d="M73.3359375,151.108431 C73.3359375,166.034212 73.3359375,166.584994 73.3359375,171.129915 C73.3359375,175.674837 70.3751445,180.501009 62.8808594,180.501009 C55.3865743,180.501009 53.7851562,172.455111 53.7851562,167.129915 C53.7851563,163.579785 53.7851563,155.616895 53.7851562,143.241244 C66.8190104,138.535514 73.3359375,141.15791 73.3359375,151.108431 Z" id="Path-24-Copy-7" fill="#FFFFFF"></path>
            <path d="M57.7851563,167.129915 C57.7851562,172.949022 59.5592634,176.501009 62.8808594,176.501009 C67.3139091,176.501009 69.3359375,174.36121 69.3359375,171.129915 L69.3359375,151.108431 C69.3359375,147.62082 68.5020978,146.012118 66.9550127,145.389574 C65.1629109,144.668437 62.0742093,144.848896 57.7851563,146.129054 L57.7851563,167.129915 Z M77.3359375,151.108431 L77.3359375,171.129915 C77.3359375,178.681395 71.8366256,184.501009 62.8808594,184.501009 C57.8363627,184.501009 54.0893197,181.894581 51.9441822,177.599744 C50.4397589,174.587698 49.7851562,170.905599 49.7851563,167.129915 L49.7851562,140.432684 L52.4268185,139.478941 C67.7254448,133.955541 77.3359375,137.82278 77.3359375,151.108431 Z" id="Path-24-Copy-7" fill="#000000" fill-rule="nonzero"></path>
            <path d="M93.3359375,151.108431 C93.3359375,166.034212 93.3359375,164.584994 93.3359375,169.129915 C93.3359375,173.674837 90.3751445,180.501009 82.8808594,180.501009 C75.3865743,180.501009 73.7851562,174.455111 73.7851562,169.129915 C73.7851563,165.579785 73.7851563,156.950228 73.7851562,143.241244 C86.8190104,138.535514 93.3359375,141.15791 93.3359375,151.108431 Z" id="Path-24-Copy-8" fill="#FFFFFF"></path>
            <path d="M77.7851563,169.129915 C77.7851562,174.248519 79.1685847,176.501009 82.8808594,176.501009 C86.8203267,176.501009 89.3359375,173.088839 89.3359375,169.129915 L89.3359375,151.108431 C89.3359375,147.62082 88.5020978,146.012118 86.9550127,145.389574 C85.1629109,144.668437 82.0742093,144.848896 77.7851563,146.129054 L77.7851563,169.129915 Z M97.3359375,151.108431 L97.3359375,169.129915 C97.3359375,177.070993 91.8581837,184.501009 82.8808594,184.501009 C73.7163994,184.501009 69.7851562,178.100181 69.7851563,169.129915 L69.7851562,140.432684 L72.4268185,139.478941 C87.7254448,133.955541 97.3359375,137.82278 97.3359375,151.108431 Z" id="Path-24-Copy-8" fill="#000000" fill-rule="nonzero"></path>
            <path d="M74.3865743,123.037611 C91.8242188,123.037611 108.984375,129 108.984375,143.942415 C108.984375,156.36631 93.6367187,157.799837 84.2109375,151.249056 C77.0424032,146.267029 67.6078318,146.77054 60.2492284,151.249056 C52.890625,155.727572 41,155.809609 41,143.942415 C41,132.075222 56.9489298,123.037611 74.3865743,123.037611 Z" id="Path-23-Copy-4" fill="#F3D59F"></path>
            <path d="M74.3865743,127.037611 C58.343605,127.037611 45,135.136033 45,143.942415 C45,147.587 46.2876904,149.253159 48.7691472,149.82887 C51.4237051,150.444741 55.1721775,149.656425 58.1696555,147.832131 C67.1286375,142.37961 78.217314,142.212427 86.4937195,147.964409 C90.2603382,150.582154 95.3172202,151.666372 99.2809136,150.802902 C102.99816,149.99312 104.984375,147.765187 104.984375,143.942415 C104.984375,133.392641 92.7418095,127.037611 74.3865743,127.037611 Z M74.3865743,119.037611 C96.5806169,119.037611 112.984375,127.552687 112.984375,143.942415 C112.984375,159.38862 94.6581787,163.380885 81.9281555,154.533703 C76.3762757,150.675227 68.6957,150.791026 62.3288013,154.665981 C57.6460783,157.515931 51.8019301,158.744974 46.9611287,157.621884 C40.8100255,156.194797 37,151.264955 37,143.942415 C37,129.65643 54.4964107,119.037611 74.3865743,119.037611 Z" id="Path-23-Copy-4" fill="#000000" fill-rule="nonzero"></path>
            <path d="M72.3661615,110.146061 C77.9467603,109.558267 83.3670814,110.762367 87.0300927,113.477455 C91.4890124,116.782484 92.8621901,121.996718 90.1024964,127.062892 C86.8500851,133.033584 79.855624,136.083361 72.1152214,136.075206 C64.6399709,136.06733 57.9472862,133.223574 56.1868186,127.983977 C52.8138649,117.945212 58.4208387,111.614896 72.3661615,110.146061 Z" id="Path-21-Copy-4" fill="#000000" fill-rule="nonzero"></path>
        </g>
    </g>
</svg>