<?xml version="1.0" encoding="UTF-8"?>
<svg width="530px" height="530px" viewBox="0 0 530 530" version="1.1" xmlns="http://www.w3.org/2000/svg" xmlns:xlink="http://www.w3.org/1999/xlink">
    <!-- Generator: Sketch 53.2 (72643) - https://sketchapp.com -->
    <title>logo-gopherConSg2019-square</title>
    <desc>Created with Sketch.</desc>
    <g id="logo-gopherConSg2019-square" stroke="none" stroke-width="1" fill="none" fill-rule="evenodd">
        <g id="Group" transform="translate(31.124494, 293.000000)">
            <path d="M24.2359446,42.9502363 C25.2098823,42.3468937 26.801872,41.9886644 29.0119615,41.8755377 C31.2220509,41.762411 33.5632123,41.7435568 36.0355157,41.8189746 C38.5078192,41.8943924 40.8115219,42.0263716 42.9466931,42.2149162 C45.0818642,42.4034608 46.5240196,42.4977316 47.2732025,42.4977316 L47.4979562,42.4977316 L47.6103331,42.6108578 C48.0598428,46.6080025 48.3595114,50.8501915 48.509348,55.337552 C48.6591846,59.8249125 48.3595159,64.1048099 47.6103331,68.1773724 C47.2357416,72.0236814 46.0745256,74.9649324 44.1266502,77.0012137 C42.1787747,79.0374949 39.7814255,80.5835372 36.9345307,81.6393867 C35.0615735,82.1673115 33.1137273,82.6386658 31.0909335,83.0534638 C29.0681398,83.4682619 27.0079178,83.7699286 24.9102058,83.9584732 C22.8124938,84.1470178 20.7710011,84.1281636 18.7856665,83.9019101 C16.8003319,83.6756566 14.9086736,83.1854481 13.1106347,82.4312699 C10.1139033,81.1491669 7.82892981,79.4145829 6.2556458,77.227466 C4.68236178,75.0403491 3.4462286,72.3253482 2.54720917,69.0823817 C2.32245431,68.2527857 2.07897353,67.1026811 1.81675953,65.6320335 C1.55454552,64.161386 1.34852333,62.6719063 1.19868675,61.1635498 C0.973931895,58.7501794 0.786638989,56.5630953 0.636802416,54.6022319 C0.486965844,52.6413685 0.355860809,50.6993886 0.24348338,48.7762341 C0.13110595,46.8530796 0.0561887876,44.8168289 0.0187296444,42.6674209 C-0.0187294987,40.5180129 -2.08105102e-07,38.0481162 0.0749180782,35.2576567 C0.149836365,32.8442863 0.262212108,30.3743896 0.412048681,27.8478925 C0.561885254,25.3213954 0.824095323,22.8514987 1.19868675,20.4381283 C1.57327819,17.9493401 2.22880336,15.536006 3.16528194,13.1980534 C4.10176052,10.8601009 5.65629164,8.93697519 7.82892194,7.42861871 C9.32728767,6.1465157 11.0129238,5.20380704 12.885881,4.60046444 C14.7588381,3.99712185 16.7066844,3.54462169 18.7294781,3.24295039 C22.8499838,2.71502562 26.7831349,2.84700484 30.5290492,3.63889199 C34.2749635,4.43077915 37.4964015,5.84484214 40.1934598,7.88112339 C42.8905181,9.91740465 44.9132815,12.6135514 46.2618107,15.9696446 C47.6103398,19.3257378 48.0223842,23.3039683 47.4979562,27.9044556 L47.3855793,28.5832126 C47.2357428,28.8094661 46.8986155,28.9225911 46.3741875,28.9225911 C45.8497595,28.9225911 44.9882122,28.9602995 43.7895196,29.0357173 C42.6657453,29.0357173 41.7105515,29.0545715 40.9239095,29.0922804 C40.1372674,29.1299893 39.3506372,29.1488435 38.5639952,29.1488435 C37.7773532,29.1488435 36.9719937,29.1111351 36.1478926,29.0357173 C35.3237914,28.9602995 34.3498683,28.8471745 33.226094,28.6963388 C33.0013392,27.9421606 32.6829412,27.0183061 32.2708906,25.9247476 C31.8588401,24.8311892 31.3344199,23.8130638 30.6976145,22.870341 C30.0608091,21.9276182 29.3303667,21.0980346 28.5062656,20.3815653 C27.6821644,19.6650959 26.7082413,19.3068666 25.584467,19.3068666 C24.3108562,19.2314488 23.074723,19.1937405 21.8760304,19.1937405 C20.6773378,19.1937405 19.6284975,19.6462406 18.7294781,20.5512545 C18.5796415,20.7020902 18.3736193,21.0980278 18.1114053,21.7390793 C17.8491913,22.3801308 17.6431691,23.0023185 17.4933326,23.6056611 C16.9689046,25.4156889 16.5381309,27.602773 16.2009986,30.166979 C15.8638663,32.731185 15.6203855,35.4650402 15.4705489,38.3686264 C15.3207124,41.2722126 15.2832538,44.2700262 15.3581721,47.362157 C15.4330904,50.4542878 15.5829247,53.3955388 15.8076795,56.1859983 C15.9575161,57.8451904 16.2571848,59.655191 16.7066945,61.6160545 C17.1562042,63.5769179 18.0926687,65.1229601 19.5161162,66.2542275 C20.1903808,66.7067344 21.0519281,67.0461095 22.1007841,67.272363 C23.2245584,67.4231987 24.4045037,67.3854903 25.6406555,67.1592368 C26.8768072,66.9329834 28.0192939,66.6313166 29.0681499,66.2542275 C29.8922511,65.8771384 30.6039641,65.3680757 31.2033104,64.7270242 C31.8026567,64.0859727 32.2521597,63.2375349 32.5518328,62.1816853 C32.6267511,61.880014 32.7203976,61.3709514 32.832775,60.654482 C32.9451524,59.9380127 33.0200696,59.2026999 33.0575287,58.4485217 C33.0949879,57.6943435 33.0949879,57.0155932 33.0575287,56.4122506 C33.0200696,55.808908 32.8889645,55.4695329 32.6642097,55.3941151 C32.2147,55.3186973 31.5966334,55.2998431 30.8099914,55.337552 C30.0233494,55.3752609 29.1992606,55.4129693 28.3377003,55.4506782 C27.47614,55.4883871 26.6895098,55.4883871 25.9777861,55.4506782 C25.2660623,55.4129693 24.7229129,55.3186984 24.3483215,55.1678627 C24.1984849,53.9611776 24.1048385,52.9053439 24.0673793,52.00033 C24.0299202,51.0953161 24.0299202,50.2091699 24.0673793,49.341865 C24.1048385,48.47456 24.1235677,47.5884138 24.1235677,46.6833999 C24.1235677,45.7783861 24.0486506,44.6471357 23.898814,43.2896148 L23.898814,43.1764887 C23.898814,43.1010708 23.9362726,43.0633625 24.0111909,43.0633625 L24.2359446,42.9502363 Z M58.5926179,30.7326099 C59.1170459,29.6013425 59.9598639,28.6209255 61.1210974,27.7913294 C62.2823308,26.9617334 63.6308397,26.264129 65.1666646,25.6984953 C66.7024895,25.1328616 68.3506671,24.736924 70.1112468,24.5106705 C71.8718265,24.284417 73.6511091,24.171292 75.449148,24.171292 C76.9475137,24.3221276 78.3896691,24.3409818 79.7756574,24.2278551 C81.1616457,24.1147283 82.6412597,24.1335825 84.2145437,24.2844181 C86.6119288,24.4352538 88.8969023,24.9066081 91.0695326,25.6984953 C93.2421629,26.4903824 95.115092,27.640487 96.688376,29.1488435 C97.737232,29.8276039 98.5613208,30.921146 99.1606671,32.4295024 C99.7600134,33.9378589 100.209516,35.691297 100.509189,37.6898694 C100.808863,39.6884417 100.996156,41.8755258 101.071074,44.2511873 C101.145992,46.6268487 101.220909,49.0590371 101.295828,51.5478253 C101.220909,53.7349422 101.127263,56.2236931 101.014885,59.0141526 C100.902508,61.804612 100.715215,64.4819046 100.453001,67.0461107 C100.190787,69.6103167 99.8536598,71.9105258 99.4416092,73.9468071 C99.0295587,75.9830883 98.4489507,77.3782972 97.6997678,78.1324754 C96.4261569,79.9425032 94.7592501,81.224587 92.6989972,81.9787652 C90.6387443,82.7329434 88.4099587,83.2042978 86.0125736,83.3928423 C83.6151884,83.5813869 81.142922,83.5813869 78.5957003,83.3928423 C76.0484786,83.2042978 73.7260465,83.1100269 71.6283345,83.1100269 C67.8075019,82.4312665 64.5860639,80.7720992 61.9639239,78.1324754 C59.9411302,76.3224476 58.5551627,74.0599468 57.8059798,71.3449052 C57.0567969,68.6298635 56.607294,65.7828833 56.4574574,62.8038793 C56.3076208,59.8248752 56.2888915,56.8270617 56.4012689,53.8103487 C56.5136464,50.7936357 56.4574585,48.0409264 56.2327036,45.5521382 C56.2327036,44.1946174 56.2701622,42.8559711 56.3450805,41.5361592 C56.4199988,40.2163473 56.5698331,38.8399926 56.794588,37.4070539 C56.8695063,36.5774579 57.1317163,35.4650617 57.5812261,34.0698319 C58.0307358,32.6746022 58.367863,31.5622059 58.5926179,30.7326099 Z M72.6397263,44.081498 C72.1902166,44.3831693 71.8530894,45.1373362 71.6283345,46.3440214 C71.3286614,48.7573918 71.178827,51.1518718 71.178827,53.5275333 C71.178827,55.9031947 71.1039099,58.4107998 70.9540733,61.0504236 C70.879155,62.7850336 71.328658,64.1236799 72.3025957,65.0664027 C73.2765334,66.0091255 74.4564787,66.6501674 75.842467,66.9895476 C77.2284553,67.3289278 78.6706107,67.4043445 80.1689764,67.2157999 C81.6673422,67.0272554 82.9034754,66.6690261 83.8774131,66.1411013 C85.1510239,65.5377587 86.0125713,64.2933833 86.462081,62.4079377 C86.7617542,59.9945673 87.005235,57.5623789 87.1925307,55.1112997 C87.3798264,52.6602204 87.2487214,50.3411571 86.7992116,48.1540402 C86.4246202,45.5144163 85.3383213,43.5912906 83.5402825,42.3846055 C81.7422436,41.1779203 79.382353,40.9139618 76.4605398,41.5927223 C74.8872558,42.0452292 73.613664,42.8748128 72.6397263,44.081498 Z M125.201452,104.038368 L125.201452,105.282756 C125.201452,105.358174 124.695761,105.452445 123.684364,105.565572 C122.672968,105.678699 121.436834,105.754115 119.975928,105.791824 C118.515021,105.829533 116.96049,105.829533 115.312288,105.791824 C113.664085,105.754115 112.240659,105.622136 111.041967,105.395883 L111.041967,97.9295553 C111.041967,91.6698759 110.96705,85.4102903 110.817213,79.1506109 C110.667376,72.8909315 110.536271,66.7256169 110.423894,60.654482 C110.311517,54.5833472 110.236599,48.6254284 110.19914,42.7805471 C110.161681,36.9356657 110.217869,31.2982679 110.367706,25.8681845 C112.690172,25.8681845 115.237356,25.811622 118.009333,25.6984953 C120.781309,25.5853685 123.291034,25.6796394 125.538583,25.9813107 C125.613501,26.1321464 125.65096,26.3961048 125.65096,26.7731939 C125.65096,27.5273721 125.669689,28.1307057 125.707148,28.5832126 C125.744607,29.0357196 125.763336,29.6767615 125.763336,30.5063575 C125.913173,30.8834467 126.081737,31.1662593 126.269032,31.3548038 C126.456328,31.5433484 126.66235,31.4113692 126.887105,30.9588622 C128.010879,28.6963275 129.509223,27.2445562 131.38218,26.6035046 C133.255137,25.9624531 135.240442,25.7927656 137.338154,26.0944369 C141.608496,26.3961082 144.979768,27.5085044 147.452072,29.4316589 C149.924375,31.3548134 151.778575,33.805856 153.014727,36.78486 C154.250879,39.7638641 155.056238,43.1010527 155.43083,46.7965261 C155.805421,50.4919995 156.067631,54.2251258 156.217468,57.996017 C156.217468,60.6356409 156.048904,63.1998084 155.711772,65.6885966 C155.374639,68.1773848 154.850219,70.4587398 154.138496,72.5327299 C153.426772,74.6067201 152.490307,76.3790124 151.329074,77.84966 C150.16784,79.3203075 148.763144,80.3572871 147.114941,80.9606297 C145.092148,81.7148079 142.863362,82.1861622 140.428518,82.3747068 C137.993673,82.5632514 135.689971,82.5632514 133.51734,82.3747068 C131.34471,82.1861622 129.50924,81.8279329 128.010874,81.3000082 C126.512508,80.7720834 125.688419,80.1687499 125.538583,79.4899894 C125.613501,83.0346272 125.65096,85.9004615 125.65096,88.0875784 L125.65096,93.3479454 C125.65096,94.6677573 125.63223,95.6858826 125.594771,96.402352 C125.557312,97.1188213 125.519853,97.7975715 125.482394,98.438623 C125.444935,99.0796745 125.407477,99.7961331 125.370017,100.58802 C125.332558,101.379907 125.27637,102.530012 125.201452,104.038368 Z M142.619867,61.3898021 C142.994458,60.3339526 143.21921,59.2404105 143.294128,58.1091432 C143.369046,56.9778758 143.406505,55.8843338 143.406505,54.8284842 C143.406505,52.9430386 143.181753,51.1141838 142.732243,49.341865 C142.282734,47.5695461 141.608479,45.9857955 140.70946,44.5905658 C139.81044,43.195336 138.724142,42.0829398 137.450531,41.2533438 C136.17692,40.4237477 134.753494,40.0089559 133.18021,40.0089559 C131.232334,40.0089559 129.733991,40.4237477 128.685135,41.2533438 C127.636279,42.0829398 126.83092,43.2141902 126.269032,44.6471289 C125.707145,46.0800675 125.370018,47.8146515 125.257641,49.8509327 C125.145263,51.887214 125.089075,54.0742981 125.089075,56.4122506 C125.089075,59.3535458 125.145263,61.6726091 125.257641,63.3695101 C125.370018,65.0664112 125.650957,66.3673491 126.100467,67.272363 C126.549977,68.1773769 127.242961,68.7618563 128.179439,69.0258187 C129.115918,69.289781 130.37078,69.4217603 131.944064,69.4217603 C135.015714,69.4217603 137.469251,68.74301 139.304749,67.3854892 C141.140247,66.0279683 142.245275,64.029426 142.619867,61.3898021 Z M179.898338,31.8638716 C180.27293,31.6376181 180.741162,31.3736597 181.303049,31.0719884 C181.864936,30.7703171 182.333169,30.4686503 182.70776,30.166979 C184.281044,29.0357117 186.041597,28.1307113 187.989473,27.4519509 C189.937348,26.7731905 191.941382,26.396107 194.001635,26.3206892 C196.061888,26.2452714 198.065922,26.4715215 200.013798,26.9994462 C201.961673,27.527371 203.722226,28.4700797 205.29551,29.8276005 C206.044693,30.5063609 206.625301,31.9204239 207.037352,34.0698319 C207.449403,36.2192399 207.711613,38.8022616 207.82399,41.8189746 C207.936367,44.8356876 207.973826,48.1351679 207.936367,51.7175145 C207.898908,55.2998612 207.84272,58.9198625 207.767802,62.5776269 C207.692883,66.2353914 207.617966,69.7611218 207.543048,73.1549239 C207.46813,76.548726 207.505588,79.5276854 207.655425,82.0918914 C205.033285,82.4689805 202.692123,82.6386681 200.63187,82.6009591 C198.571618,82.5632502 196.230456,82.5443961 193.608316,82.5443961 C193.45848,80.8097861 193.383563,78.8489521 193.383563,76.6618352 C193.383563,74.4747183 193.402292,72.2122175 193.439751,69.8742649 C193.47721,67.5363124 193.47721,65.1983949 193.439751,62.8604424 C193.402292,60.5224898 193.308645,58.3354057 193.158809,56.2991245 C193.08389,55.3941106 193.008973,54.3948394 192.934055,53.3012809 C192.859137,52.2077225 192.728032,51.1330346 192.540736,50.0771851 C192.35344,49.0213355 192.09123,48.0786269 191.754098,47.2490308 C191.416966,46.4194347 190.948733,45.7783928 190.349387,45.3258859 C190.274469,45.2504681 190.199552,45.2127597 190.124633,45.2127597 C190.049715,45.2127597 189.974798,45.1750514 189.89988,45.0996336 C189.300533,44.7979623 188.420257,44.552858 187.259023,44.3643134 C186.09779,44.1757689 184.955303,44.2511856 183.831529,44.5905658 C182.707754,44.929946 181.696373,45.6086962 180.797353,46.6268369 C179.898334,47.6449775 179.373914,49.1721655 179.224077,51.2084468 C179.074241,53.8480706 179.036782,56.4310924 179.1117,58.9575895 C179.186619,61.4840866 179.280265,64.0105458 179.392642,66.5370429 C179.50502,69.06354 179.561208,71.5711451 179.561208,74.0599333 C179.561208,76.5487215 179.411373,79.0374723 179.1117,81.5262605 L179.1117,81.9787652 C177.838089,82.3558543 176.733061,82.5821044 175.796583,82.6575222 C174.860104,82.7329401 173.90491,82.7517942 172.930973,82.7140853 C171.957035,82.6763764 170.870736,82.6198139 169.672043,82.5443961 C168.473351,82.4689782 166.975008,82.5066866 165.176969,82.6575222 C165.176969,79.5653914 165.158239,75.8511193 165.12078,71.5145944 C165.083321,67.1780695 165.045863,62.5210887 165.008403,57.5435123 C164.970944,52.5659359 164.952215,47.4187466 164.952215,42.10179 L164.952215,26.5469416 C164.952215,21.4939473 164.970944,16.7238415 165.008403,12.236481 C165.045863,7.74912042 165.10205,3.84630656 165.176969,0.527922298 C166.075988,0.603340122 166.82516,0.659902641 167.424506,0.697611554 C168.023852,0.735320466 168.585731,0.754174639 169.110159,0.754174639 C169.634587,0.754174639 170.196466,0.735320466 170.795812,0.697611554 C171.395158,0.659902641 172.14433,0.603340122 173.043349,0.527922298 C173.343023,0.527922298 173.867443,0.471359778 174.616626,0.358233041 C175.365808,0.245106305 176.11498,0.150835439 176.864163,0.0754176147 C177.613346,-2.09492272e-07 178.2876,-0.0188543827 178.886947,0.0188545294 C179.486293,0.0565634415 179.785962,0.188542654 179.785962,0.414796127 C179.86088,0.791885248 179.898338,1.79115643 179.898338,3.41263965 L179.898338,31.8638716 Z M231.561049,53.9234749 L231.561049,55.9597459 C231.635968,58.2222807 231.729614,60.0699896 231.841991,61.5029283 C231.954369,62.935867 232.422601,64.3310758 233.246702,65.6885966 C234.145722,67.4232066 235.419313,68.7052904 237.067516,69.5348864 C238.715718,70.3644825 240.326437,70.6284409 241.899721,70.3267696 C243.473005,70.0250983 244.802785,69.1012438 245.8891,67.5551784 C246.975415,66.009113 247.443647,63.6900497 247.293811,60.5979189 C248.042994,60.6733368 249.054375,60.6921909 250.327986,60.654482 C251.601597,60.6167731 252.931377,60.5602106 254.317365,60.4847928 C255.703353,60.4093749 257.033133,60.3905208 258.306744,60.4282297 C259.580355,60.4659386 260.629195,60.5979178 261.453296,60.8241713 C261.303459,62.7850347 261.153625,64.7081604 261.003789,66.593606 C260.853952,68.4790516 260.666659,70.2324897 260.441904,71.8539729 C260.217149,73.4754561 259.93621,74.870665 259.599078,76.0396412 C259.261945,77.2086175 258.831172,78.019347 258.306744,78.4718539 C257.033133,80.2818817 255.384955,81.5639655 253.362162,82.3181437 C251.339368,83.072322 249.129312,83.5248221 246.731926,83.6756578 C244.334541,83.8264934 241.881004,83.8264934 239.371242,83.6756578 C236.861479,83.5248221 234.557776,83.4494054 232.460064,83.4494054 C230.362352,83.1477341 228.414506,82.4689839 226.616467,81.4131343 C224.593673,79.9801957 222.908037,78.1136325 221.559508,75.8133889 C220.210979,73.5131453 219.12468,70.986686 218.300579,68.2339355 C217.476478,65.4811849 216.914599,62.558788 216.614926,59.4666572 C216.315253,56.3745264 216.240336,53.282442 216.390172,50.1903112 C216.614927,47.3998517 216.858408,44.703705 217.120622,42.10179 C217.382836,39.4998751 217.963444,36.9545617 218.862463,34.4657735 C219.836401,32.2786566 221.334744,30.4120935 223.357538,28.8660281 C225.380332,27.3199627 227.665305,26.1510039 230.212527,25.3591168 C232.759749,24.5672296 235.456766,24.1335836 238.303661,24.0581658 C241.150556,23.982748 243.922491,24.2844148 246.61955,24.9631752 C250.065791,25.5665178 252.837726,26.7731849 254.935438,28.5832126 C257.03315,30.3932404 258.625139,32.5803245 259.711455,35.1445305 C260.79777,37.7087366 261.453295,40.5368625 261.67805,43.6289933 C261.902805,46.7211241 261.902805,49.8509169 261.67805,53.0184655 C261.153622,53.1693012 260.160969,53.3201345 258.700063,53.4709702 C257.239156,53.6218058 255.516061,53.7726392 253.530727,53.9234749 C251.545392,54.0743105 249.428982,54.1874356 247.181434,54.2628534 C244.933885,54.3382712 242.780017,54.3759796 240.719764,54.3759796 C238.659511,54.3759796 236.805311,54.3382712 235.157109,54.2628534 C233.508907,54.1874356 232.310232,54.0743105 231.561049,53.9234749 Z M245.15865,36.3889184 C244.559304,36.0118293 243.959967,35.7290167 243.36062,35.5404721 C242.761274,35.3519276 242.049561,35.2576567 241.22546,35.2576567 C239.427421,35.2576567 237.966536,35.4461984 236.842762,35.8232876 C235.718988,36.2003767 234.819982,36.7282935 234.145717,37.4070539 C233.471453,38.0858144 232.965762,38.8776896 232.62863,39.7827035 C232.291497,40.6877174 232.048016,41.6304261 231.89818,42.6108578 C231.748343,43.4404539 231.692155,44.0249332 231.729615,44.3643134 C231.767074,44.7036937 232.12293,44.9299437 232.797195,45.0430705 C233.471459,45.1561972 234.539029,45.1939056 235.999936,45.1561966 C237.460842,45.1184877 239.614711,45.0996336 242.461605,45.0996336 C244.409481,45.0996336 245.870366,45.1373419 246.844303,45.2127597 C247.818241,45.2881775 248.511225,45.3070317 248.923275,45.2693228 C249.335326,45.2316139 249.541348,45.1184889 249.541348,44.9299443 L249.541348,43.7421195 C249.541348,42.233763 249.148033,40.8008459 248.361391,39.443325 C247.574749,38.0858042 246.507179,37.0676788 245.15865,36.3889184 Z M285.920805,29.7144743 C286.220478,29.5636387 286.913462,29.2619719 287.999777,28.809465 C289.086092,28.356958 290.153662,27.9421662 291.202518,27.5650771 C292.625965,27.1125702 294.236684,26.7543409 296.034723,26.4903785 C297.832762,26.2264161 299.518398,26.0567285 301.091682,25.9813107 C302.664966,25.9058929 303.994746,25.8870387 305.081061,25.9247476 C306.167376,25.9624565 306.710525,26.0190191 306.710525,26.0944369 C306.710525,28.6586429 306.691796,30.9211437 306.654337,32.8820071 C306.616878,34.8428705 306.598149,36.5963087 306.598149,38.1423741 L306.598149,42.3846055 C306.598149,43.6667085 306.635607,44.8733756 306.710525,46.0046429 L305.699134,45.6652644 C305.324542,45.5144288 304.931227,45.3824495 304.519177,45.2693228 C304.107126,45.1561961 303.713811,45.0242169 303.339219,44.8733812 C302.4402,44.6471277 301.522465,44.458586 300.585986,44.3077504 C299.649508,44.1569147 299.143817,44.081498 299.068898,44.081498 C297.046105,43.8552445 295.191905,43.7421195 293.506244,43.7421195 C291.820582,43.7421195 290.359697,44.0060779 289.123546,44.5340027 C287.887394,45.0619275 286.9322,45.8915111 286.257936,47.0227785 C285.583671,48.1540458 285.284002,49.7755047 285.358921,51.8872038 C285.433839,54.5268276 285.508756,57.0155785 285.583674,59.3535311 C285.658593,61.6914836 285.696051,64.0482553 285.696051,66.4239167 C285.696051,68.7995782 285.714781,71.2129124 285.75224,73.6639917 C285.789699,76.1150709 285.808428,78.735801 285.808428,81.5262605 L285.808428,81.9787652 C284.534817,82.3558543 283.373601,82.5821044 282.324745,82.6575222 C281.275889,82.7329401 280.18959,82.7517942 279.065816,82.7140853 C277.942042,82.6763764 276.724638,82.6198139 275.413568,82.5443961 C274.102498,82.4689782 272.547967,82.5066866 270.749928,82.6575222 C270.749928,73.3811298 270.656281,64.1048766 270.468986,54.8284842 C270.28169,45.5520919 270.337878,35.9364635 270.637551,25.9813107 C271.53657,26.0567285 272.285742,26.113291 272.885088,26.151 C273.484435,26.1887089 274.046313,26.207563 274.570741,26.207563 C275.095169,26.207563 275.657048,26.1887089 276.256394,26.151 C276.855741,26.113291 277.604912,26.0567285 278.503932,25.9813107 C278.803605,25.9813107 279.346754,25.9436024 280.133396,25.8681845 C280.920038,25.7927667 281.744127,25.71735 282.605687,25.6419322 C283.467248,25.5665144 284.216419,25.5476602 284.853225,25.5853691 C285.49003,25.623078 285.808428,25.7173489 285.808428,25.8681845 L285.808428,27.9610187 C285.808428,28.1495633 285.827157,28.3569592 285.864617,28.5832126 C285.902076,28.8094661 285.920805,29.1865496 285.920805,29.7144743 Z M332.077049,21.0037592 C331.927213,21.1545948 331.796108,21.3996991 331.68373,21.7390793 C331.571353,22.0784595 331.477706,22.3235638 331.402788,22.4743994 C331.252952,22.7006529 331.121846,24.020445 331.009469,26.4338154 C330.897092,28.8471858 330.803445,31.7130201 330.728527,35.0314044 C330.653609,38.3497886 330.61615,41.8001023 330.61615,45.382449 C330.61615,48.9647956 330.728526,52.0757342 330.953281,54.7153581 C331.178035,56.902475 331.758643,59.0329965 332.695122,61.1069867 C333.631601,63.1809769 335.186132,64.5196232 337.358762,65.1229658 C339.006964,65.2738014 340.561495,65.0286972 342.022402,64.3876457 C343.483309,63.7465942 344.588337,62.6719063 345.33752,61.1635498 C346.161621,59.4289398 346.517477,57.600085 346.4051,55.6769305 C346.292722,53.753776 346.423828,51.8495045 346.798419,49.9640589 C347.847275,50.1148945 349.02722,50.1526029 350.33829,50.0771851 C351.64936,50.0017672 352.97914,49.9640589 354.327669,49.9640589 C355.676198,49.9640589 357.005978,50.0017672 358.317048,50.0771851 C359.628118,50.1526029 360.808063,50.3411446 361.856919,50.6428159 C363.13053,54.5645428 363.467657,58.4673566 362.868311,62.3513746 C362.268965,66.2353925 360.957914,69.7234146 358.935121,72.8155454 C356.912327,75.9076762 354.271497,78.4529896 351.012551,80.4515619 C347.753606,82.4501342 344.063936,83.4871138 339.94343,83.5625316 C337.246372,83.9396207 334.474437,83.9584749 331.627542,83.6190947 C328.780647,83.2797145 326.121088,82.5255475 323.648784,81.3565713 C321.176481,80.187595 319.09753,78.5472819 317.411868,76.4355828 C315.726207,74.3238838 314.733554,71.6842995 314.433881,68.5167509 C314.284045,65.8017092 314.171669,62.9735832 314.09675,60.0322881 C314.021832,57.0909929 313.965644,53.7915126 313.928185,50.1337482 C313.890726,46.4759837 313.890726,42.3280656 313.928185,37.6898694 C313.965644,33.0516732 314.021832,27.6782338 314.09675,21.56939 C313.946914,20.287287 314.003102,18.9863491 314.265316,17.6665372 C314.52753,16.3467252 314.883386,15.121204 315.332896,13.9899366 C316.007161,12.0290732 316.849979,10.2190726 317.861376,8.55988042 C318.872772,6.90068828 320.090176,5.43006277 321.513624,4.14795976 C322.337725,3.54461717 323.236731,3.03555449 324.210669,2.62075646 C325.184606,2.20595842 326.195988,1.84772913 327.244844,1.54605783 C330.691085,0.414790471 334.099816,-0.0377096872 337.471139,0.188543785 C340.842462,0.414797258 344.007712,1.18781836 346.966984,2.50763028 C349.926257,3.82744221 352.604545,5.58088032 355.00193,7.76799722 C357.399315,9.95511412 359.309703,12.4627192 360.733151,15.2908876 C362.156598,18.119056 363.018145,21.1922862 363.317818,24.5106705 C363.617492,27.8290548 363.167989,31.2228059 361.969296,34.6920258 C359.197319,35.2953684 356.481572,35.5027643 353.821973,35.3142198 C351.162374,35.1256752 348.409168,34.7674459 345.562273,34.2395212 C345.337519,32.8065825 345.206414,31.1851236 345.168954,29.3750958 C345.131495,27.565068 344.925473,25.8870466 344.550882,24.3409812 C344.17629,22.7949158 343.483306,21.5316862 342.47191,20.5512545 C341.460513,19.5708228 339.868523,19.1183226 337.695893,19.1937405 C336.721955,19.3445761 335.691844,19.5331178 334.605529,19.7593713 C333.519214,19.9856248 332.676396,20.4004166 332.077049,21.0037592 Z M372.839204,30.7326099 C373.363632,29.6013425 374.20645,28.6209255 375.367684,27.7913294 C376.528917,26.9617334 377.877426,26.264129 379.413251,25.6984953 C380.949076,25.1328616 382.597253,24.736924 384.357833,24.5106705 C386.118413,24.284417 387.897695,24.171292 389.695734,24.171292 C391.1941,24.3221276 392.636255,24.3409818 394.022244,24.2278551 C395.408232,24.1147283 396.887846,24.1335825 398.46113,24.2844181 C400.858515,24.4352538 403.143488,24.9066081 405.316119,25.6984953 C407.488749,26.4903824 409.361678,27.640487 410.934962,29.1488435 C411.983818,29.8276039 412.807907,30.921146 413.407253,32.4295024 C414.006599,33.9378589 414.456102,35.691297 414.755776,37.6898694 C415.055449,39.6884417 415.242742,41.8755258 415.31766,44.2511873 C415.392578,46.6268487 415.467495,49.0590371 415.542414,51.5478253 C415.467495,53.7349422 415.373849,56.2236931 415.261472,59.0141526 C415.149094,61.804612 414.961801,64.4819046 414.699587,67.0461107 C414.437373,69.6103167 414.100246,71.9105258 413.688195,73.9468071 C413.276145,75.9830883 412.695537,77.3782972 411.946354,78.1324754 C410.672743,79.9425032 409.005836,81.224587 406.945583,81.9787652 C404.88533,82.7329434 402.656545,83.2042978 400.25916,83.3928423 C397.861775,83.5813869 395.389508,83.5813869 392.842286,83.3928423 C390.295065,83.2042978 387.972633,83.1100269 385.874921,83.1100269 C382.054088,82.4312665 378.83265,80.7720992 376.21051,78.1324754 C374.187716,76.3224476 372.801749,74.0599468 372.052566,71.3449052 C371.303383,68.6298635 370.85388,65.7828833 370.704044,62.8038793 C370.554207,59.8248752 370.535478,56.8270617 370.647855,53.8103487 C370.760233,50.7936357 370.704045,48.0409264 370.47929,45.5521382 C370.47929,44.1946174 370.516748,42.8559711 370.591667,41.5361592 C370.666585,40.2163473 370.816419,38.8399926 371.041174,37.4070539 C371.116092,36.5774579 371.378302,35.4650617 371.827812,34.0698319 C372.277322,32.6746022 372.614449,31.5622059 372.839204,30.7326099 Z M386.886312,44.081498 C386.436803,44.3831693 386.099676,45.1373362 385.874921,46.3440214 C385.575247,48.7573918 385.425413,51.1518718 385.425413,53.5275333 C385.425413,55.9031947 385.350496,58.4107998 385.200659,61.0504236 C385.125741,62.7850336 385.575244,64.1236799 386.549182,65.0664027 C387.52312,66.0091255 388.703065,66.6501674 390.089053,66.9895476 C391.475041,67.3289278 392.917197,67.4043445 394.415563,67.2157999 C395.913928,67.0272554 397.150061,66.6690261 398.123999,66.1411013 C399.39761,65.5377587 400.259157,64.2933833 400.708667,62.4079377 C401.00834,59.9945673 401.251821,57.5623789 401.439117,55.1112997 C401.626413,52.6602204 401.495307,50.3411571 401.045798,48.1540402 C400.671206,45.5144163 399.584907,43.5912906 397.786869,42.3846055 C395.98883,41.1779203 393.628939,40.9139618 390.707126,41.5927223 C389.133842,42.0452292 387.86025,42.8748128 386.886312,44.081498 Z M439.672792,31.8638716 C440.047383,31.6376181 440.515616,31.3736597 441.077503,31.0719884 C441.63939,30.7703171 442.107622,30.4686503 442.482214,30.166979 C444.055498,29.0357117 445.816051,28.1307113 447.763926,27.4519509 C449.711802,26.7731905 451.715836,26.396107 453.776089,26.3206892 C455.836342,26.2452714 457.840376,26.4715215 459.788251,26.9994462 C461.736127,27.527371 463.49668,28.4700797 465.069964,29.8276005 C465.819147,30.5063609 466.399755,31.9204239 466.811806,34.0698319 C467.223856,36.2192399 467.486066,38.8022616 467.598444,41.8189746 C467.710821,44.8356876 467.74828,48.1351679 467.71082,51.7175145 C467.673361,55.2998612 467.617173,58.9198625 467.542255,62.5776269 C467.467337,66.2353914 467.39242,69.7611218 467.317501,73.1549239 C467.242583,76.548726 467.280042,79.5276854 467.429878,82.0918914 C464.807738,82.4689805 462.466577,82.6386681 460.406324,82.6009591 C458.346071,82.5632502 456.00491,82.5443961 453.38277,82.5443961 C453.232933,80.8097861 453.158016,78.8489521 453.158016,76.6618352 C453.158016,74.4747183 453.176745,72.2122175 453.214205,69.8742649 C453.251664,67.5363124 453.251664,65.1983949 453.214205,62.8604424 C453.176745,60.5224898 453.083099,58.3354057 452.933262,56.2991245 C452.858344,55.3941106 452.783427,54.3948394 452.708509,53.3012809 C452.63359,52.2077225 452.502485,51.1330346 452.31519,50.0771851 C452.127894,49.0213355 451.865684,48.0786269 451.528552,47.2490308 C451.191419,46.4194347 450.723187,45.7783928 450.123841,45.3258859 C450.048922,45.2504681 449.974005,45.2127597 449.899087,45.2127597 C449.824169,45.2127597 449.749251,45.1750514 449.674333,45.0996336 C449.074987,44.7979623 448.19471,44.552858 447.033477,44.3643134 C445.872243,44.1757689 444.729757,44.2511856 443.605982,44.5905658 C442.482208,44.929946 441.470826,45.6086962 440.571807,46.6268369 C439.672787,47.6449775 439.148367,49.1721655 438.998531,51.2084468 C438.848694,53.8480706 438.811236,56.4310924 438.886154,58.9575895 C438.961072,61.4840866 439.054719,64.0105458 439.167096,66.5370429 C439.279474,69.06354 439.335661,71.5711451 439.335661,74.0599333 C439.335661,76.5487215 439.185827,79.0374723 438.886154,81.5262605 L438.886154,81.9787652 C437.612543,82.3558543 436.507515,82.5821044 435.571036,82.6575222 C434.634558,82.7329401 433.679364,82.7517942 432.705426,82.7140853 C431.731488,82.6763764 430.64519,82.6198139 429.446497,82.5443961 C428.247804,82.4689782 426.749461,82.5066866 424.951422,82.6575222 C424.951422,73.3811298 424.857776,64.1048766 424.67048,54.8284842 C424.483184,45.5520919 424.539372,35.9364635 424.839045,25.9813107 C425.738065,26.0567285 426.487237,26.113291 427.086583,26.151 C427.685929,26.1887089 428.247808,26.207563 428.772236,26.207563 C429.296664,26.207563 429.858543,26.1887089 430.457889,26.151 C431.057235,26.113291 431.806407,26.0567285 432.705426,25.9813107 C433.005099,25.9813107 433.529519,25.9247482 434.278702,25.8116214 C435.027885,25.6984947 435.777057,25.6042238 436.52624,25.528806 C437.275423,25.4533882 437.949677,25.434534 438.549023,25.4722429 C439.14837,25.5099518 439.448038,25.6419311 439.448038,25.8681845 C439.597875,27.1502875 439.654063,28.2061212 439.616604,29.0357173 C439.579144,29.8653134 439.597874,30.808022 439.672792,31.8638716 Z" id="GopherCon-Copy" fill="#E74861"></path>
            <g id="Group-2-Copy" transform="translate(52.910053, 98.412698)" fill="#15C8DF">
                <path d="M50.8085943,25.5465147 L50.696571,25.5465147 C48.0826806,25.9947745 45.2821257,26.2749327 42.2948223,26.3869977 C39.3075189,26.4990627 36.506964,26.18155 33.8930736,25.4344503 C34.3411691,23.4172811 33.9304211,21.736332 32.6608171,20.3915525 C31.3912132,19.046773 29.8602432,18.1876212 28.0678612,17.8140714 C26.2754791,17.4405215 24.5391351,17.6272936 22.858777,18.3743933 C21.1784188,19.1214931 20.1888894,20.5409612 19.8901591,22.6328404 C19.7407939,23.1558102 19.6847828,23.660095 19.7221241,24.1457098 C19.7594654,24.6313246 19.8154765,25.1356093 19.8901591,25.6585791 C20.4876197,27.4516184 21.4584788,28.64696 22.8027653,29.2446398 C24.1470518,29.8423196 25.6033404,30.2532183 27.1716746,30.4773482 C31.1298516,30.925608 34.8079137,32.1956585 38.2059713,34.2875376 C41.6040289,36.3794168 44.3859134,39.031581 46.5517083,42.2441098 C47.8959948,43.9624391 48.9041946,45.8114832 49.5763379,47.7912974 C50.2484811,49.7711117 50.6405588,51.8069278 50.7525827,53.898807 C50.8646066,55.9906862 50.7152436,58.1012113 50.3044894,60.2304454 C49.8937352,62.3596796 49.2402724,64.3954958 48.3440814,66.337955 C47.4478904,68.6539642 46.252987,70.6337487 44.7593353,72.2773681 C43.2656836,73.9209874 41.5666803,75.2657467 39.6622744,76.3116863 C37.7578685,77.3576259 35.7041282,78.1233917 33.500992,78.6090065 C31.2978558,79.0946213 29.0387415,79.3000706 26.7235814,79.2253606 C23.4375477,79.1506507 20.1702336,78.5716571 16.9215412,77.4883625 C13.6728488,76.4050679 10.7789421,74.8922137 8.23973419,72.9497544 C5.70052632,71.0072952 3.6841268,68.6352892 2.19047511,65.8336653 C0.696823427,63.0320413 0.0620309836,59.838238 0.286078736,56.2521594 L0.286078736,55.579773 C2.89996918,55.2062231 5.77520555,55.1128371 8.91187408,55.299612 C12.0485426,55.4863869 14.8864383,55.5424186 17.4256461,55.4677086 C17.5750113,57.8584277 18.5272,59.6514401 20.2822407,60.8467996 C22.0372814,62.0421592 23.904318,62.6211528 25.8834065,62.5837978 C27.862495,62.5464428 29.5801686,61.8927403 31.036479,60.6226708 C32.4927894,59.3526013 32.9968893,57.4101712 32.5487938,54.7953222 C32.3247461,53.0022829 31.6526129,51.5641375 30.5323741,50.4808429 C29.4121353,49.3975484 28.0865394,48.5197194 26.5555464,47.8473296 C25.0245534,47.1749399 23.3628908,46.6706551 21.5705088,46.3344603 C19.7781268,45.9982654 18.0977939,45.6807528 16.5294596,45.3819129 C15.0358079,45.083073 13.6542008,44.5974655 12.3845969,43.9250757 C11.114993,43.252686 9.95743026,42.4682431 8.91187408,41.5717234 C5.47647521,38.2844847 3.25470166,34.6611054 2.24648677,30.701477 C1.23827188,26.7418485 1.18226079,22.8943427 2.0784518,19.1588441 C2.97464281,15.4233456 4.67364611,12.0240929 7.17551268,8.96098404 C9.67737925,5.89787522 12.7206489,3.61925527 16.305413,2.12505585 C18.097795,1.37795614 20.0768538,0.873671396 22.2426487,0.612186497 C24.4084437,0.350701597 26.5928765,0.275992747 28.7960127,0.388057704 C30.9991489,0.50012266 33.1649114,0.817635275 35.2933651,1.34060507 C37.4218187,1.86357487 39.3822071,2.53595453 41.1745892,3.35776421 C44.7593532,5.22551349 47.5225674,7.98974096 49.4643146,11.6505296 C51.4060617,15.3113181 51.8541505,19.9432669 50.8085943,25.5465147 Z M70.9422394,53.1143563 C70.9422394,56.9245648 72.0624614,60.1743998 74.3029389,62.8639588 C75.6472255,64.5075781 77.4395806,65.4974704 79.6800581,65.8336653 C81.9205356,66.1698601 84.0116166,66.0391196 85.9533638,65.4414399 C86.6255071,65.21731 87.1482773,64.8624429 87.5216902,64.3768281 C87.8951032,63.8912133 88.193829,63.3308969 88.4178768,62.6958622 C88.6419245,62.0608274 88.8099578,61.3884478 88.9219817,60.678703 C89.0340056,59.9689583 89.1273574,59.2779014 89.20204,58.6055117 C89.20204,55.6171128 89.1460289,52.5727272 89.034005,49.4722634 C88.9219811,46.3717996 88.4925627,43.4021228 87.7457369,40.5631439 C87.2976414,39.4424943 86.5694971,38.5646653 85.5612822,37.9296305 C84.5530673,37.2945958 83.4515157,36.9023743 82.2565944,36.7529544 C81.061673,36.6035344 79.88544,36.6969205 78.7278599,37.0331154 C77.5702799,37.3693102 76.5434097,37.9109494 75.6472187,38.6580491 C74.52698,39.9281186 73.5747913,41.3289096 72.7906242,42.860464 C72.006457,44.3920184 71.4650164,46.0169359 71.1662861,47.7352652 C71.0169209,48.4823649 70.9422394,49.2107762 70.9422394,49.920521 L70.9422394,53.1143563 Z M90.3222732,101.077918 C89.5754473,101.227338 88.231181,101.264692 86.2894338,101.189982 C84.3476866,101.115272 81.8458575,101.077918 78.7838716,101.077918 C75.2737901,101.077918 72.1371686,100.330829 69.373913,98.83663 C66.6106574,97.3424306 64.3702135,95.3252916 62.6525141,92.7851526 C62.3537837,92.2621828 62.0737282,91.571126 61.8123392,90.7119613 C61.5509501,89.8527966 61.3269057,88.9749676 61.1401993,88.078448 C60.9534928,87.1819283 60.8414706,86.3227765 60.8041293,85.5009669 C60.766788,84.6791572 60.7854584,83.9694231 60.860141,83.3717433 C61.6069668,83.0729034 62.6151666,82.8674541 63.8847705,82.7553891 C65.1543745,82.6433242 66.4799704,82.6059698 67.8615983,82.6433247 C69.2432261,82.6806797 70.5874924,82.7553886 71.8944376,82.8674535 C73.2013829,82.9795185 74.3029345,83.110259 75.1991255,83.2596789 C75.1991255,85.2021382 75.8152475,86.7523468 77.0475102,87.9103514 C78.2797728,89.0683559 79.6613799,89.7220584 81.1923729,89.8714783 C82.7233659,90.0208983 84.2169951,89.647354 85.6733055,88.7508344 C87.1296159,87.8543147 88.0818046,86.3601377 88.5299001,84.2682585 C88.6045827,83.5211588 88.6792641,82.7553931 88.7539467,81.9709384 C88.8286293,81.1864837 88.8286293,80.4954268 88.7539467,79.897747 C88.6045816,78.6276775 88.6045816,77.3202726 88.7539467,75.9754931 C88.0071209,76.7973028 87.1296137,77.3949736 86.1213988,77.7685235 C85.1131839,78.1420733 84.0303027,78.4035543 82.8727226,78.5529743 C81.7151426,78.7023942 80.5389095,78.7771031 79.3439882,78.7771031 C78.1490668,78.7771031 77.0288449,78.8144575 75.9832887,78.8891675 C74.5643196,78.8891675 73.1267014,78.7771042 71.670391,78.5529743 C70.2140806,78.3288444 68.8324735,77.9553001 67.5255283,77.4323303 C66.2185831,76.9093605 65.04235,76.1996264 63.9967938,75.3031068 C62.9512377,74.4065871 62.0924008,73.2485999 61.4202576,71.8291105 C60.3747014,69.8119413 59.6278868,67.7014162 59.1797912,65.4974721 C58.7316957,63.2935279 58.4329699,61.0335852 58.2836047,58.7175761 C58.2836047,55.2062074 58.3582862,51.4334105 58.5076514,47.399072 C58.6570165,43.3647336 59.3104793,39.5732594 60.4680594,36.0245358 C61.6256394,32.4758122 63.4740057,29.4874581 66.0132135,27.0593841 C68.5524214,24.63131 72.2118131,23.2678735 76.9914985,22.9690336 C79.3813412,22.8196137 81.6031148,23.1371263 83.6568858,23.921581 C85.7106569,24.7060357 87.1856158,26.144181 88.0818068,28.2360602 C88.3805372,28.3854802 88.5485705,28.2547397 88.5859118,27.8438348 C88.623253,27.43293 88.623253,26.9099681 88.5859118,26.2749333 L88.4738884,24.3698386 C88.4365471,23.7348038 88.529899,23.2305191 88.7539467,22.8569692 C91.218472,22.5581293 93.720301,22.4647433 96.2595089,22.5768082 C98.7987168,22.6888732 101.337887,22.7449048 103.877094,22.7449048 C104.175825,32.0836512 104.343858,41.8518334 104.381199,52.0497445 C104.418541,62.2476556 104.213167,72.7255719 103.765071,83.4838077 C103.690389,85.276847 103.690389,87.0511822 103.765071,88.8068665 C103.839754,90.5625509 103.503687,92.0380507 102.756861,93.2334102 C101.711305,94.8770296 100.647094,96.1844345 99.5641967,97.1556641 C98.4812993,98.1268937 97.4170884,98.8926594 96.3715322,99.4529842 C95.325976,100.013309 94.2804356,100.40553 93.2348794,100.62966 C92.1893232,100.85379 91.2184642,101.003208 90.3222732,101.077918 Z" id="Sg"></path>
            </g>
            <g id="Group-2" transform="translate(172.486772, 95.238095)">
                <path d="M44.2185556,0.304104442 C12.985145,-2.19026207 0.0245431654,10.8737731 0.0245431654,31.6368487 C0.0245431654,52.3999244 -0.773900881,85.8881049 6.73738756,95.0754451 C14.248676,104.262785 28.5580756,105.057773 51.5147749,104.6931 C74.4714741,104.328427 180.574531,100.873753 200.966295,100.873753 C221.358059,100.873753 226.339072,89.2260827 226.812224,75.120513 C227.285376,61.0149433 229.62963,49.7392397 229.62963,27.9439221 C229.62963,13.4137104 218.380619,5.26690514 195.882599,3.50350633 C115.59551,3.03348275 65.0408293,1.96701545 44.2185556,0.304104442 Z" id="Path-2-Copy" fill="#15C8DF"></path>
                <path d="M50.7858942,58.2378336 C48.3247813,59.5041926 46.5648258,60.4971183 45.5059749,61.2166405 C44.4471241,61.9361627 43.5170663,62.8283568 42.7157737,63.8932496 C41.9144812,64.9581424 40.9414977,66.6417991 39.796794,68.94427 C41.1132032,69.0018318 43.0019359,69.0306122 45.4630488,69.0306122 C48.7254542,69.0306122 51.157913,69.0018318 52.7604981,68.94427 C56.3090794,68.8291465 59.4283501,68.7715856 62.1184037,68.7715856 C62.6907555,70.1530681 62.9769271,71.7935541 62.9769271,73.6930926 L62.8910748,75.0745683 L62.8910748,79.0463108 C62.8910748,79.9672992 62.9483091,80.6868106 63.0627795,81.2048666 C63.0627795,81.4926754 62.9626194,81.6653582 62.7622963,81.7229199 C62.5619731,81.7804817 62.1184071,81.8092622 61.4315849,81.8092622 L28.8076939,82.2409733 L25.9745665,82.4136578 C25.2877443,82.4136578 24.7583268,82.3704871 24.3862981,82.2841444 C24.0142694,82.1978018 23.7137892,82.1546311 23.4848485,82.1546311 C23.7137892,79.1614188 23.8282579,76.7438606 23.8282579,74.9018838 C23.885493,71.3906156 24.0715046,68.570131 24.3862981,66.4403454 C24.7010916,64.3105597 25.4594464,62.238367 26.6613852,60.2237049 C28.9507926,57.6909868 32.7568751,54.7841608 38.0797471,51.5031397 C41.170447,49.6036012 43.6029058,47.9631152 45.3771964,46.5816327 C46.178489,46.0635767 46.8080666,45.2721142 47.265948,44.2072214 C47.7238295,43.1423285 47.9527668,42.0055005 47.9527668,40.7967033 C47.9527668,39.3000972 47.637978,37.9905865 47.008391,36.8681319 C46.378804,35.7456773 45.5489063,35.1268975 44.518673,35.0117739 C42.6871471,35.0693357 41.4566092,36.0622614 40.8270222,37.9905808 C40.1974351,39.9189003 39.7681777,42.4371901 39.539237,45.5455259 C36.1623612,46.0060201 32.8141532,46.2362637 29.4945126,46.2362637 C27.6057516,46.2362637 25.8601047,46.0348005 24.2575196,45.6318681 C23.8568733,43.617206 23.6565532,41.6889155 23.6565532,39.8469388 C23.6565532,37.0264119 24.0858106,34.3642197 24.9443383,31.8602826 C25.8028661,29.3563454 27.0620212,27.1546406 28.7218415,25.255102 C30.1527211,23.5282488 32.3562426,22.2043479 35.3324721,21.2833595 C38.3087016,20.3623711 41.4565894,19.9018838 44.77623,19.9018838 C48.7254576,19.9018838 51.9591969,20.3911516 54.477545,21.3697017 C57.3393041,22.8663078 59.5571342,24.9241104 61.1311017,27.5431711 C62.7050692,30.1622318 63.6637442,33.083448 64.0071553,36.3069074 L64.0071553,37.0839874 L64.0930076,37.8610675 C64.207478,40.6815944 64.2360951,42.7537872 64.17886,44.077708 C63.892684,47.4738527 62.5906032,50.1936057 60.2725783,52.2370487 C57.9545534,54.2804916 54.792357,56.2807333 50.7858942,58.2378336 Z M116.119529,39.0698587 C116.69188,42.2357563 116.920818,45.7181914 116.806347,49.5172684 C116.749112,54.2948957 115.919214,59.2019633 114.316629,64.2386185 C112.714044,69.2752737 110.295894,73.4916104 107.062106,76.8877551 C103.828318,80.2838998 99.8648415,81.9819466 95.1715565,81.9819466 C92.4242677,81.9819466 90.0776604,81.6078007 88.1316642,80.8594976 C84.2969069,79.4204533 81.4351907,77.3482605 79.5464297,74.6428571 C77.6576687,71.9374538 76.4700564,69.0737985 75.9835574,66.0518053 C75.4970583,63.0298122 75.1965781,59.1876214 75.0821078,54.5251177 L74.9962554,52.2802198 C74.8817851,50.3231195 74.8245507,48.6826335 74.8245507,47.3587127 C74.8245507,43.732321 75.1822653,40.321837 75.897705,37.1271586 C76.6131448,33.9324801 77.8579914,30.9249225 79.632282,28.1043956 L79.5464297,28.0180534 L80.5766578,26.9819466 C82.5798892,24.7945992 84.7977193,23.0821621 87.2302146,21.844584 C89.6627098,20.6070058 92.4528831,19.9882261 95.6008182,19.9882261 C101.267101,19.9882261 105.845847,21.8301752 109.337193,25.5141287 C112.82854,29.1980823 115.089295,33.7166137 116.119529,39.0698587 Z M99.8934354,54.7841444 C99.9506706,53.863156 99.9792878,52.1651092 99.9792878,49.6899529 C99.9792878,46.9845495 99.7932762,44.3511379 99.4212475,41.7896389 C99.0492189,39.22814 98.4911842,37.3142397 97.7471268,36.0478807 C96.8313639,35.1268923 95.8869975,34.666405 94.9139994,34.666405 C94.6278235,34.666405 94.3988862,34.6951855 94.2271807,34.7527473 C93.7692992,34.810309 93.3257332,35.0117722 92.8964693,35.3571429 C92.4672055,35.7025135 92.1381081,36.1054399 91.9091674,36.5659341 C91.6229914,36.9688665 91.3797456,37.8034997 91.1794224,39.0698587 C90.9790993,40.3362177 90.7930877,41.6601187 90.6213822,43.0416013 C90.3352063,46.3226224 90.1921205,49.2294484 90.1921205,51.7621664 C90.1921205,55.4461199 90.5641436,58.7846527 91.3082009,61.777865 L91.3082009,61.6915228 C91.5371417,62.2671405 91.6802275,62.7276278 91.7374627,63.0729984 C92.3670497,65.1452223 92.9966272,66.3540014 93.6262143,66.6993721 L93.7979189,66.6993721 C94.3130356,66.8720574 94.8567617,66.9583987 95.4291135,66.9583987 C96.3448764,66.9583987 97.0746141,66.6130333 97.6183483,65.922292 C98.1620825,65.2315507 98.6056485,64.2530152 98.9490596,62.9866562 C99.3497059,61.7202972 99.6072604,59.7632262 99.7217307,57.1153846 C99.7217307,56.4246433 99.7789651,55.6187906 99.8934354,54.6978022 L99.8934354,54.7841444 Z M147.970749,82.1546311 C144.651108,82.1546311 141.417369,81.8668265 138.269434,81.2912088 L138.269434,72.6569859 C138.269434,68.9730323 138.441137,63.4471849 138.784548,56.0792779 L138.956252,53.3163265 C139.185193,48.0206433 139.299662,44.1352819 139.299662,41.6601256 C138.555604,42.6386757 137.725707,43.1279435 136.809944,43.1279435 C136.409297,43.1279435 135.193068,42.8976998 133.161219,42.4372057 C131.12937,41.9767115 129.283563,41.4586633 127.623743,40.8830455 C125.963923,40.3074278 125.134025,39.8469405 125.134025,39.5015699 C125.248495,38.4078962 126.092701,36.4076545 127.666669,33.5007849 C129.240637,30.5939153 130.971975,27.6726991 132.860736,24.7370487 C134.749497,21.8013982 135.865566,20.1609122 136.208977,19.8155416 L137.239205,19.8155416 C140.100965,19.7004181 142.562041,19.6428571 144.622507,19.6428571 C148.285559,19.6428571 151.719618,19.7867594 154.924789,20.0745683 C155.210964,24.1614542 155.35405,29.1116925 155.35405,34.9254317 C155.35405,39.3576883 155.182347,45.8908516 154.838936,54.5251177 C154.55276,61.7203395 154.409674,68.2535028 154.409674,74.1248038 C154.409674,76.8302071 154.438292,78.844839 154.495527,80.1687598 C154.495527,81.4926806 152.320622,82.1546311 147.970749,82.1546311 Z M208.410799,53.8343799 C208.410799,54.2948741 208.468034,55.3885314 208.582504,57.1153846 C208.696974,58.9573614 208.754209,60.3100428 208.754209,61.1734694 C208.754209,62.554952 208.668357,63.9076334 208.496652,65.2315542 C207.80983,69.8364961 206.29312,73.7794184 203.946477,77.0604396 C202.401128,78.8448546 200.355,80.1975359 197.808035,81.1185243 C195.261069,82.0395127 192.442279,82.5 189.351579,82.5 C185.516822,82.5 181.767973,81.7373179 178.104922,80.2119309 C174.44187,78.6865439 171.694622,76.7150827 169.863097,74.2974882 C168.203276,71.8223319 167.373379,69.0306278 167.373379,65.922292 C167.373379,64.5408094 167.430613,63.5334935 167.545083,62.900314 L167.545083,62.1232339 L172.696224,61.9505495 L174.584975,61.8642072 C176.187561,61.7490837 177.50395,61.6915228 178.534183,61.6915228 C180.422944,61.6915228 182.08274,61.8066446 183.513619,62.0368917 C183.85703,63.1881272 184.400757,64.1522724 185.144814,64.9293564 C185.888871,65.7064403 186.718769,66.066196 187.634532,66.0086342 L187.54868,66.0086342 C188.922324,65.8359489 189.880999,64.8574134 190.424733,63.0729984 C190.968467,61.2885834 191.183096,59.1876102 191.068626,56.7700157 C189.35157,57.2305099 187.63454,57.4607535 185.917485,57.4607535 C182.712315,57.4607535 179.721821,56.7268519 176.945915,55.2590267 C174.170009,53.7912015 171.952179,51.8197403 170.292358,49.344584 C169.31936,47.9055396 168.589623,46.2074928 168.103123,44.2503925 C167.616624,42.2932922 167.373379,40.3074407 167.373379,38.2927786 C167.373379,33.5727132 168.546682,29.7736931 170.893325,26.8956044 C172.667615,24.708257 175.085766,23.0533808 178.147848,21.9309262 C181.20993,20.8084716 184.572447,20.1896918 188.235498,20.0745683 L189.523283,20.1609105 L190.811069,20.1609105 C194.531356,20.2184723 197.50754,20.5206671 199.739713,21.0675039 C201.971885,21.6143408 203.746149,22.9526319 205.062558,25.0824176 C206.378967,27.0395179 207.223173,29.255613 207.595202,31.7307692 C207.967231,34.2059255 208.18186,37.3142147 208.239095,41.05573 L208.410799,53.8343799 Z M188.750612,34.7527473 C188.121025,34.7527473 187.233893,35.0405518 186.08919,35.6161695 C185.230662,35.9615402 184.801405,36.8249538 184.801405,38.2064364 C184.85864,39.3576719 185.001726,40.3937683 185.230666,41.3147567 C185.631313,42.0630597 186.16073,42.6674493 186.818935,43.1279435 C187.477139,43.5884377 188.149643,43.8186813 188.836465,43.8186813 C189.408817,43.8186813 189.98116,43.6603888 190.553512,43.3437991 C191.125863,43.0272093 191.583738,42.6098927 191.927149,42.0918367 C192.213325,41.516219 192.47088,40.4801226 192.69982,38.9835165 C192.757055,37.832281 192.385032,36.8393553 191.58374,36.0047096 C190.782447,35.1700639 189.838081,34.7527473 188.750612,34.7527473 Z" id="2019" fill="#FFFFFF"></path>
            </g>
        </g>
        <g id="Group-3-Copy" transform="translate(121.000000, 45.000000)">
            <path d="M174.070813,55.7058066 C100.827538,38.1512293 71.2251757,48.6799307 40.6388084,82.120064 C10.0524411,115.560197 11.8245188,155.255219 48.2512762,185.665393 C84.6780336,216.075567 156.273095,207.045906 204.846107,170.466845 C253.41912,133.887783 247.314087,73.2603838 174.070813,55.7058066 Z" id="Path-7-Copy-4" fill="#65D6E4"></path>
            <path d="M175.003109,51.8159706 C211.063568,60.4587589 233.781674,80.0560885 239.053963,105.129033 C244.099513,129.123702 232.258347,154.830793 207.252388,173.662124 C156.229204,212.086346 82.974646,219.864196 45.6878262,188.736016 C7.94654036,157.228433 5.17749813,114.963352 37.687244,79.4203848 C71.5457682,42.4027963 104.537215,34.9270618 175.003109,51.8159706 Z M173.138517,59.5956426 C137.24668,50.9932689 112.02451,49.2084802 92.2424449,53.6910199 C73.9966925,57.825437 59.6171885,67.2975953 43.5903728,84.8197432 C14.1541833,117.002385 16.579023,154.013755 50.8147262,182.59477 C84.8638875,211.020054 154.109515,203.667855 202.439826,167.271565 C225.12376,150.188889 235.580484,127.487415 231.225173,106.775255 C226.652298,85.0284478 206.415068,67.571198 173.138517,59.5956426 Z" id="Path-7-Copy-4" fill="#000000" fill-rule="nonzero"></path>
            <path d="M63.7694187,55.5491967 C61.8230768,36.2567885 36.1162889,25.5393488 20.1220203,33.8329843 C9.07243291,39.562615 6.46454013,48.10324 5,57.1438511 C7.68981856,57.1438511 10.2744121,57.305517 12.7477514,57.618959 C30.4301158,59.8598145 42.4261747,69.8580788 46.5328064,84 C61.3704562,77.837254 65.0304366,68.0485803 63.7694187,55.5491967 Z" id="Path-Copy-16" fill="#65D6E4" transform="translate(34.500000, 57.500000) scale(-1, 1) translate(-34.500000, -57.500000) "></path>
            <path d="M67.7492166,55.1476892 C69.3130468,70.64859 63.5014465,81.2834605 48.0671074,87.6940385 L43.9382556,89.4089371 L42.6914879,85.1154694 C38.9580961,72.2588667 28.0489131,63.590041 12.2448604,61.5872207 C9.92204357,61.2928541 7.5043081,61.1438511 5,61.1438511 L0.299871878,61.1438511 L1.05147429,56.5042069 C3.13941008,43.6153722 7.42914427,35.9089367 18.2806972,30.2819944 C37.3419194,20.398027 65.5755019,33.6015298 67.7492166,55.1476892 Z M59.7896207,55.9507043 C58.2087643,40.2810374 36.2133254,29.9948175 21.9633434,37.3839742 C14.9731517,41.008654 11.7109911,45.522794 9.83153815,53.313352 C10.9873415,53.3958322 12.127291,53.508337 13.2506423,53.6506973 C30.3370361,55.8160265 43.1086774,64.8898038 48.823282,78.4953665 C57.8920181,73.577864 60.8713109,66.6725664 59.7896207,55.9507043 Z" id="Path-Copy-16" fill="#000000" fill-rule="nonzero" transform="translate(34.147580, 58.177751) scale(-1, 1) translate(-34.147580, -58.177751) "></path>
            <path d="M20,56.7170835 C27.8277516,60.6274173 33.7131203,62.1091044 39.100645,69 C48.4440588,67.8438517 50.4822907,55.8368874 39.8339109,48.8105962 C29.1855312,41.784305 20.8574977,49.2571651 20,56.7170835 Z" id="Path-Copy-17" fill="#000000" transform="translate(33.500000, 57.500000) scale(-1, 1) translate(-33.500000, -57.500000) "></path>
            <path d="M38.5351562,72 C38.7175803,46.3242188 49.8725282,27.5755208 72,15.7539063 C105.191208,-1.97851563 135,5 165,15.7539063 C185,22.9231771 161.186849,48.5052083 93.5605469,92.5 L38.5351562,72 Z" id="Path-26-Copy-2" fill="#FFFFFF"></path>
            <path d="M93.0664566,88.0473459 C125.697987,66.7358774 147.781024,49.8723986 159.212298,37.5919909 C164.634756,31.7667434 167.45786,27.1612951 167.811872,24.1206668 C168.051901,22.0590527 167.031654,20.7314079 163.650245,19.5192962 C145.810244,13.1243061 132.603991,9.81143276 119.469772,9.06509081 C103.661056,8.1667726 88.8461957,11.2888775 73.8848719,19.2819734 C53.8661173,29.9770046 43.5244135,46.4703113 42.6008319,69.2461109 L93.0664566,88.0473459 Z M34.5352572,71.9715811 C34.7280226,44.8402721 46.6851423,24.7433225 70.1151281,12.2258391 C86.3954499,3.52806776 102.67297,0.0977198046 119.923634,1.07797559 C133.975442,1.87645881 147.849558,5.35687017 166.349755,11.9885163 C172.968346,14.36104 176.471455,18.9196256 175.758196,25.0458371 C175.158921,30.1930343 171.552093,36.0770066 165.067975,43.0427748 C152.882027,56.1339155 129.809532,73.6899139 95.741814,95.8529202 L94.0525568,96.951879 L34.5153677,74.7709846 L34.5352572,71.9715811 Z" id="Path-26-Copy-2" fill="#000000" fill-rule="nonzero"></path>
            <path d="M181.772679,243 C180.949461,229.974669 188.579221,216.241651 204.661959,201.800945 C232.487373,176.816479 283,162 283,101.874716 C283,37.7787587 233.038414,5 183.786558,5 C123.691814,5 92,23.4804687 78,67.3532572 C89.75694,67.3532572 127.501907,57.8143856 139.47308,57.8143856 C166.480135,57.8143856 182.97837,73.8615896 182.97837,96.1914961 C182.97837,127.361743 150.165061,125.222688 137.396903,167.487263 C128.884798,195.663647 143.676723,220.834559 181.772679,243 Z" id="Path-Copy-18" fill="#FFFFFF"></path>
            <path d="M185.764714,242.747698 C185.966463,245.939859 182.525697,248.065921 179.761069,246.457373 C140.230743,223.457369 124.431656,196.572605 133.567819,166.330494 C138.014653,151.610787 144.780804,141.272654 154.902913,131.452188 C157.586601,128.848474 166.38385,121.056184 166.35199,121.085406 C175.493611,112.700587 178.97837,106.572842 178.97837,96.1914961 C178.97837,75.6210315 163.756361,61.8143856 139.47308,61.8143856 C134.880085,61.8143856 127.51793,63.0304333 109.565465,66.4822608 L109.411491,66.5118667 C90.3132295,70.1840991 83.2808341,71.3532572 78,71.3532572 C75.2913741,71.3532572 73.3658872,68.7176812 74.189314,66.1372505 C88.7434911,20.5277982 121.955494,1 183.786558,1 C210.141684,1 235.606957,9.75716686 254.466357,25.9273894 C275.304923,43.7945683 287,69.5385093 287,101 C287,121.176578 281.565205,137.71023 271.198737,151.929515 C263.070976,163.078053 253.029755,171.842395 237.185755,182.926375 C234.621794,184.720044 225.14922,191.205215 223.048232,192.672038 C216.27065,197.403863 211.48059,201.054325 207.334364,204.777226 C192.074221,218.479323 185.032026,231.154768 185.764714,242.747698 Z M201.989553,198.824664 C206.426045,194.841133 211.446629,191.014991 218.468644,186.112512 C220.610761,184.616975 230.079157,178.134665 232.59995,176.371194 C247.780304,165.75148 257.243174,157.491945 264.734296,147.216661 C274.107144,134.360286 279,119.475312 279,101 C279,71.8601828 268.314752,48.3391399 249.259093,32.0006429 C231.902649,17.1190679 208.292926,9 183.786558,9 C127.877482,9 98.0290087,25.0301653 83.774986,62.9060346 C88.5726302,62.2908752 95.7834412,60.9857358 107.900914,58.6557762 L108.054926,58.626163 C126.79438,55.0230164 134.111633,53.8143856 139.47308,53.8143856 C168.00989,53.8143856 186.97837,71.0191499 186.97837,96.1914961 C186.97837,109.170886 182.400267,117.221212 171.759538,126.981033 C171.673422,127.06002 163.002062,134.740803 160.473567,137.193948 C151.272198,146.121114 145.250776,155.321359 141.225987,168.644032 C133.761985,193.351033 145.703255,215.682073 178.069881,236.083998 C179.808208,223.913771 187.867524,211.504847 201.989553,198.824664 Z" id="Path-Copy-18" fill="#000000" fill-rule="nonzero"></path>
            <path d="M193.515719,210.684038 L189.041618,217.315962 C174.483503,207.494609 166.980695,191.615089 173.188163,175.693337 C176.694647,166.699431 181.200237,159.875166 190.308373,148.345148 C190.568303,148.016102 190.833936,147.680292 191.186175,147.235326 C191.623742,146.682651 191.862211,146.381444 192.059616,146.131987 C192.765642,145.239792 193.282621,144.584659 193.787707,143.941205 C205.512394,129.004553 210,119.994764 210,107.391669 C210,94.7557905 202.223703,83.4213419 193.935037,79.6390236 L197.256186,72.3609764 C208.31401,77.4069287 218,91.5248759 218,107.391669 C218,115.581852 216.094622,123.05149 212.419343,130.430365 C209.549705,136.19175 206.047621,141.27911 200.080557,148.880845 C199.56777,149.534109 199.044968,150.196621 198.332991,151.096337 C198.134904,151.346656 197.895714,151.648772 197.458718,152.200727 C197.108023,152.643741 196.843924,152.977613 196.585981,153.304144 C187.941411,164.247332 183.779519,170.551024 180.641718,178.59928 C175.987428,190.537234 181.758972,202.752574 193.515719,210.684038 Z" id="Path-2-Copy-8" fill="#000000" fill-rule="nonzero"></path>
            <path d="" id="Path-3-Copy-4" stroke="#000000" stroke-width="8"></path>
            <path d="M198.951006,59.9996999 L199.048994,52.0003001 C221.805199,52.2790487 238.694797,64.8407945 249.270061,89.0616427 C258.361456,109.883941 254.346582,134.752343 237.64982,153.13541 C231.573851,159.825027 228.707868,165.341266 228.045616,170.743166 C227.513875,175.080505 228.177171,178.891702 230.495597,186.885847 L222.812196,189.114153 C220.20519,180.124955 219.401607,175.507699 220.105066,169.769685 C220.987715,162.570042 224.615679,155.587194 231.727876,147.756694 C246.30004,131.712802 249.772355,110.205043 241.93843,92.2627663 C232.560448,70.7840897 218.380549,60.2376991 198.951006,59.9996999 Z" id="Path-4-Copy-4" fill="#000000" fill-rule="nonzero"></path>
            <path d="M186.913664,41.6187179 L184.324617,34.0492508 C209.70889,25.3668569 235.443377,31.0976187 256.358241,47.5437692 C274.799879,62.0451287 287,83.3506785 287,101 L279,101 C279,86.0295913 268.057652,66.9205393 251.413244,53.8324102 C232.522667,38.9780329 209.574664,33.8677878 186.913664,41.6187179 Z" id="Path-5-Copy-4" fill="#000000" fill-rule="nonzero"></path>
            <path d="M198.769419,56.5491967 C196.823077,37.2567885 171.116289,26.5393488 155.12202,34.8329843 C144.072433,40.562615 141.46454,49.10324 140,58.1438511 C142.689819,58.1438511 145.274412,58.305517 147.747751,58.618959 C165.430116,60.8598145 177.426175,70.8580788 181.532806,85 C196.370456,78.837254 200.030437,69.0485803 198.769419,56.5491967 Z" id="Path-Copy-19" fill="#65D6E4"></path>
            <path d="M202.749217,56.1476892 C204.313047,71.64859 198.501447,82.2834605 183.067107,88.6940385 L178.938256,90.4089371 L177.691488,86.1154694 C173.958096,73.2588667 163.048913,64.590041 147.24486,62.5872207 C144.922044,62.2928541 142.504308,62.1438511 140,62.1438511 L135.299872,62.1438511 L136.051474,57.5042069 C138.13941,44.6153722 142.429144,36.9089367 153.280697,31.2819944 C172.341919,21.398027 200.575502,34.6015298 202.749217,56.1476892 Z M194.789621,56.9507043 C193.208764,41.2810374 171.213325,30.9948175 156.963343,38.3839742 C149.973152,42.008654 146.710991,46.522794 144.831538,54.313352 C145.987341,54.3958322 147.127291,54.508337 148.250642,54.6506973 C165.337036,56.8160265 178.108677,65.8898038 183.823282,79.4953665 C192.892018,74.577864 195.871311,67.6725664 194.789621,56.9507043 Z" id="Path-Copy-19" fill="#000000" fill-rule="nonzero"></path>
            <path d="M155,58.7170835 C162.827752,62.6274173 168.71312,64.1091044 174.100645,71 C183.444059,69.8438517 185.482291,57.8368874 174.833911,50.8105962 C164.185531,43.784305 155.857498,51.2571651 155,58.7170835 Z" id="Path-Copy-20" fill="#000000"></path>
            <path d="M117.643651,58.0793626 C95.7040857,56.769022 78,71.6584927 78,91.5432389 C78,109.339288 93.3887658,122.169401 113.251416,124.780925 C121.304313,125.839713 131.088643,123.026883 138.789153,117.3182 C147.11148,111.14854 152,102.482833 152,92.716978 C152,71.5155956 139.816335,59.4036262 117.643651,58.0793626 Z M118.120601,50.0935929 C144.408524,51.6636391 160,67.1633658 160,92.716978 C160,105.168864 153.810397,116.140954 143.553453,123.74482 C134.242176,130.647627 122.398636,134.052444 112.208558,132.712661 C88.7746855,129.631596 70,113.978532 70,91.5432389 C70,66.8345975 91.7764535,48.5201885 118.120601,50.0935929 Z" id="Path-8-Copy-8" fill="#000000" fill-rule="nonzero"></path>
            <g id="Group-3-Copy-5" transform="translate(12.000000, 49.000000)">
                <path d="M47.8821263,5.08647773 C71.7180893,6.51008074 86,19.9710133 86,43.716978 C86,67.4629426 60.8801455,82.1331604 42.7299872,79.7467931 C24.5798289,77.3604258 4,65.1154644 4,42.5432389 C4,19.9710133 24.0461632,3.66287473 47.8821263,5.08647773 Z" id="Path-8-Copy" fill="#FFFFFF"></path>
                <path d="M47.6436512,9.07936261 C25.7040857,7.76902196 8,22.6584927 8,42.5432389 C8,60.3392877 23.3887658,73.1694005 43.2514162,75.7809248 C51.3043129,76.8397127 61.088643,74.0268835 68.7891529,68.3182 C77.1114801,62.1485395 82,53.4828328 82,43.716978 C82,22.5155956 69.8163347,10.4036262 47.6436512,9.07936261 Z M48.1206013,1.09359286 C74.4085238,2.66363914 90,18.1633658 90,43.716978 C90,56.1688635 83.8103974,67.1409535 73.553453,74.74482 C64.2421762,81.6476268 52.3986358,85.0524442 42.2085582,83.7126615 C18.7746855,80.631596 1.33226763e-15,64.9785322 0,42.5432389 C0,17.8345975 21.7764535,-0.479811491 48.1206013,1.09359286 Z" id="Path-8-Copy" fill="#000000" fill-rule="nonzero"></path>
                <path d="M33.5282627,35.0788083 C36.5435957,30.205325 42.9131116,27.4167832 49.0129528,28.1029164 C55.9985314,28.8886807 61.2892424,33.923444 62.6835263,42.0920202 C64.071333,50.2226485 60.7713703,56.3908653 54.4680084,59.319879 C49.4521751,61.6506105 43.0013232,61.5447716 39.1170744,59.0719494 C31.6114931,54.2936848 28.3676903,43.4195006 33.5282627,35.0788083 Z" id="Path-9-Copy" fill="#000000" fill-rule="nonzero"></path>
                <ellipse id="Oval-Copy" fill="#FFFFFF" cx="52" cy="45.5" rx="5" ry="5.5"></ellipse>
            </g>
            <path d="M117.882126,54.0864777 C141.718089,55.5100807 156,68.9710133 156,92.716978 C156,116.462943 130.880146,131.13316 112.729987,128.746793 C94.5798289,126.360426 74,114.115464 74,91.5432389 C74,68.9710133 94.0461632,52.6628747 117.882126,54.0864777 Z" id="Path-8-Copy-9" fill="#FFFFFF"></path>
            <path d="M117.643651,58.0793626 C95.7040857,56.769022 78,71.6584927 78,91.5432389 C78,109.339288 93.3887658,122.169401 113.251416,124.780925 C121.304313,125.839713 131.088643,123.026883 138.789153,117.3182 C147.11148,111.14854 152,102.482833 152,92.716978 C152,71.5155956 139.816335,59.4036262 117.643651,58.0793626 Z M118.120601,50.0935929 C144.408524,51.6636391 160,67.1633658 160,92.716978 C160,105.168864 153.810397,116.140954 143.553453,123.74482 C134.242176,130.647627 122.398636,134.052444 112.208558,132.712661 C88.7746855,129.631596 70,113.978532 70,91.5432389 C70,66.8345975 91.7764535,48.5201885 118.120601,50.0935929 Z" id="Path-8-Copy-9" fill="#000000" fill-rule="nonzero"></path>
            <path d="M116.528263,84.0788083 C119.543596,79.205325 125.913112,76.4167832 132.012953,77.1029164 C138.998531,77.8886807 144.289242,82.923444 145.683526,91.0920202 C147.071333,99.2226485 143.77137,105.390865 137.468008,108.319879 C132.452175,110.65061 126.001323,110.544772 122.117074,108.071949 C114.611493,103.293685 111.36769,92.4195006 116.528263,84.0788083 Z" id="Path-9-Copy-5" fill="#000000" fill-rule="nonzero"></path>
            <ellipse id="Oval-Copy-5" fill="#FFFFFF" cx="135" cy="94.5" rx="5" ry="5.5"></ellipse>
            <path d="" id="Path-10-Copy-4" stroke="#000000" stroke-width="8"></path>
            <path d="M73.3359375,151.108431 C73.3359375,166.034212 73.3359375,166.584994 73.3359375,171.129915 C73.3359375,175.674837 70.3751445,180.501009 62.8808594,180.501009 C55.3865743,180.501009 53.7851562,172.455111 53.7851562,167.129915 C53.7851563,163.579785 53.7851563,155.616895 53.7851562,143.241244 C66.8190104,138.535514 73.3359375,141.15791 73.3359375,151.108431 Z" id="Path-24-Copy-7" fill="#FFFFFF"></path>
            <path d="M57.7851563,167.129915 C57.7851562,172.949022 59.5592634,176.501009 62.8808594,176.501009 C67.3139091,176.501009 69.3359375,174.36121 69.3359375,171.129915 L69.3359375,151.108431 C69.3359375,147.62082 68.5020978,146.012118 66.9550127,145.389574 C65.1629109,144.668437 62.0742093,144.848896 57.7851563,146.129054 L57.7851563,167.129915 Z M77.3359375,151.108431 L77.3359375,171.129915 C77.3359375,178.681395 71.8366256,184.501009 62.8808594,184.501009 C57.8363627,184.501009 54.0893197,181.894581 51.9441822,177.599744 C50.4397589,174.587698 49.7851562,170.905599 49.7851563,167.129915 L49.7851562,140.432684 L52.4268185,139.478941 C67.7254448,133.955541 77.3359375,137.82278 77.3359375,151.108431 Z" id="Path-24-Copy-7" fill="#000000" fill-rule="nonzero"></path>
            <path d="M93.3359375,151.108431 C93.3359375,166.034212 93.3359375,164.584994 93.3359375,169.129915 C93.3359375,173.674837 90.3751445,180.501009 82.8808594,180.501009 C75.3865743,180.501009 73.7851562,174.455111 73.7851562,169.129915 C73.7851563,165.579785 73.7851563,156.950228 73.7851562,143.241244 C86.8190104,138.535514 93.3359375,141.15791 93.3359375,151.108431 Z" id="Path-24-Copy-8" fill="#FFFFFF"></path>
            <path d="M77.7851563,169.129915 C77.7851562,174.248519 79.1685847,176.501009 82.8808594,176.501009 C86.8203267,176.501009 89.3359375,173.088839 89.3359375,169.129915 L89.3359375,151.108431 C89.3359375,147.62082 88.5020978,146.012118 86.9550127,145.389574 C85.1629109,144.668437 82.0742093,144.848896 77.7851563,146.129054 L77.7851563,169.129915 Z M97.3359375,151.108431 L97.3359375,169.129915 C97.3359375,177.070993 91.8581837,184.501009 82.8808594,184.501009 C73.7163994,184.501009 69.7851562,178.100181 69.7851563,169.129915 L69.7851562,140.432684 L72.4268185,139.478941 C87.7254448,133.955541 97.3359375,137.82278 97.3359375,151.108431 Z" id="Path-24-Copy-8" fill="#000000" fill-rule="nonzero"></path>
            <path d="M74.3865743,123.037611 C91.8242188,123.037611 108.984375,129 108.984375,143.942415 C108.984375,156.36631 93.6367187,157.799837 84.2109375,151.249056 C77.0424032,146.267029 67.6078318,146.77054 60.2492284,151.249056 C52.890625,155.727572 41,155.809609 41,143.942415 C41,132.075222 56.9489298,123.037611 74.3865743,123.037611 Z" id="Path-23-Copy-4" fill="#F3D59F"></path>
            <path d="M74.3865743,127.037611 C58.343605,127.037611 45,135.136033 45,143.942415 C45,147.587 46.2876904,149.253159 48.7691472,149.82887 C51.4237051,150.444741 55.1721775,149.656425 58.1696555,147.832131 C67.1286375,142.37961 78.217314,142.212427 86.4937195,147.964409 C90.2603382,150.582154 95.3172202,151.666372 99.2809136,150.802902 C102.99816,149.99312 104.984375,147.765187 104.984375,143.942415 C104.984375,133.392641 92.7418095,127.037611 74.3865743,127.037611 Z M74.3865743,119.037611 C96.5806169,119.037611 112.984375,127.552687 112.984375,143.942415 C112.984375,159.38862 94.6581787,163.380885 81.9281555,154.533703 C76.3762757,150.675227 68.6957,150.791026 62.3288013,154.665981 C57.6460783,157.515931 51.8019301,158.744974 46.9611287,157.621884 C40.8100255,156.194797 37,151.264955 37,143.942415 C37,129.65643 54.4964107,119.037611 74.3865743,119.037611 Z" id="Path-23-Copy-4" fill="#000000" fill-rule="nonzero"></path>
            <path d="M72.3661615,110.146061 C77.9467603,109.558267 83.3670814,110.762367 87.0300927,113.477455 C91.4890124,116.782484 92.8621901,121.996718 90.1024964,127.062892 C86.8500851,133.033584 79.855624,136.083361 72.1152214,136.075206 C64.6399709,136.06733 57.9472862,133.223574 56.1868186,127.983977 C52.8138649,117.945212 58.4208387,111.614896 72.3661615,110.146061 Z" id="Path-21-Copy-4" fill="#000000" fill-rule="nonzero"></path>
        </g>
    </g>
</svg>