<?xml version="1.0" encoding="UTF-8"?>
<svg width="450px" height="450px" viewBox="0 0 450 450" version="1.1" xmlns="http://www.w3.org/2000/svg" xmlns:xlink="http://www.w3.org/1999/xlink">
    <!-- Generator: Sketch 52.6 (67491) - http://www.bohemiancoding.com/sketch -->
    <title>logo-gopherConSg2019-square</title>
    <desc>Created with Sketch.</desc>
    <g id="logo-gopherConSg2019-square" stroke="none" stroke-width="1" fill="none" fill-rule="evenodd">
        <g id="Group" transform="translate(32.000000, 26.000000)">
            <path d="M245.184832,24.6152406 C272.219034,22.0126963 294.952845,37.296502 306.331223,64.9036787 C308.744424,70.7587901 313.674923,74.9814463 318.542067,77.6560745 C345.664453,92.5605653 351.142379,103.157318 360.303018,116.264649 C370.426065,130.749024 386.531534,176.514649 390.051065,198.124505 C393.570596,219.73436 394.295206,241.858399 394.295206,277.625978 C394.295206,313.393556 371.674112,305.893556 356.756143,321.178712 C341.838174,336.463868 344.906534,356.067384 341.838174,366.938478 C338.769815,377.809571 332.277297,389.364259 313.674923,391.709962 C295.072549,394.055665 198.168252,397.495118 175.849893,397.495118 C153.531534,397.495118 154.203409,389.536134 125.072549,391.709962 C95.94169,393.88379 88.2268462,379.034181 72.1116119,375.561524 C55.9963775,372.088868 39.2659087,355.770509 39.2659087,329.463868 C39.2659087,303.157228 21.738565,310.719728 11.332315,295.985353 C0.926064998,281.250978 -2.57979438,259.178845 1.926065,234.323243 C6.43192437,209.467642 8.89286187,186.920899 18.7600494,158.092774 C28.6272369,129.264649 39.2659087,106.684571 78.4036041,85.6328135 C87.2480643,80.8754706 81.5080962,64.9036787 93.2639556,47.7548838 C112.195596,20.8964854 128.894815,24.2900401 132.111658,19.072147 C136.623092,11.7543574 148.606568,3.04891952 172.447549,0.59277443 C198.171595,-2.05736767 213.574502,4.28027443 226.137002,17.5654307 C232.183315,23.9595567 238.633559,25.2459224 245.184832,24.6152406 Z" id="Path-3" fill="#FFFFFF"></path>
            <g id="logo-gopherConSg2018-square" transform="translate(18.000000, 68.000000)">
                <path d="M18.5503675,188.876258 C19.2958265,188.41443 20.5143469,188.140223 22.2059654,188.05363 C23.8975838,187.967037 25.6895257,187.952606 27.5818446,188.010334 C29.4741636,188.068063 31.2374343,188.169086 32.8717098,188.313408 C34.5059853,188.457729 35.6098214,188.529889 36.1832514,188.529889 L36.3552796,188.529889 L36.4412936,188.616481 C36.7853516,191.676096 37.0147202,194.923279 37.1294062,198.358129 C37.2440922,201.792979 37.0147236,205.069027 36.4412936,208.18637 C36.1545786,211.130527 35.2657755,213.381908 33.7748575,214.940579 C32.2839395,216.499251 30.4489911,217.682669 28.2699572,218.490869 C26.8363822,218.894969 25.3454866,219.255767 23.7972256,219.573274 C22.2489647,219.890781 20.6720558,220.121692 19.0664519,220.266013 C17.4608479,220.410335 15.8982746,220.395903 14.3786852,220.222717 C12.8590957,220.049531 11.4112067,219.674301 10.0349747,219.097016 C7.74125478,218.11563 5.99231956,216.787893 4.78811658,215.113764 C3.58391361,213.439635 2.63776832,211.361438 1.94965234,208.879109 C1.77762334,208.244095 1.59126139,207.363747 1.39056089,206.23804 C1.1898604,205.112333 1.03216952,203.972211 0.91748352,202.817639 C0.745454524,200.970325 0.602099177,199.296221 0.48741318,197.795278 C0.372727182,196.294335 0.27237844,194.807847 0.186363942,193.335768 C0.100349443,191.86369 0.0430073048,190.305042 0.0143358054,188.659777 C-0.0143356939,187.014513 -1.59284908e-07,185.123931 0.0573428395,182.987973 C0.114685838,181.140659 0.200699046,179.250077 0.315385044,177.316169 C0.430071041,175.382262 0.630768526,173.49168 0.91748352,171.644365 C1.20419851,169.739322 1.70594223,167.892036 2.42272971,166.10245 C3.1395172,164.312864 4.32936657,162.840808 5.99231354,161.686236 C7.13917351,160.70485 8.42937163,159.983254 9.8629466,159.521426 C11.2965216,159.059597 12.7874172,158.713231 14.3356781,158.482316 C17.4895431,158.078216 20.5000053,158.17924 23.3671553,158.78539 C26.2343052,159.39154 28.7000172,160.473934 30.7643651,162.032606 C32.8287131,163.591277 34.3769508,165.655043 35.4091248,168.223964 C36.4412988,170.792886 36.7566805,173.838023 36.3552796,177.359466 L36.2692655,177.87902 C36.1545795,178.052206 35.8965399,178.138797 35.4951389,178.138797 C35.0937379,178.138797 34.4343033,178.167661 33.5168153,178.22539 C32.6566703,178.22539 31.9255581,178.239822 31.3234566,178.268686 C30.7213551,178.29755 30.1192626,178.311982 29.5171611,178.311982 C28.9150597,178.311982 28.2986317,178.283118 27.6678587,178.22539 C27.0370857,178.167661 26.2916379,178.08107 25.4314929,177.965613 C25.2594639,177.388327 25.0157598,176.681162 24.7003733,175.844098 C24.3849868,175.007034 23.9835919,174.22771 23.4961764,173.506103 C23.0087609,172.784495 22.449675,172.149491 21.8189021,171.601069 C21.1881291,171.052648 20.4426813,170.778441 19.5825363,170.778441 C18.6077053,170.720712 17.66156,170.691849 16.744072,170.691849 C15.8265841,170.691849 15.0237941,171.038215 14.3356781,171.730958 C14.2209921,171.846415 14.0633013,172.149485 13.8626008,172.640178 C13.6619003,173.130871 13.5042094,173.607125 13.3895234,174.068953 C12.9881224,175.454439 12.6584051,177.128543 12.4003616,179.091314 C12.1423181,181.054086 11.9559562,183.146715 11.8412702,185.369265 C11.7265842,187.591815 11.6979131,189.886492 11.7552561,192.253363 C11.8125991,194.620235 11.9272834,196.871615 12.0993124,199.007572 C12.2139984,200.277601 12.4433669,201.663066 12.7874249,203.164009 C13.1314829,204.664952 13.8482596,205.84837 14.9377766,206.714298 C15.4538636,207.06067 16.1132982,207.320445 16.9161002,207.49363 C17.7762452,207.609087 18.6793838,207.580224 19.6255433,207.407038 C20.5717028,207.233852 21.4461704,207.002941 22.2489724,206.714298 C22.8797454,206.425656 23.4244957,206.035994 23.8832397,205.545301 C24.3419837,205.054608 24.6860365,204.405171 24.9154085,203.596971 C24.9727515,203.366057 25.0444292,202.976395 25.1304437,202.427973 C25.2164582,201.879552 25.2738003,201.316707 25.3024718,200.739421 C25.3311433,200.162135 25.3311433,199.642586 25.3024718,199.180757 C25.2738003,198.718929 25.1734516,198.459154 25.0014226,198.401425 C24.6573646,198.343697 24.1842919,198.329265 23.5821905,198.358129 C22.980089,198.386993 22.3493254,198.415857 21.689881,198.444722 C21.0304365,198.473586 20.428344,198.473586 19.8835855,198.444722 C19.338827,198.415857 18.9230965,198.343698 18.6363815,198.228241 C18.5216955,197.304583 18.4500179,196.496395 18.4213464,195.803653 C18.3926749,195.11091 18.3926749,194.432609 18.4213464,193.768731 C18.4500179,193.104852 18.4643534,192.426551 18.4643534,191.733808 C18.4643534,191.041066 18.4070113,190.17515 18.2923253,189.136036 L18.2923253,189.049443 C18.2923253,188.991715 18.3209963,188.962851 18.3783393,188.962851 L18.5503675,188.876258 Z M44.8472139,179.524276 C45.2486149,178.658348 45.893714,177.907887 46.7825304,177.272873 C47.6713469,176.637859 48.7035054,176.103878 49.8790369,175.670913 C51.0545684,175.237949 52.3160954,174.934878 53.6636559,174.761693 C55.0112164,174.588507 56.3730922,174.501915 57.7493241,174.501915 C58.8961841,174.617373 60.0000203,174.631805 61.0608657,174.545212 C62.1217112,174.458619 63.2542185,174.473051 64.4584214,174.588508 C66.2933974,174.703965 68.0423326,175.064763 69.7052796,175.670913 C71.3682265,176.277063 72.80178,177.157411 74.005983,178.311982 C74.808785,178.831539 75.4395485,179.668591 75.8982925,180.823163 C76.3570365,181.977734 76.7010893,183.319903 76.9304613,184.849711 C77.1598333,186.379518 77.3031886,188.053621 77.3605316,189.872071 C77.4178746,191.690521 77.4752168,193.55224 77.5325598,195.457283 C77.4752168,197.131411 77.4035391,199.036426 77.3175246,201.172383 C77.2315101,203.30834 77.0881548,205.357674 76.8874543,207.320445 C76.6867538,209.283217 76.4287141,211.043912 76.1133277,212.602583 C75.7979412,214.161255 75.3535396,215.229218 74.7801096,215.806503 C73.8052786,217.191989 72.529416,218.17336 70.9524836,218.750646 C69.3755511,219.327932 67.6696225,219.68873 65.8346465,219.833051 C63.9996706,219.977373 62.10738,219.977373 60.157718,219.833051 C58.2080561,219.68873 56.4304498,219.61657 54.8248458,219.61657 C51.9003529,219.097013 49.4346409,217.827003 47.427636,215.806503 C45.879375,214.421018 44.8185454,212.689186 44.2451154,210.610958 C43.6716854,208.532729 43.3276326,206.353508 43.2129466,204.073229 C43.0982606,201.792951 43.0839251,199.498274 43.1699396,197.189131 C43.2559541,194.879988 43.2129475,192.772927 43.0409185,190.867884 C43.0409185,189.82877 43.0695896,188.804103 43.1269326,187.793853 C43.1842756,186.783603 43.2989598,185.730072 43.4709888,184.633229 C43.5283318,183.998215 43.7290293,183.146731 44.0730873,182.078753 C44.4171453,181.010774 44.6751849,180.159291 44.8472139,179.524276 Z M55.5989724,189.742183 C55.2549144,189.973097 54.9968748,190.550374 54.8248458,191.474031 C54.5954738,193.321346 54.4807895,195.1542 54.4807895,196.97265 C54.4807895,198.7911 54.4234474,200.710547 54.3087614,202.731047 C54.2514184,204.058804 54.5954712,205.083471 55.3409302,205.805078 C56.0863892,206.526685 56.9895279,207.017371 58.0503734,207.277149 C59.1112188,207.536928 60.215055,207.594655 61.361915,207.450334 C62.508775,207.306013 63.4549202,207.031806 64.2003792,206.627706 C65.1752102,206.165877 65.8346448,205.21337 66.1787028,203.770156 C66.4080748,201.922842 66.5944367,200.061123 66.7377942,198.184944 C66.8811517,196.308766 66.780803,194.533639 66.436745,192.85951 C66.15003,190.83901 65.318569,189.366953 63.942337,188.443296 C62.5661051,187.519639 60.7598277,187.317592 58.5234507,187.837149 C57.3192478,188.183521 56.3444314,188.818525 55.5989724,189.742183 Z M95.8300979,235.636169 L95.8300979,236.588686 C95.8300979,236.646414 95.4430385,236.718574 94.668908,236.805167 C93.8947775,236.89176 92.9486322,236.949487 91.8304437,236.978352 C90.7122552,237.007216 89.5224059,237.007216 88.2608599,236.978352 C86.9993139,236.949487 85.9098133,236.848464 84.9923253,236.675278 L84.9923253,230.960178 C84.9923253,226.168706 84.9349832,221.377307 84.8202972,216.585835 C84.7056112,211.794364 84.6052624,207.075123 84.5192479,202.427973 C84.4332334,197.780823 84.3758913,193.220334 84.3472198,188.74637 C84.3185483,184.272405 84.3615549,179.957259 84.4762409,175.800802 C86.2538739,175.800802 88.2035066,175.757506 90.3251975,175.670913 C92.4468885,175.58432 94.3678501,175.65648 96.0881401,175.887394 C96.1454831,176.002851 96.1741542,176.204898 96.1741542,176.493541 C96.1741542,177.070827 96.1884897,177.532649 96.2171612,177.87902 C96.2458327,178.225392 96.2601682,178.716077 96.2601682,179.351091 C96.3748542,179.639734 96.503874,179.856213 96.6472315,180.000535 C96.790589,180.144856 96.9482799,180.043833 97.1203089,179.697461 C97.9804539,177.965604 99.1272967,176.854346 100.560872,176.363653 C101.994447,175.87296 103.514013,175.743072 105.119617,175.973987 C108.388168,176.204901 110.968564,177.056385 112.860883,178.528463 C114.753202,180.000542 116.17242,181.876692 117.11858,184.156971 C118.064739,186.43725 118.681167,188.991701 118.967882,191.820401 C119.254597,194.649101 119.455295,197.506623 119.569981,200.393051 C119.569981,202.413551 119.440961,204.376293 119.182917,206.281336 C118.924874,208.186379 118.523479,209.932642 117.97872,211.520178 C117.433962,213.107714 116.717185,214.464315 115.828369,215.590022 C114.939552,216.715729 113.864387,217.509485 112.602841,217.971314 C111.05458,218.5486 109.348652,218.909398 107.485004,219.053719 C105.621357,219.198041 103.858086,219.198041 102.195139,219.053719 C100.532192,218.909398 99.1273096,218.635191 97.9804496,218.231091 C96.8335896,217.826991 96.2028261,217.36517 96.0881401,216.845612 C96.1454831,219.558855 96.1741542,221.752508 96.1741542,223.426637 L96.1741542,227.453185 C96.1741542,228.463435 96.1598186,229.242759 96.1311471,229.79118 C96.1024756,230.339602 96.0738046,230.859151 96.0451331,231.349844 C96.0164616,231.840537 95.9877905,232.38895 95.959119,232.9951 C95.9304475,233.60125 95.8874409,234.481598 95.8300979,235.636169 Z M109.162278,202.990824 C109.448993,202.182624 109.62102,201.345572 109.678363,200.479644 C109.735706,199.613715 109.764377,198.776663 109.764377,197.968463 C109.764377,196.525249 109.59235,195.125352 109.248293,193.768731 C108.904235,192.412109 108.388155,191.199827 107.700039,190.131849 C107.011923,189.06387 106.180462,188.212386 105.205631,187.577372 C104.2308,186.942358 103.1413,186.624855 101.937097,186.624855 C100.446179,186.624855 99.299336,186.942358 98.496534,187.577372 C97.693732,188.212386 97.077304,189.078302 96.6472315,190.175145 C96.217159,191.271988 95.9591194,192.599725 95.8731049,194.158396 C95.7870904,195.717068 95.7440838,197.391171 95.7440838,199.180757 C95.7440838,201.432172 95.7870904,203.207299 95.8731049,204.506192 C95.9591194,205.805084 96.1741524,206.800887 96.5182104,207.49363 C96.8622684,208.186373 97.3926832,208.633763 98.1094707,208.835813 C98.8262582,209.037863 99.786739,209.138886 100.990942,209.138886 C103.342005,209.138886 105.21996,208.619337 106.624863,207.580223 C108.029767,206.541108 108.875563,205.011324 109.162278,202.990824 Z M137.695491,180.390201 C137.982206,180.217015 138.340594,180.014968 138.770666,179.784054 C139.200739,179.553139 139.559127,179.322228 139.845842,179.091314 C141.050045,178.225385 142.397586,177.532653 143.888504,177.013096 C145.379422,176.493539 146.913324,176.2049 148.490256,176.147172 C150.067189,176.089443 151.601091,176.262626 153.092009,176.666726 C154.582927,177.070826 155.930467,177.792422 157.13467,178.831537 C157.7081,179.351094 158.152502,180.433488 158.467888,182.078753 C158.783275,183.724017 158.983972,185.701191 159.069987,188.010334 C159.156001,190.319477 159.184672,192.845064 159.156001,195.587172 C159.127329,198.329279 159.084323,201.100209 159.02698,203.900045 C158.969637,206.69988 158.912294,209.398651 158.854951,211.996436 C158.797608,214.594222 158.826279,216.874467 158.940965,218.837238 C156.93396,219.125881 155.142019,219.255768 153.565086,219.226904 C151.988154,219.19804 150.196212,219.183608 148.189207,219.183608 C148.074521,217.855851 148.017179,216.35493 148.017179,214.680802 C148.017179,213.006673 148.031514,211.274842 148.060186,209.485256 C148.088857,207.69567 148.088857,205.906111 148.060186,204.116526 C148.031514,202.32694 147.959837,200.652836 147.845151,199.094165 C147.787808,198.401422 147.730466,197.63653 147.673123,196.799465 C147.61578,195.962401 147.515431,195.139781 147.372073,194.331581 C147.228716,193.523381 147.028018,192.801785 146.769975,192.166771 C146.511931,191.531756 146.153543,191.041071 145.694799,190.694699 C145.637456,190.636971 145.580114,190.608107 145.522771,190.608107 C145.465428,190.608107 145.408086,190.579243 145.350743,190.521515 C144.891999,190.2906 144.218229,190.102985 143.329412,189.958664 C142.440596,189.814342 141.566128,189.87207 140.705983,190.131849 C139.845838,190.391627 139.071719,190.911177 138.383603,191.690512 C137.695487,192.469848 137.294092,193.638834 137.179406,195.197506 C137.06472,197.218006 137.036049,199.19518 137.093392,201.129087 C137.150735,203.062994 137.222413,204.996872 137.308427,206.930779 C137.394442,208.864687 137.437448,210.784133 137.437448,212.689176 C137.437448,214.594219 137.322764,216.499233 137.093392,218.404276 L137.093392,218.750646 C136.118561,219.039289 135.272765,219.212472 134.555977,219.2702 C133.83919,219.327929 133.108077,219.342361 132.362618,219.313497 C131.617159,219.284632 130.785698,219.241337 129.86821,219.183608 C128.950722,219.125879 127.80388,219.154743 126.427648,219.2702 C126.427648,216.903329 126.413312,214.060239 126.384641,210.740846 C126.355969,207.421453 126.327298,203.856767 126.298627,200.046682 C126.269955,196.236596 126.25562,192.29668 126.25562,188.226815 L126.25562,176.320356 C126.25562,172.452542 126.269955,168.801264 126.298627,165.366414 C126.327298,161.931564 126.370305,158.944155 126.427648,156.404098 C127.115764,156.461827 127.689185,156.505122 128.147929,156.533987 C128.606673,156.562851 129.036739,156.577283 129.43814,156.577283 C129.839541,156.577283 130.269607,156.562851 130.728351,156.533987 C131.187095,156.505122 131.760517,156.461827 132.448632,156.404098 C132.678004,156.404098 133.079399,156.360802 133.652829,156.274209 C134.226259,156.187617 134.799681,156.115457 135.373111,156.057728 C135.946541,156 136.46262,155.985568 136.921364,156.014432 C137.380108,156.043296 137.609477,156.14432 137.609477,156.317506 C137.66682,156.606149 137.695491,157.371041 137.695491,158.612205 L137.695491,180.390201 Z M177.238504,197.275724 L177.238504,198.834388 C177.295847,200.566245 177.367524,201.980574 177.453539,203.077416 C177.539553,204.174259 177.897942,205.242222 178.528715,206.281336 C179.216831,207.609093 180.191647,208.590465 181.453193,209.225479 C182.714739,209.860493 183.947595,210.06254 185.151798,209.831626 C186.356001,209.600712 187.373824,208.893547 188.205297,207.710111 C189.036771,206.526676 189.395159,204.751549 189.280473,202.384677 C189.853903,202.442406 190.628022,202.456838 191.602853,202.427973 C192.577684,202.399109 193.595507,202.355813 194.656352,202.298085 C195.717198,202.240356 196.735021,202.225924 197.709852,202.254788 C198.684683,202.283653 199.487473,202.384676 200.118246,202.557862 C200.00356,204.058805 199.888875,205.530861 199.774189,206.974076 C199.659503,208.41729 199.516148,209.759459 199.344119,211.000624 C199.17209,212.241788 198.957057,213.30975 198.699014,214.204543 C198.44097,215.099336 198.111253,215.719909 197.709852,216.066281 C196.735021,217.451766 195.473494,218.433137 193.925233,219.010423 C192.376972,219.587709 190.685379,219.934075 188.850403,220.049532 C187.015427,220.164989 185.137472,220.164989 183.216481,220.049532 C181.295491,219.934075 179.53222,219.876347 177.926616,219.876347 C176.321012,219.645433 174.830117,219.125884 173.453885,218.317684 C171.905624,217.220841 170.615425,215.79208 169.583252,214.031359 C168.551078,212.270637 167.719617,210.336759 167.088844,208.229666 C166.458071,206.122573 166.028005,203.885624 165.798633,201.518753 C165.569261,199.151881 165.511918,196.785045 165.626604,194.418174 C165.798633,192.282217 165.984995,190.218451 166.185696,188.226815 C166.386396,186.235179 166.830798,184.286869 167.518914,182.381826 C168.264373,180.707698 169.411216,179.278937 170.959477,178.095501 C172.507738,176.912065 174.256673,176.017286 176.206335,175.411136 C178.155997,174.804986 180.220314,174.473052 182.399348,174.415323 C184.578382,174.357594 186.700041,174.588505 188.764389,175.108062 C191.402167,175.569891 193.523826,176.493534 195.12943,177.87902 C196.735034,179.264506 197.953554,180.938609 198.785028,182.901381 C199.616501,184.864152 200.118245,187.028941 200.290274,189.395813 C200.462303,191.762684 200.462303,194.158384 200.290274,196.582984 C199.888873,196.698442 199.129089,196.813897 198.010901,196.929354 C196.892713,197.044811 195.573843,197.160267 194.054254,197.275724 C192.534664,197.391181 190.914749,197.477773 189.194459,197.535501 C187.474169,197.59323 185.825583,197.622094 184.24865,197.622094 C182.671718,197.622094 181.2525,197.59323 179.990954,197.535501 C178.729408,197.477773 177.811934,197.391181 177.238504,197.275724 Z M187.646206,183.853898 C187.187462,183.565255 186.728725,183.348776 186.269981,183.204454 C185.811237,183.060133 185.266486,182.987973 184.635713,182.987973 C183.259481,182.987973 182.14131,183.132293 181.281165,183.420935 C180.42102,183.709578 179.732914,184.113672 179.216827,184.633229 C178.70074,185.152787 178.313681,185.758928 178.055637,186.45167 C177.797594,187.144413 177.611232,187.86601 177.496546,188.616481 C177.38186,189.251495 177.338853,189.698885 177.367525,189.958664 C177.396196,190.218442 177.668571,190.391625 178.184658,190.478218 C178.700745,190.564811 179.517871,190.593675 180.636059,190.564811 C181.754248,190.535946 183.402834,190.521515 185.581868,190.521515 C187.072786,190.521515 188.190958,190.550378 188.936417,190.608107 C189.681876,190.665836 190.212291,190.680267 190.527677,190.651403 C190.843064,190.622539 191.000754,190.535947 191.000754,190.391626 L191.000754,189.482405 C191.000754,188.327834 190.699708,187.231007 190.097607,186.191893 C189.495505,185.152779 188.67838,184.373455 187.646206,183.853898 Z M218.845854,178.744944 C219.075226,178.629487 219.605641,178.398576 220.437114,178.052205 C221.268588,177.705834 222.085713,177.388331 222.888515,177.099688 C223.978032,176.753317 225.210888,176.47911 226.58712,176.27706 C227.963352,176.07501 229.25355,175.945123 230.457753,175.887394 C231.661956,175.829666 232.679779,175.815234 233.511253,175.844098 C234.342726,175.872962 234.758457,175.916258 234.758457,175.973987 C234.758457,177.936758 234.744121,179.668589 234.71545,181.169532 C234.686778,182.670475 234.672443,184.012644 234.672443,185.19608 L234.672443,188.443296 C234.672443,189.424682 234.701114,190.348325 234.758457,191.214254 L233.98433,190.954477 C233.697615,190.839019 233.396569,190.737996 233.081182,190.651403 C232.765796,190.56481 232.46475,190.463787 232.178035,190.34833 C231.489919,190.175144 230.787477,190.030825 230.07069,189.915368 C229.353903,189.79991 228.966843,189.742183 228.9095,189.742183 C227.361239,189.568997 225.942021,189.482405 224.651804,189.482405 C223.361586,189.482405 222.243415,189.684452 221.297255,190.088552 C220.351096,190.492652 219.619983,191.127657 219.103896,191.993586 C218.587809,192.859514 218.358441,194.10066 218.415784,195.71706 C218.473127,197.73756 218.530469,199.642575 218.587812,201.43216 C218.645155,203.221746 218.673826,205.025737 218.673826,206.844187 C218.673826,208.662637 218.688162,210.509924 218.716833,212.386102 C218.745505,214.262281 218.75984,216.268319 218.75984,218.404276 L218.75984,218.750646 C217.785009,219.039289 216.896206,219.212472 216.093404,219.2702 C215.290602,219.327929 214.459141,219.342361 213.598996,219.313497 C212.738851,219.284632 211.807041,219.241337 210.803539,219.183608 C209.800036,219.125879 208.610187,219.154743 207.233955,219.2702 C207.233955,212.169586 207.162277,205.069078 207.01892,197.968463 C206.875562,190.867849 206.918569,183.507566 207.147941,175.887394 C207.836057,175.945123 208.409478,175.988419 208.868222,176.017283 C209.326966,176.046147 209.757032,176.060579 210.158433,176.060579 C210.559834,176.060579 210.9899,176.046147 211.448644,176.017283 C211.907388,175.988419 212.48081,175.945123 213.168926,175.887394 C213.398298,175.887394 213.814028,175.85853 214.41613,175.800802 C215.018231,175.743073 215.648995,175.685346 216.308439,175.627617 C216.967884,175.569888 217.541305,175.555456 218.02872,175.584321 C218.516136,175.613185 218.75984,175.685345 218.75984,175.800802 L218.75984,177.402762 C218.75984,177.547083 218.774176,177.705834 218.802847,177.87902 C218.831519,178.052206 218.845854,178.340844 218.845854,178.744944 Z M254.174178,172.077327 C254.059492,172.192785 253.959143,172.3804 253.873128,172.640178 C253.787114,172.899957 253.715436,173.087572 253.658093,173.203029 C253.543407,173.376215 253.443059,174.38645 253.357044,176.233764 C253.27103,178.081078 253.199352,180.274731 253.142009,182.814788 C253.084666,185.354846 253.055995,187.995888 253.055995,190.737996 C253.055995,193.480103 253.142008,195.861371 253.314037,197.881871 C253.486066,199.555999 253.930468,201.186807 254.647255,202.774343 C255.364043,204.361879 256.553892,205.386546 258.216839,205.848374 C259.478385,205.963831 260.668234,205.776216 261.786423,205.285523 C262.904611,204.79483 263.750408,203.972211 264.323838,202.817639 C264.954611,201.489882 265.226986,200.089985 265.140971,198.617906 C265.054957,197.145828 265.155306,195.688203 265.442021,194.244989 C266.244823,194.360446 267.147961,194.38931 268.151464,194.331581 C269.154966,194.273853 270.172789,194.244989 271.204963,194.244989 C272.237137,194.244989 273.25496,194.273853 274.258463,194.331581 C275.261965,194.38931 276.165104,194.533629 276.967906,194.764543 C277.942737,197.766429 278.200776,200.753838 277.742032,203.72686 C277.283288,206.699881 276.279801,209.369788 274.73154,211.736659 C273.183279,214.103531 271.161969,216.051841 268.667548,217.581648 C266.173128,219.111455 263.349027,219.905211 260.195162,219.96294 C258.130815,220.251583 256.009155,220.266015 253.830121,220.006236 C251.651087,219.746457 249.615442,219.16918 247.723123,218.274387 C245.830804,217.379595 244.239559,216.124017 242.949342,214.507617 C241.659124,212.891217 240.899341,210.870747 240.669969,208.446147 C240.555283,206.367918 240.46927,204.203129 240.411927,201.951715 C240.354584,199.700301 240.311577,197.174713 240.282906,194.374878 C240.254234,191.575042 240.254234,188.400018 240.282906,184.849711 C240.311577,181.299403 240.354584,177.186304 240.411927,172.51029 C240.297241,171.528904 240.340247,170.533101 240.540948,169.522851 C240.741648,168.512601 241.014024,167.574526 241.358082,166.708597 C241.874169,165.207654 242.519268,163.822189 243.293398,162.55216 C244.067529,161.282132 244.999338,160.156442 246.088855,159.175056 C246.719628,158.713227 247.407734,158.323565 248.153193,158.006058 C248.898652,157.688551 249.672771,157.414344 250.475573,157.18343 C253.113351,156.317501 255.722418,155.971135 258.302853,156.144321 C260.883288,156.317507 263.305993,156.909216 265.571042,157.919466 C267.83609,158.929716 269.886072,160.271885 271.721048,161.946013 C273.556024,163.620142 275.018248,165.539588 276.107765,167.70441 C277.197282,169.869231 277.856717,172.221635 278.086089,174.761693 C278.315461,177.30175 277.971408,179.899497 277.05392,182.555011 C274.932229,183.01684 272.853576,183.175591 270.8179,183.03127 C268.782223,182.886948 266.6749,182.612741 264.495866,182.208641 C264.323837,181.111799 264.223488,179.870653 264.194817,178.485167 C264.166145,177.099681 264.008454,175.81524 263.721739,174.631804 C263.435024,173.448368 262.904609,172.481429 262.130479,171.730958 C261.356349,170.980486 260.137828,170.63412 258.474881,170.691849 C257.729422,170.807306 256.940968,170.951625 256.109494,171.124811 C255.278021,171.297996 254.632922,171.615499 254.174178,172.077327 Z M285.373826,179.524276 C285.775227,178.658348 286.420326,177.907887 287.309143,177.272873 C288.197959,176.637859 289.230118,176.103878 290.405649,175.670913 C291.58118,175.237949 292.842708,174.934878 294.190268,174.761693 C295.537828,174.588507 296.899704,174.501915 298.275936,174.501915 C299.422796,174.617373 300.526632,174.631805 301.587478,174.545212 C302.648323,174.458619 303.780831,174.473051 304.985034,174.588508 C306.82001,174.703965 308.568945,175.064763 310.231892,175.670913 C311.894839,176.277063 313.328392,177.157411 314.532595,178.311982 C315.335397,178.831539 315.966161,179.668591 316.424905,180.823163 C316.883649,181.977734 317.227701,183.319903 317.457073,184.849711 C317.686445,186.379518 317.829801,188.053621 317.887144,189.872071 C317.944487,191.690521 318.001829,193.55224 318.059172,195.457283 C318.001829,197.131411 317.930151,199.036426 317.844137,201.172383 C317.758122,203.30834 317.614767,205.357674 317.414066,207.320445 C317.213366,209.283217 316.955326,211.043912 316.63994,212.602583 C316.324553,214.161255 315.880152,215.229218 315.306722,215.806503 C314.331891,217.191989 313.056028,218.17336 311.479096,218.750646 C309.902163,219.327932 308.196235,219.68873 306.361259,219.833051 C304.526283,219.977373 302.633992,219.977373 300.68433,219.833051 C298.734668,219.68873 296.957062,219.61657 295.351458,219.61657 C292.426965,219.097013 289.961253,217.827003 287.954248,215.806503 C286.405987,214.421018 285.345158,212.689186 284.771728,210.610958 C284.198298,208.532729 283.854245,206.353508 283.739559,204.073229 C283.624873,201.792951 283.610537,199.498274 283.696552,197.189131 C283.782566,194.879988 283.73956,192.772927 283.567531,190.867884 C283.567531,189.82877 283.596202,188.804103 283.653545,187.793853 C283.710888,186.783603 283.825572,185.730072 283.997601,184.633229 C284.054944,183.998215 284.255641,183.146731 284.599699,182.078753 C284.943757,181.010774 285.201797,180.159291 285.373826,179.524276 Z M296.125585,189.742183 C295.781527,189.973097 295.523487,190.550374 295.351458,191.474031 C295.122086,193.321346 295.007402,195.1542 295.007402,196.97265 C295.007402,198.7911 294.95006,200.710547 294.835374,202.731047 C294.778031,204.058804 295.122083,205.083471 295.867542,205.805078 C296.613001,206.526685 297.51614,207.017371 298.576985,207.277149 C299.637831,207.536928 300.741667,207.594655 301.888527,207.450334 C303.035387,207.306013 303.981532,207.031806 304.726991,206.627706 C305.701822,206.165877 306.361257,205.21337 306.705315,203.770156 C306.934687,201.922842 307.121049,200.061123 307.264406,198.184944 C307.407764,196.308766 307.307415,194.533639 306.963357,192.85951 C306.676642,190.83901 305.845181,189.366953 304.468949,188.443296 C303.092717,187.519639 301.28644,187.317592 299.050063,187.837149 C297.84586,188.183521 296.871044,188.818525 296.125585,189.742183 Z M336.528738,180.390201 C336.815453,180.217015 337.173842,180.014968 337.603914,179.784054 C338.033986,179.553139 338.392375,179.322228 338.67909,179.091314 C339.883293,178.225385 341.230833,177.532653 342.721751,177.013096 C344.212669,176.493539 345.746571,176.2049 347.323504,176.147172 C348.900436,176.089443 350.434338,176.262626 351.925256,176.666726 C353.416174,177.070826 354.763715,177.792422 355.967918,178.831537 C356.541348,179.351094 356.985749,180.433488 357.301136,182.078753 C357.616522,183.724017 357.81722,185.701191 357.903234,188.010334 C357.989249,190.319477 358.01792,192.845064 357.989248,195.587172 C357.960577,198.329279 357.91757,201.100209 357.860227,203.900045 C357.802884,206.69988 357.745542,209.398651 357.688199,211.996436 C357.630856,214.594222 357.659527,216.874467 357.774213,218.837238 C355.767208,219.125881 353.975266,219.255768 352.398334,219.226904 C350.821401,219.19804 349.029459,219.183608 347.022454,219.183608 C346.907768,217.855851 346.850426,216.35493 346.850426,214.680802 C346.850426,213.006673 346.864762,211.274842 346.893433,209.485256 C346.922105,207.69567 346.922105,205.906111 346.893433,204.116526 C346.864762,202.32694 346.793084,200.652836 346.678398,199.094165 C346.621055,198.401422 346.563713,197.63653 346.50637,196.799465 C346.449027,195.962401 346.348678,195.139781 346.205321,194.331581 C346.061963,193.523381 345.861266,192.801785 345.603222,192.166771 C345.345179,191.531756 344.98679,191.041071 344.528046,190.694699 C344.470703,190.636971 344.413361,190.608107 344.356018,190.608107 C344.298675,190.608107 344.241333,190.579243 344.18399,190.521515 C343.725246,190.2906 343.051476,190.102985 342.16266,189.958664 C341.273843,189.814342 340.399376,189.87207 339.539231,190.131849 C338.679086,190.391627 337.904967,190.911177 337.216851,191.690512 C336.528735,192.469848 336.12734,193.638834 336.012654,195.197506 C335.897968,197.218006 335.869297,199.19518 335.92664,201.129087 C335.983983,203.062994 336.05566,204.996872 336.141675,206.930779 C336.227689,208.864687 336.270696,210.784133 336.270696,212.689176 C336.270696,214.594219 336.156012,216.499233 335.92664,218.404276 L335.92664,218.750646 C334.951809,219.039289 334.106012,219.212472 333.389225,219.2702 C332.672437,219.327929 331.941325,219.342361 331.195866,219.313497 C330.450407,219.284632 329.618946,219.241337 328.701458,219.183608 C327.78397,219.125879 326.637127,219.154743 325.260895,219.2702 C325.260895,212.169586 325.189218,205.069078 325.04586,197.968463 C324.902503,190.867849 324.945509,183.507566 325.174881,175.887394 C325.862997,175.945123 326.436419,175.988419 326.895163,176.017283 C327.353907,176.046147 327.783973,176.060579 328.185374,176.060579 C328.586775,176.060579 329.016841,176.046147 329.475585,176.017283 C329.934329,175.988419 330.50775,175.945123 331.195866,175.887394 C331.425238,175.887394 331.826633,175.844098 332.400063,175.757506 C332.973493,175.670913 333.546914,175.598753 334.120344,175.541025 C334.693774,175.483296 335.209853,175.468864 335.668597,175.497728 C336.127341,175.526593 336.35671,175.627616 336.35671,175.800802 C336.471396,176.782188 336.514403,177.590376 336.485731,178.22539 C336.45706,178.860404 336.471395,179.582 336.528738,180.390201 Z" id="GopherCon-Copy" fill="#E74861"></path>
                <g id="Group-2-Copy" transform="translate(40.000000, 231.000000)" fill="#38BEBD">
                    <path d="M39.7014385,19.6149333 L39.6156903,19.6149333 C37.6148879,19.9591128 35.4712031,20.1742218 33.1845717,20.2602667 C30.8979404,20.3463115 28.7542556,20.1025214 26.7534532,19.5288889 C27.0964479,17.9800811 26.7820408,16.6894274 25.8102225,15.6568889 C24.8384041,14.6243504 23.6665231,13.9646829 22.2945443,13.6778667 C20.9225655,13.3910504 19.593481,13.5344564 18.3072508,14.1080889 C17.0210207,14.6817214 16.2635854,15.7716068 16.0349223,17.3777778 C15.9205907,17.7793205 15.877717,18.1665167 15.9062999,18.5393778 C15.9348828,18.9122389 15.9777565,19.299435 16.0349223,19.7009778 C16.4922485,21.0776958 17.2353926,21.995494 18.2643767,22.4544 C19.2933608,22.913306 20.4080769,23.2287991 21.6085583,23.4008889 C24.6383449,23.7450684 27.4537175,24.720229 30.0547607,26.3264 C32.6558039,27.932571 34.7851974,29.9689358 36.4430051,32.4355556 C37.4719893,33.7549103 38.2437158,35.1746294 38.7582078,36.6947556 C39.2726999,38.2148817 39.5728157,39.7780068 39.6585644,41.3841778 C39.7443131,42.9903488 39.6299832,44.6108363 39.3155714,46.2456889 C39.0011596,47.8805415 38.5009665,49.4436666 37.8149771,50.9351111 C37.1289877,52.7133719 36.2143489,54.2334752 35.0710332,55.4954667 C33.9277175,56.7574582 32.6272154,57.7899812 31.1694879,58.5930667 C29.7117604,59.3961522 28.139725,59.9841167 26.4533343,60.3569778 C24.7669437,60.7298389 23.0377047,60.8875855 21.2655654,60.8302222 C18.7502709,60.772859 16.2493053,60.3283005 13.7625937,59.4965333 C11.2758821,58.6647662 9.06074119,57.5031778 7.11710453,56.0117333 C5.17346787,54.5202888 3.63001486,52.699033 2.48669917,50.5479111 C1.34338349,48.3967892 0.857481616,45.9445471 1.02897897,43.1911111 L1.02897897,42.6748444 C3.02978141,42.3880282 5.23063109,42.3163252 7.63159402,42.4597333 C10.0325569,42.6031415 12.2048242,42.6461632 14.1484608,42.5888 C14.2627924,44.424424 14.9916452,45.8011213 16.3350411,46.7189333 C17.6784371,47.6367453 19.1075602,48.0813038 20.6224535,48.0526222 C22.1373468,48.0239406 23.4521401,47.5220197 24.5668729,46.5468444 C25.6816057,45.5716692 26.0674689,44.0802471 25.7244742,42.0725333 C25.5529769,40.6958153 25.0384925,39.5915893 24.1810058,38.7598222 C23.323519,37.9280551 22.3088416,37.254047 21.136943,36.7377778 C19.9650444,36.2215085 18.6931248,35.8343124 17.321146,35.5761778 C15.9491672,35.3180432 14.6629563,35.074253 13.4624748,34.8448 C12.3191592,34.615347 11.261608,34.2424915 10.2897897,33.7262222 C9.31797136,33.209953 8.43191499,32.6076479 7.63159402,31.9192889 C5.00196795,29.3953059 3.30131138,26.61323 2.5295733,23.5729778 C1.75783521,20.5327255 1.71496152,17.5785625 2.40095093,14.7104 C3.08694034,11.8422375 4.38744242,9.2322488 6.30249618,6.88035556 C8.21754995,4.52846231 10.5470207,2.77890944 13.2909783,1.63164444 C14.6629572,1.05801195 16.1778277,0.670815819 17.8356355,0.470044444 C19.4934432,0.26927307 21.1655173,0.211910681 22.8519079,0.297955556 C24.5382986,0.38400043 26.1960814,0.627790585 27.8253063,1.02933333 C29.4545311,1.43087608 30.9551104,1.94713759 32.3270893,2.57813333 C35.0710469,4.01221458 37.1861492,6.13462298 38.6724596,8.94542222 C40.15877,11.7562215 40.5017595,15.3126896 39.7014385,19.6149333 Z M55.1127372,40.7818667 C55.1127372,43.7073924 55.9702111,46.2026563 57.6851846,48.2677333 C58.7141687,49.5297248 60.086127,50.2897765 61.8011005,50.5479111 C63.516074,50.8060457 65.116692,50.7056616 66.6030023,50.2467556 C67.1174944,50.0746658 67.5176489,49.8021945 67.8034778,49.4293333 C68.0893067,49.0564722 68.3179664,48.6262543 68.4894638,48.1386667 C68.6609611,47.651079 68.7895822,47.1348175 68.8753309,46.5898667 C68.9610796,46.0449158 69.0325357,45.5143137 69.0897015,44.9980444 C69.0897015,42.7035145 69.0468278,40.3659971 68.9610791,37.9854222 C68.8753305,35.6048474 68.5466321,33.3246924 67.9749743,31.1448889 C67.6319796,30.2844401 67.0746216,29.6104321 66.3028835,29.1228444 C65.5311454,28.6352568 64.6879627,28.3341043 63.7733102,28.2193778 C62.8586576,28.1046513 61.95831,28.1763543 61.0722404,28.4344889 C60.1861707,28.6926235 59.400153,29.1085008 58.7141636,29.6821333 C57.8566768,30.6573086 57.127824,31.7328534 56.5275833,32.9088 C55.9273425,34.0847466 55.5128968,35.3323786 55.2842337,36.6517333 C55.1699021,37.2253658 55.1127372,37.7846491 55.1127372,38.3296 L55.1127372,40.7818667 Z M69.947184,77.6088889 C69.3755261,77.7236154 68.3465575,77.7522966 66.8602471,77.6949333 C65.3739367,77.6375701 63.4589117,77.6088889 61.1151145,77.6088889 C58.4283227,77.6088889 56.0273957,77.035265 53.9122617,75.888 C51.7971277,74.740735 50.0821799,73.1919505 48.7673669,71.2416 C48.5387037,70.8400573 48.3243353,70.3094552 48.124255,69.6497778 C47.9241748,68.9901004 47.75268,68.3160923 47.6097655,67.6277333 C47.4668511,66.9393743 47.3811037,66.2797069 47.3525208,65.6487111 C47.3239379,65.0177154 47.3382291,64.4727727 47.3953949,64.0138667 C47.9670528,63.7844137 48.7387793,63.6266671 49.7105976,63.5406222 C50.6824159,63.4545773 51.6970934,63.4258962 52.7546604,63.4545778 C53.8122274,63.4832594 54.8411961,63.5406218 55.8415973,63.6266667 C56.8419985,63.7127115 57.6851812,63.8130957 58.3711706,63.9278222 C58.3711706,65.4192667 58.8427812,66.6095363 59.7860167,67.4986667 C60.7292521,68.387797 61.7868032,68.8897179 62.9587018,69.0044444 C64.1306004,69.1191709 65.2738989,68.832359 66.3886317,68.144 C67.5033645,67.455641 68.2322173,66.3083932 68.575212,64.7022222 C68.6323778,64.1285897 68.6895427,63.5406252 68.7467085,62.9383111 C68.8038743,62.335997 68.8038743,61.8053949 68.7467085,61.3464889 C68.632377,60.3713136 68.632377,59.3674718 68.7467085,58.3349333 C68.1750507,58.9659291 67.5033628,59.4248282 66.7316247,59.7116444 C65.9598866,59.9984607 65.1309952,60.1992291 64.2449255,60.3139556 C63.3588559,60.4286821 62.4585083,60.4860444 61.5438557,60.4860444 C60.6292032,60.4860444 59.7717293,60.5147256 58.9714083,60.5720889 C57.8852584,60.5720889 56.7848336,60.4860453 55.6701008,60.3139556 C54.555368,60.1418658 53.4978169,59.8550539 52.4974156,59.4535111 C51.4970144,59.0519684 50.5966668,58.5070257 49.7963458,57.8186667 C48.9960249,57.1303077 48.3386282,56.2411906 47.8241362,55.1512889 C47.0238152,53.6024811 46.4521659,51.9819936 46.1091712,50.2897778 C45.7661765,48.5975619 45.5375168,46.8623496 45.4231852,45.0840889 C45.4231852,42.3880161 45.4803502,39.4912155 45.5946817,36.3936 C45.7090133,33.2959845 46.2092064,30.3848433 47.0952761,27.6600889 C47.9813457,24.9353345 49.3961776,22.640839 51.3398143,20.7765333 C53.283451,18.9122277 56.0845324,17.8653641 59.7431425,17.6359111 C61.5724476,17.5211846 63.2731042,17.7649748 64.8451633,18.3672889 C66.4172223,18.969603 67.5462296,20.073829 68.232219,21.68 C68.4608822,21.7947265 68.5895033,21.6943423 68.6180862,21.3788444 C68.646669,21.0633466 68.646669,20.6618098 68.6180862,20.1742222 L68.5323379,18.7114667 C68.503755,18.223879 68.5752112,17.8366829 68.7467085,17.5498667 C70.6331794,17.3204137 72.5482044,17.2487107 74.4918411,17.3347556 C76.4354778,17.4208004 78.3790853,17.4638222 80.3227219,17.4638222 C80.5513851,24.6342284 80.6800061,32.1343608 80.708589,39.9644444 C80.7371719,47.794528 80.5799684,55.8396031 80.2369737,64.0999111 C80.1798079,65.4766291 80.1798079,66.8389859 80.2369737,68.1870222 C80.2941395,69.5350586 80.0368973,70.6679658 79.4652394,71.5857778 C78.6649185,72.8477693 77.8503183,73.8516111 77.0214144,74.5973333 C76.1925105,75.3430556 75.3779103,75.9310201 74.5775893,76.3612444 C73.7772684,76.7914688 72.9769594,77.0926214 72.1766384,77.2647111 C71.3763174,77.4368009 70.6331734,77.5515256 69.947184,77.6088889 Z" id="Sg"></path>
                </g>
                <path d="M157.223908,144.083924 C136.634064,136.001893 126.384064,143.814393 112.274689,152.165955 C98.1653144,160.517518 95.2942207,164.001893 68.3801582,160.517518 C41.4660957,157.033143 60.9934394,148.997987 27.0168769,144.083924 C-6.95968557,139.169862 19.1067207,93.9511117 27.0168769,75.1073617 C34.9270332,56.2636117 53.1483623,43.5057992 68.3801582,32.8729867 C83.6119541,22.2401742 124.157502,8.82220549 145.552033,4.89642424 C166.946564,0.970642993 230.153596,-3.81060701 249.536408,4.89642424 C268.919221,13.6034555 279.973908,19.7323617 290.622346,25.4901742 C296.055881,28.4281901 319.975154,44.3886062 328.278596,59.4159555 C336.247925,73.8386373 345.70544,100.616567 347.805939,107.068299 C352.095002,120.242252 361.544221,148.435487 344.805939,156.517518 C328.067658,164.599549 315.598908,164.86908 300.204377,156.517518 C284.809846,148.165955 280.766877,144.083924 256.438752,144.083924 C232.110627,144.083924 231.231721,165.880799 205.106721,156.517518 C178.981721,147.154237 177.813752,152.165955 157.223908,144.083924 Z" id="Path-16" fill="#9CD7D9"></path>
            </g>
            <g id="Group-5-Copy" transform="translate(99.000000, 15.000000)">
                <path d="M91.5053099,211.41 C66.9573099,207.855 49.6313099,196.297 38.0383099,182.975 C27.9683099,171.403 22.2823099,153.231 23.4873099,136.098 L23.7243099,132.724 L20.6543099,134.142 C20.6333099,134.151 17.7693099,135.417 13.2303099,135.417 C11.7393099,135.417 10.2153099,135.281 8.70230989,135.012 C3.64130989,134.114 1.61130989,130.595 1.86530989,127.707 C2.19930989,123.916 6.32530989,120.091 14.7903099,120.091 C17.3713099,120.091 19.7593099,120.504 21.8893099,121.317 L24.9753099,122.495 L24.5893099,119.215 C24.0823099,114.905 24.5463099,110.349 25.9693099,105.674 L26.3933099,104.282 L25.2003099,103.45 C16.3393099,97.278 7.06530989,88.63 5.45230989,71.292 C3.14130989,46.447 20.6053099,32.169 33.7453099,29.967 L38.1443099,29.732 L38.3843099,28.333 C39.0923099,24.22 41.0543099,18.186 46.3863099,12.803 C53.0163099,6.109 60.0703099,4.223 73.2703099,3.253 C75.5543099,3.085 77.8063099,3 79.9623099,3 C114.48131,3 121.79831,22.027 123.21931,28.472 L123.76431,30.944 L126.04231,29.842 C133.33131,26.318 140.41531,24.531 147.09331,24.531 C157.38831,24.531 167.19431,28.799 176.23931,37.217 C199.86631,59.208 189.16731,79.97 183.47131,87.876 L182.90831,88.658 L183.16831,89.586 C184.49431,94.3 184.59131,99.999 183.45831,106.527 C181.11431,120.038 170.22031,130.635 151.08131,138.026 C149.24331,139.154 147.65831,139.992 146.01231,140.699 L145.26431,141.021 L144.95431,141.775 C143.59931,145.059 140.75431,153.353 143.56931,159.417 C144.86431,162.205 147.13831,164.138 150.33231,165.163 C152.56231,165.879 155.17031,166.258 157.87631,166.258 C163.85331,166.258 170.28531,164.38 171.17831,160.184 C171.45731,158.873 171.16231,157.595 170.34431,156.586 C168.48731,154.291 164.62731,154.113 163.48931,154.113 C163.10331,154.113 162.61931,154.129 162.09831,154.186 C162.29231,150.659 163.65631,144.394 170.66831,142.499 C172.57131,141.986 174.41531,141.725 176.15231,141.725 C183.06731,141.725 186.58631,145.685 188.06931,148.046 C190.28331,151.57 190.75731,155.83 189.27831,158.9 L188.17131,161.195 L190.66431,161.724 C190.68831,161.729 193.51431,162.357 196.39531,164.159 C200.04031,166.44 202.09731,169.488 202.50731,173.218 C203.00831,177.771 202.05031,181.432 199.66131,184.099 C195.80431,188.403 189.57631,188.882 187.41531,188.911 C188.55131,186.754 189.07931,184.084 188.35231,181.764 C187.77031,179.91 185.88031,176.799 179.75931,176.799 C178.63731,176.799 177.39731,176.904 176.07431,177.111 C168.68431,178.268 161.62828,182.023129 154.67731,188.095 C143.03831,198.262 128.55231,212.426 105.02531,212.427 C100.70831,212.427 96.1623099,212.085 91.5053099,211.41 Z" id="Page-1" fill="#FFFFFF"></path>
                <polygon id="Path-20" fill="#DEDDDC" points="143.263672 54.6162109 151.672852 65.8779297 159.251953 60.5732422 172.098633 57.1542969 183.401367 58.9926758 188.49707 64.5566406 190.986328 72.7783203 189.509766 55.8300781 181.070312 47.8134766 165.233398 45.2070312 154.166016 47.8134766"></polygon>
                <path d="M93.0148368,31.3738452 L79.6201172,31.3738452 L75.8808594,22.9181494 L66.1695278,14.3618164 L56.1767578,13.4428711 C51.3242741,14.8337127 48.1224512,16.1499562 46.5712891,17.3916016 C45.0201269,18.633247 44.1842196,18.1902531 44.0635671,16.06262 L54.3006028,7.4983647 L70.1554052,7.4983647 L84.0467478,12.4497614 L93.0148368,31.3738452 Z" id="Path-22" fill="#DEDDDC"></path>
                <polygon id="Path-15" fill="#DEDDDC" points="34.3183594 41.9228516 37.1271972 48.6013218 41.3046875 51.7323957 30.0270988 55.0228846 20.6481836 67.6534569 18.3938921 80.7132234 23.0966343 94.5373643 27.3047813 103.822266 18.3938921 94.5373643 12.9003906 80.7132234 12.9003906 66.5908203 23.0966343 48.6013218"></polygon>
                <polygon id="Path-14" fill="#DEDDDC" points="173.807617 110.886719 166.691406 131.339844 159.646484 134.309082 165.24707 121.291504 164.326172 110.886719 160.188477 101.22168 162.867188 97.9960938 171.580078 92.1464844"></polygon>
                <path d="M150.893415,68.1266741 L148.731585,62.3303571 L136.810268,48.8632812 L118.455915,38.5530134 L99.4927455,33.3420759 L79.0050223,32.078125 L64.2675781,35.6679688 L56.0605469,25.5429688 L40.1004464,28.0546875 C36.0161642,34.2834531 34.1123323,38.8785052 34.3889509,41.8398438 C34.6655694,44.8011823 37.36144,48.6852969 42.4765625,53.4921875 L36.375558,64.046875 L34.3889509,79.5959821 L40.1004464,92.0535714 L51.4129464,100.738281 L66.3733259,111.41183 L72.9162946,122.156808 L76.031808,134.805246 L76.031808,141.138951 L87.624442,130.795201 L101.869978,126.118862 L115.512277,126.118862 L132.045759,128.767857 L144.137835,127.398438 L151.893415,120.938058 L155.513393,108.034598 L156.513393,100.664062 L173.392578,90.0351562 L173.392578,75.8261719 L163.242187,67.7636719 L150.893415,68.1266741 Z" id="Path-10" fill="#9CD7D9"></path>
                <path d="M88.1621094,165.193359 C98.4118272,190.142532 113.282502,201.578226 132.774134,199.500442 C162.011582,196.383765 156.953125,179.630981 175.652344,177.452209 C188.11849,175.999695 192.533854,179.69401 188.898438,188.535156 C195.014974,190.235026 198.073242,187.146159 198.073242,179.268555 C198.073242,171.390951 192.383656,167.032552 181.004485,166.193359 C184.328969,164.352214 184.875,159.688477 182.642578,152.202148 C179.293945,140.972656 161.708984,141.278616 163.59375,154.867187 C172.974609,154.867187 175.833984,162.770847 166.244141,165.193359 C156.654297,167.615872 142.146484,169.554687 142.730469,148.824219 C143.119792,135.003906 143.119792,132.386719 142.730469,140.972656 L116.677734,148.824219 L88.1621094,165.193359 Z" id="Path-13" fill="#DEDDDC"></path>
                <polygon id="Path-12" fill="#9CD7D9" points="138.172852 143.482422 129.319336 153.21875 109.432617 162.192383 105.849609 172.543945 99.0966797 180.65918 89.328125 180.65918 86.3935547 172.543945 89.328125 164.112305 91.9951172 162.192383 73.0947266 160.569336 49.1796875 153.21875 30.84375 140.303711 23.5224609 134.283203 12.2441406 135.786133 5.06347656 131.708984 3.96386719 124.577148 10.7285156 120.443359 26.0634766 122.220703 27.7988281 104.488281 39.2382812 112.27832 50.5283203 123.294922 54.1875 134.283203 54.1875 140.303711 71.0683594 148.526367 91.9951172 151.730469 96.3310547 150.174805 103.987305 143.482422"></polygon>
                <path d="M15.5458466,118.425472 C25.8789181,118.425472 31.1125397,124.550567 31.1125397,127.344858 C21.5085937,121.644555 7.53430913,121.285371 6.46826699,128.288355 C5.401905,135.29164 22.1884218,133.1324 25.6002045,131.84905 C27.9008469,133.620943 53.9714718,159.90218 95.3382568,160.102368 C92.9571167,164.153853 93.1861814,162.189023 90.0823975,164.881969 C79.634033,163.881628 53.2939087,162.703614 27.959587,140.90309 C27.959587,140.90309 22.247162,197.201172 89.9732908,208.503639 C141.132698,217.041372 154.482298,176.262337 178.896133,174.350419 C191.356303,173.374627 193.309584,182.063113 190.912109,186.342241 C196.534607,185.200203 200.028406,181.138688 200.028406,174.350419 C200.028406,168.527096 191.978151,163.10369 186.860637,162.703614 C186.860637,162.703614 193.040675,145.306724 175.34623,144.91145 C166.390581,144.711562 164.897866,152.915075 164.897866,152.915075 C164.897866,152.915075 173.853515,152.499119 173.853515,159.90248 C173.853515,167.305541 154.937904,174.958612 143.423498,164.153853 C136.311432,157.480113 141.507275,143.120681 141.507275,143.120681 L147.962549,141.939929 C147.962549,141.939929 139.544156,159.691603 151.698252,163.593322 C158.736433,165.852717 169.12465,164.104031 169.977356,160.102368 C170.830382,156.100406 162.399182,155.80903 160.906787,157.209747 C160.906787,157.209747 159.329676,144.029211 170.902185,140.90309 C187.971936,136.291981 195.885808,151.698667 191.834656,160.102368 C191.834656,160.102368 204.082324,162.703614 205.251416,173.333778 C207.067743,189.849034 190.912109,192.362427 184.273137,190.884581 C187.901184,188.362059 191.2562,177.210361 177.138464,179.421002 C156.747162,182.613996 139.507275,220.898247 89.9732908,213.724109 C36.7832829,206.02046 19.9027771,169.632884 22.247162,136.291981 C22.247162,136.291981 16.9970262,138.716528 9.10741882,137.315811 C-3.36684149,135.101435 -2.86482239,118.425472 15.5458466,118.425472 Z" id="Fill-1" fill="#414142"></path>
                <path d="M79.880789,86.761183 C67.2980569,86.761183 57.7835229,76.5694111 57.7835229,63.9969575 C57.7835229,51.4248447 67.2980569,41.2330728 79.880789,41.2330728 C92.4635211,41.2330728 102.663763,51.4248447 102.663763,63.9969575 C102.663763,76.5694111 92.4635211,86.761183 79.880789,86.761183 M80.2126781,36.7804878 C65.3694463,36.7804878 53.3366745,48.8030451 53.3366745,63.6343233 C53.3366745,78.4648935 65.3694463,90.4878049 80.2126781,90.4878049 C95.0555537,90.4878049 107.088325,78.4648935 107.088325,63.6343233 C107.088325,48.8030451 95.0555537,36.7804878 80.2126781,36.7804878" id="Fill-4" fill="#414142"></path>
                <path d="M79.880789,86.761183 C67.2980569,86.761183 57.7835229,76.5694111 57.7835229,63.9969575 C57.7835229,51.4248447 67.2980569,41.2330728 79.880789,41.2330728 C92.4635211,41.2330728 102.663763,51.4248447 102.663763,63.9969575 C102.663763,76.5694111 92.4635211,86.761183 79.880789,86.761183" id="Path" fill="#FFFFFF"></path>
                <path d="M90.2068986,70.097561 C90.2068986,75.2230418 86.0484618,79.3780488 80.91875,79.3780488 C75.7890382,79.3780488 71.6306014,75.2230418 71.6306014,70.097561 C71.6306014,64.9720801 75.7890382,60.8170732 80.91875,60.8170732 C86.0484618,60.8170732 90.2068986,64.9720801 90.2068986,70.097561" id="Fill-6" fill="#414142"></path>
                <path d="M87,72.6523065 C87,74.1071811 85.8196221,75.2865854 84.3635466,75.2865854 C82.907471,75.2865854 81.7270932,74.1071811 81.7270932,72.6523065 C81.7270932,71.1974319 82.907471,70.0180276 84.3635466,70.0180276 C85.8196221,70.0180276 87,71.1974319 87,72.6523065" id="Fill-6" fill="#FFFFFF"></path>
                <path d="M134.54983,112.370521 C122.090421,112.370521 111.650391,101.937039 111.650391,89.4876341 C111.650391,77.0385706 122.090421,66.9466554 134.54983,66.9466554 C147.009579,66.9466554 157.109874,77.0385706 157.109874,89.4876341 C157.109874,101.937039 147.009579,112.370521 134.54983,112.370521 M134.549824,62.6341463 C119.706852,62.6341463 107.674175,74.656854 107.674175,89.4876275 C107.674175,104.318756 119.706852,116.341463 134.549824,116.341463 C149.392795,116.341463 161.425825,104.318756 161.425825,89.4876275 C161.425825,74.656854 149.392795,62.6341463 134.549824,62.6341463" id="Fill-10" fill="#414142"></path>
                <path d="M134.54983,112.370521 C122.090421,112.370521 111.650391,101.937039 111.650391,89.4876341 C111.650391,77.0385706 122.090421,66.9466554 134.54983,66.9466554 C147.009579,66.9466554 157.109874,77.0385706 157.109874,89.4876341 C157.109874,101.937039 147.009579,112.370521 134.54983,112.370521" id="Path" fill="#FFFFFF"></path>
                <path d="M36.4644167,32.6294154 C36.4644167,32.6294154 35.5225436,3.68806272 75.3970224,0.758864731 C119.789086,-2.50269861 129.317008,26.8782662 126.068816,40.1270599 L122.38764,38.9038491 C122.38764,38.9038491 125.628793,5.54087843 76.5567341,5.54087843 C55.6017644,5.54087843 44.2600772,17.3422691 41.2285397,31.2026682 L36.4644167,32.6294154 Z" id="Fill-12" fill="#414142"></path>
                <path d="M48.8396965,10.7785067 C52.8424512,9.7927785 57.0575068,8.40176583 61.4848633,6.60546875 C79.6922201,4.6015625 90.7545573,13.0252314 94.671875,31.8764755 C93.1907178,31.8764755 91.6766551,31.8764755 90.1296868,31.8764755 C86.3087833,5.54103776 62.984375,6.17431641 55.1171875,10.7785067 C49.8723958,13.847967 47.7798988,13.847967 48.8396965,10.7785067 Z" id="Fill-12" fill="#414142"></path>
                <path d="M62.7309868,106.038009 C80.755209,117.901303 77.8264799,136.927297 77.8264799,136.927297 C77.8264799,136.927297 88.0777077,119.356137 118.71919,125.175809 C149.360334,130.995817 149.087603,121.985784 153.753765,104.918596 L158.034658,94.3983287 C158.034658,94.3983287 160.062395,120.810971 149.022377,127.302493 C137.982698,133.793679 130.049512,130.491511 118.333582,129.372433 C106.617651,128.253356 88.6410808,124.392489 76.0238211,147 L72.4191794,145.880923 C72.4191794,145.880923 77.6841849,122.162116 60.716946,110.782443 C43.749707,99.4027709 27.5680261,88.5125249 32.0898427,69.7762769 C42.308621,27.4345414 89.2446707,21.9802924 123.563117,38.6627036 C158.212423,55.5059424 155.556424,80.296544 155.556424,80.296544 L152.627357,75.8198989 C152.627357,75.8198989 146.508997,52.637908 121.084884,41.7963216 C64.2605769,17.5654265 38.5758996,55.8416992 37.0463095,72.2383814 C35.5694406,88.0693134 44.7067645,94.1743789 62.7309868,106.038009 Z" id="Fill-15" fill="#414142"></path>
                <polygon id="Path-11" fill="#FFFFFF" points="97.5377604 110.794922 94.0442708 117.057943 90.4466146 118.899089 86.4654948 118.899089 84.0364583 117.057943 82.6139323 113.408203 82.6139323 109.68099 85.0800781 104.699219 91.6471354 106.250651"></polygon>
                <path d="M93.898483,107.944037 C93.898483,107.944037 94.5237223,108.901621 95.2447851,110.094048 C95.2447851,110.094048 94.4290002,112.947072 92.7970632,115.152474 C91.2062459,117.302485 89.0034063,118.44066 86.9228243,117.302485 C85.1756053,116.346419 82.0479193,114.480951 86.4535985,105.375557 C86.4535985,105.375557 87.0068783,105.337997 87.8391846,105.414634 L83.1266276,104.115234 C81.7803255,107.529757 78.328776,116.870117 84.9739583,120.172852 C91.336287,123.335004 96.287811,116.944918 98.2457682,112.645275 L93.898483,107.944037 Z" id="Fill-23" fill="#414142"></path>
                <path d="M104.569959,105.06421 C104.209232,108.634149 101.804627,109.586251 99.6402659,109.70513 C97.4755443,109.824009 96.6339686,107.325052 92.3052469,105.183089 C87.9765251,103.041125 85.8121642,104.112107 84.1286522,102.446373 C82.4455009,100.780283 83.2870765,96.3774771 87.2550715,94.8302656 C91.2230664,93.283411 94.229003,94.3543927 98.1969979,96.0204832 C103.497518,98.2459832 104.930685,101.494271 104.569959,105.06421 M99.6080793,92.1926009 C96.1073801,90.4603645 94.4822966,90.2131673 88.8565748,90.9555013 C82.0006951,91.8600352 77.6051311,98.8736069 80.8556732,103.822377 C83.605526,108.009511 86.2814944,105.442521 90.9819725,107.905214 C95.2323928,110.132216 94.8573447,112.854354 99.1077651,113.472719 C103.35856,114.091454 107.52197,111.435754 108.359077,106.049379 C109.109173,101.224208 107.72187,96.2075143 99.6080793,92.1926009" id="Fill-21" fill="#414142"></path>
                <path d="M104.569959,105.06421 C104.209232,108.634149 101.804627,109.586251 99.6402659,109.70513 C97.4755443,109.824009 96.6339686,107.325052 92.3052469,105.183089 C87.9765251,103.041125 85.8121642,104.112107 84.1286522,102.446373 C82.4455009,100.780283 83.2870765,96.3774771 87.2550715,94.8302656 C91.2230664,93.283411 94.229003,94.3543927 98.1969979,96.0204832 C103.497518,98.2459832 104.930685,101.494271 104.569959,105.06421" id="Path" fill="#FAB789"></path>
                <path d="M100.998997,90.8466304 C105.609452,92.9036239 105.609452,96.1181342 104.42394,98.0466862 C103.238428,99.9752381 100.998997,101.389252 96.1253579,98.9465485 C91.2513241,96.5038446 91.9100734,93.9323135 92.7004146,91.87532 C93.4907557,89.8179408 97.2990145,89.1954042 100.998997,90.8466304" id="Fill-19" fill="#414142"></path>
                <path d="M135.025049,142.698202 C135.025049,142.698202 126.771497,155.781568 108.186475,159.772936 C106.892725,165.185499 105.738882,171.545009 99.9766586,176.61354 C94.2144351,181.682072 88.4522115,176.286538 89.2753863,171.70851 C90.0985611,167.130482 96.8485944,161.080944 102.446183,158.464928 C102.446183,158.464928 99.347379,155.188769 93.0912506,159.112793 C86.8351222,163.036817 83.5194705,169.193411 84.3426453,175.079447 C85.1658201,180.965483 92.7080706,185.36315 98.4702942,183.074135 C104.232518,180.785121 109.140955,173.392198 111.116574,164.563143 C111.116574,164.563143 132.213501,158.464928 141.580554,142.698202 L135.025049,142.698202 Z" id="Fill-27" fill="#414142"></path>
                <path d="M45.4891842,46.8010497 C41.328125,42.8609637 42.5451336,38.6271181 45.4891842,35.5091311 C48.4332347,32.3907876 53.7905174,31.9665475 56.1506368,35.5091311 C58.5107562,39.0517148 54.9945087,39.7426202 52.0504581,42.8609637 C49.1064076,45.9793072 49.6502433,50.7411357 45.4891842,46.8010497 Z" id="Fill-29" fill="#414142"></path>
                <path d="M156.988667,83.7253612 C155.5037,80.0474876 152.419693,77.6236031 156.108824,76.3752673 C159.797279,75.1265782 163.991636,77.0957193 165.476941,80.7739462 C166.962245,84.4518198 165.176235,88.4455758 161.487104,89.6946182 C157.798311,90.9429541 158.473971,87.4035881 156.988667,83.7253612" id="Fill-31" fill="#414142"></path>
                <path d="M62.958458,36.1581778 C62.958458,36.1581778 56.7326306,22.4166375 45.1526797,28.6882695 C31.7297945,35.9582933 37.3188078,48.4221611 42.984375,51.1113281 L39.757256,55.8780488 C39.757256,55.8780488 20.5584443,41.4533983 39.1773614,27.0287478 C57.7962785,12.6040973 67.275,35.5605851 67.275,35.5605851 L62.958458,36.1581778 Z" id="Fill-33" fill="#414142"></path>
                <path d="M54.6625977,15.2641602 C65.8429362,12.9669596 73.6456706,18.5450846 78.0708008,31.9985352 C79.761556,32.0867513 80.9389648,31.8214623 81.6030273,31.2026682 C74.7314453,6.53320313 54.6316013,10.4509157 48.71875,15.7797852 C43.6583592,20.3403872 43.091375,23.7717499 41.6933594,30.1635742 C43.0544945,21.7274699 47.377574,16.7609986 54.6625977,15.2641602 Z" id="Fill-12" fill="#414142"></path>
                <path d="M158.670211,96.7379348 C158.670211,96.7379348 173.121863,95.0820211 171.912221,80.8813178 C170.931961,69.3701621 156.554809,68.0159085 152.633767,70.3858523 L151,65.984528 C151,65.984528 172.881372,59.4891892 176.48677,79.8656276 C180.081058,100.179432 157.535069,101.195122 157.535069,101.195122 L158.670211,96.7379348 Z" id="Fill-37" fill="#414142"></path>
                <path d="M29.8680634,125.261921 C28.3759552,119.359847 28.3759552,113.086843 29.8680634,106.442907 C28.4277557,105.294977 27.0055573,104.170402 25.6014679,103.069181 C23.1436798,109.794751 22.5292328,116.200517 23.7581268,122.286478 C25.5899567,122.972795 27.6266022,123.96461 29.8680634,125.261921 Z" id="Path-7" fill="#414142"></path>
                <polygon id="Line" fill="#414142" fill-rule="nonzero" transform="translate(88.939258, 112.729636) rotate(-4.000000) translate(-88.939258, -112.729636) " points="91.0319072 106.298349 93.4408569 107.470459 86.8466079 119.160922 84.4376582 117.988812"></polygon>
                <path d="M157.100538,101.178818 C164.594128,107.690459 166.243137,115.93017 162.047566,125.897949 C155.75421,140.849618 138.623378,141.515038 118.545528,140.09955 C105.160296,139.155892 96.8452044,142.004901 93.6002547,148.646579 C80.35829,148.776866 67.8769758,145.232626 56.1563121,138.013859 C57.9087621,128.253396 56.9983665,120.101332 41.4000622,111.300666 C25.8017578,102.5 15.8955078,85.5371094 20.8867187,71.3710938 C24.2141927,61.9270833 30.7186405,56.1897786 40.4000622,54.1591797 L38.0646468,51 C28.809419,53.5845008 22.3891071,59.4305294 18.8037109,68.5380859 C13.4256167,82.1994207 18.7432141,102.213726 36.7973883,113.346609 C54.8515625,124.479492 51.8414011,132.941208 50.5699621,140.09955 C58.0412145,148.646579 85.106617,156.50945 96.4711467,153.244665 C100.163255,146.501776 109.512295,144.18415 123.590606,145.769673 C137.668917,147.355196 142.689321,143.865568 158.404666,133.808594 C163.438965,130.586914 167.411397,121.143199 167.70459,115.636719 C168.135071,107.551817 164.764976,101.418479 158.404666,97.6455078 C158.404666,99.0646761 157.969957,100.242446 157.100538,101.178818 Z" id="Path-3-Copy" fill="#414142"></path>
                <path d="" id="Path-4" stroke="#979797"></path>
                <path d="M174.772943,75 C185.029826,81.2021104 188.833584,91.9365969 186.184214,107.20346 C182.21016,130.103754 152.904238,141.231834 142.908203,144.503906 C132.912168,147.775979 142.946575,143.241074 151.926207,136.946294 C160.905838,130.651514 180.610123,123.180507 181.885247,102.001336 C182.488441,91.9825889 180.117673,85.0534449 174.772943,81.2139046 L174.772943,75 Z" id="Path-5" fill="#414142"></path>
                <path d="M44.9196967,118.490752 C30.6882324,107.101321 5.10909001,100.657179 2.22530396,69.6760837 C-0.658482097,38.6949882 24.8196148,22.2852588 39.8195568,24.1420453 C38.2356239,26.5186268 37.3510324,28.5789449 37.1657823,30.3229995 C21.8866355,32.2977817 12.2434358,41.3492324 8.23618305,57.4773514 C2.22530396,81.6695299 23.3517956,99.2478111 31.5856762,104.814223 C39.8195568,110.380635 59.1511609,129.880183 44.9196967,118.490752 Z" id="Path-6" fill="#414142"></path>
                <path d="" id="Path-8" stroke="#979797"></path>
                <path d="M122.698179,32.602937 C140.788023,20.9336661 158.45469,21.3506583 175.698179,33.8539135 C199.392384,51.0345827 198.062339,72.9469909 187.912573,88.7174552 C186.529601,90.866284 184.26714,86.0329259 185.346736,83.8710164 C193.325522,67.8933636 190.74311,53.6297961 176.980406,41.6507885 C159.73293,26.6386479 141.638854,25.3935307 122.698179,37.915437 L122.698179,32.602937 Z" id="Path-9" fill="#414142" transform="translate(158.766081, 56.704389) rotate(7.000000) translate(-158.766081, -56.704389) "></path>
                <path d="M186.927769,53.585843 C183.154617,46.8156821 170.358233,44.7586627 156.244112,50.7648339 C153.077754,52.1122568 149.252882,54.8356133 144.769497,58.9349036 L141.544308,55.2971034 C145.119592,51.7857335 149.846065,48.8622465 155.723727,46.5266424 C169.572773,41.0234533 181.120749,44.777372 186.355873,48.9281225 C189.906943,52.2456703 192.141695,62.9411814 186.927769,53.585843 Z" id="Path-9" fill="#414142" transform="translate(165.777175, 51.351929) rotate(7.000000) translate(-165.777175, -51.351929) "></path>
                <path d="M188.139685,74.8671337 C188.760772,71.9522196 188.987573,69.1051626 188.815706,66.3299985 C188.292032,57.8741026 169.314158,51.5168801 152.505735,70.271512 C150.96399,67.6940981 149.779556,66.45617 148.952434,66.5577278 C158.769311,58.2952066 167.872388,54.4147085 176.261666,54.9162332 C184.650944,55.417758 189.552108,59.8200674 190.965158,68.1231614 C188.600282,74.8776589 187.658457,77.1256497 188.139685,74.8671337 Z" id="Path-9" fill="#414142" transform="translate(169.958796, 65.294619) rotate(7.000000) translate(-169.958796, -65.294619) "></path>
                <path d="M138.576297,92.2804878 C138.576297,97.4059686 134.41786,101.560976 129.288149,101.560976 C124.158437,101.560976 120,97.4059686 120,92.2804878 C120,87.155007 124.158437,83 129.288149,83 C134.41786,83 138.576297,87.155007 138.576297,92.2804878" id="Fill-6" fill="#414142"></path>
                <path d="M135.272907,94.6342789 C135.272907,96.0891535 134.092529,97.2685578 132.636453,97.2685578 C131.180378,97.2685578 130,96.0891535 130,94.6342789 C130,93.1794043 131.180378,92 132.636453,92 C134.092529,92 135.272907,93.1794043 135.272907,94.6342789" id="Fill-6" fill="#FFFFFF"></path>
                <path d="M169.985132,144.261398 C175.512513,143.326252 180.348972,144.728795 183.573163,151.274113 C186.797699,157.819431 182.88224,165.299543 182.88224,165.299543 C188.179544,164.832146 196.466306,166.478105 198.543385,174.88347 C201.03125,184.951172 198.543385,185.604248 193.476503,185.604248 C198.543385,182.903076 197.852462,175.351218 193.476503,171.143589 C188.12358,165.996607 178.276204,167.637232 178.276204,167.637232 C181.039895,165.533417 185.185431,152.676656 178.045781,147.767755 C173.731314,144.801377 169.188398,146.117313 167.488037,147.767755 L169.985132,144.261398 Z" id="Fill-453" fill="#414142"></path>
                <path d="M131.357698,149 C131.357698,149 132.655201,156.921904 144.702496,157.105948 L146,160.97474 C146,160.97474 136.732871,160.790696 131.543135,154.89521 C131.543135,154.89521 134.693897,172.949757 125.982802,179.397651 C118.064888,185.258318 106.3362,179.950336 103,175.897223 L104.853537,174.60781 C104.853537,174.60781 114.329178,182.520043 123.202635,177.186913 C131.172538,172.397072 128.206935,151.763423 128.206935,151.763423 L131.357698,149 Z" id="Fill-443" fill="#414142"></path>
                <path d="M152.179997,166 C153.976562,167.730469 155.919569,171.420898 151.494277,175.874874 C147.068985,180.32885 132.528738,173.754554 131.053536,168.877118 L130,173.118394 C130,173.118394 139.171102,184.507879 151.915628,179.903992 C160.134028,176.935352 157.084961,166 157.084961,166 L152.179997,166 Z" id="Fill-445" fill="#414142"></path>
                <path d="M167.616415,164 C167.616415,164 176.591735,171.291562 159.709478,179 L158,176.916562 C158,176.916562 170.608082,172.125 164.838233,165.458438 L167.616415,164 Z" id="Fill-447" fill="#414142"></path>
                <path d="M151,178.040898 C151,178.040898 159.523002,176.612239 157.540832,186 L160.712244,183.959102 C160.712244,183.959102 163.090728,177.020602 154.171412,176 L151,178.040898 Z" id="Fill-449" fill="#414142"></path>
                <path d="M166.325671,172 C166.325671,172 171.674329,172 174,176.000125 L170.976663,178 C170.976663,178 169.349008,173.999875 164,175 L166.325671,172 Z" id="Fill-451" fill="#414142"></path>
                <path d="M35,179.511966 C35,179.511966 53.8315852,169.729968 50.9969155,152 L54.439235,153.834027 C54.439235,153.834027 59.7647439,183.608137 80.3581121,190.516753 C90.0777296,193.777211 94.890625,179.511966 94.890625,179.511966 L99.2470703,179.511966 C99.2470703,179.511966 95.9500307,195 82.1807527,195 C68.4111659,195 55.6539169,172.990427 53.0219002,160.966805 C53.0219002,160.966805 52.2119063,174.009573 37.2273287,183.180021 L35,179.511966 Z" id="Fill-455" fill="#414142"></path>
                <path d="M67.4867518,186 C67.4867518,186 70.9348182,197.283085 60,203.509362 L64.0773707,206 C64.0773707,206 73.7882971,200.528087 70.0816222,188.698033 L67.4867518,186 Z" id="Fill-457" fill="#414142"></path>
                <path d="M80.1243187,209.584403 C80.1243187,207.584403 92.8533513,212.364717 91.5531064,204.272785 C89.9175056,194.090823 86.0317449,192.012839 86.0317449,192.012839 L88.6902591,189.935172 C88.6902591,189.935172 97.7610895,200.541924 110.570124,198.038833 C115.886528,197 117.318108,185.779204 116.091174,181 L119.56702,181 C119.56702,181 122.429867,196.168806 113.432659,200.740371 C104.761136,205.14614 92.5753959,196.79236 92.5753959,196.79236 C92.5753959,196.79236 99.9370032,208.220796 91.9620846,213 L80.1243187,209.584403 Z" id="Fill-459" fill="#414142"></path>
                <path d="M118.818879,188.691605 C118.818879,188.691605 125.574477,194.244314 135.809843,192.459363 C146.045834,190.674715 139.4948,176 139.4948,176 L143.589196,178.181573 C143.589196,178.181573 148.911599,190.278093 138.880797,194.640936 C128.849682,199.003477 118,191.467959 118,191.467959 L118.818879,188.691605 Z" id="Fill-461" fill="#414142"></path>
                <path d="M110,200.071323 C110,200.071323 120.066385,202.857026 116.647755,211 L119.686794,210.357271 C119.686794,210.357271 122.155869,202.428431 113.229125,199 L110,200.071323 Z" id="Fill-463" fill="#414142"></path>
                <path d="M135,194.324207 C135,194.324207 141.749844,194.891931 141.136364,200 L144,198.675504 C144,198.675504 143.795299,193.756772 138.068026,193 L135,194.324207 Z" id="Fill-465" fill="#414142"></path>
                <path d="M168.841797,96.1113281 C175.673177,109.258946 172.92513,121.179844 160.597656,131.874023 C142.106445,147.915292 156.797704,135.662109 165.325122,129.532227 C173.852539,123.402344 179.385742,109.549805 171.655273,94.0966797 C170.607747,93.4091797 169.669922,94.0807292 168.841797,96.1113281 Z" id="Path-18" fill="#414142"></path>
                <path d="M33.3945311,40 C21.0442708,45.7135417 13.8645833,54.2890625 11.8554688,65.7265625 C8.84179688,82.8828125 15.4112262,91.0947306 20.5804156,96.7739964 C25.7496049,102.453262 32.4569898,106.329243 22.5625,96.7739964 C12.6680102,87.21875 4.48144531,56.5429688 36.0527344,43.3942892 C36.0527344,41.1314297 35.1666666,40 33.3945311,40 Z" id="Path-19" fill="#414142"></path>
            </g>
        </g>
        <g id="Group-2" transform="translate(182.000000, 323.000000)">
            <path d="M33.8913832,0.23222521 C9.95248534,-1.67256377 0.0188111487,8.30360857 0.0188111487,24.1590481 C0.0188111487,40.0144877 -0.593157579,65.5872801 5.16388156,72.6030672 C10.9209207,79.6188543 21.8883831,80.2259361 39.4835823,79.9474582 C57.0787815,79.6689803 138.40164,77.0308661 154.030941,77.0308661 C169.660241,77.0308661 173.477947,68.1362813 173.840595,57.3647554 C174.203243,46.5932294 176,37.9826921 176,21.3389951 C176,10.243197 167.378178,4.02200029 150.134534,2.67540483 C88.5983654,2.31647773 49.8506485,1.50208453 33.8913832,0.23222521 Z" id="Path-2-Copy" fill="#38BEBD"></path>
            <path d="M38.9249305,44.4725275 C37.0386066,45.4395653 35.6896859,46.1977995 34.8781279,46.7472527 C34.0665699,47.296706 33.3537257,47.9780179 32.7395737,48.7912088 C32.1254217,49.6043997 31.3796769,50.8901011 30.502317,52.6483516 C31.5112809,52.6923079 32.9589031,52.7142857 34.8452271,52.7142857 C37.345703,52.7142857 39.2100649,52.6923079 40.4383689,52.6483516 C43.1581847,52.5604391 45.5489548,52.5164835 47.6107507,52.5164835 C48.0494307,53.5714338 48.2687674,54.8241686 48.2687674,56.2747253 L48.2029657,57.3296703 L48.2029657,60.3626374 C48.2029657,61.0659376 48.246833,61.6153826 48.334569,62.010989 C48.334569,62.2307703 48.2578012,62.3626371 48.1042632,62.4065934 C47.9507252,62.4505497 47.6107533,62.4725275 47.0843373,62.4725275 L22.0797034,62.8021978 L19.9082484,62.9340659 C19.3818324,62.9340659 18.9760595,62.9010992 18.6909175,62.8351648 C18.4057755,62.7692304 18.175472,62.7362637 18,62.7362637 C18.175472,60.450538 18.2632067,58.6044026 18.2632067,57.1978022 C18.3070747,54.5164701 18.4496435,52.3626455 18.6909175,50.7362637 C18.9321915,49.109882 19.5134338,47.5274802 20.4346617,45.989011 C22.1893816,44.0549354 25.1065598,41.8351774 29.1862836,39.3296703 C31.5551555,37.8791136 33.4195175,36.6263789 34.7794254,35.5714286 C35.3935774,35.1758222 35.8761181,34.5714326 36.2270621,33.7582418 C36.5780061,32.9450509 36.7534754,32.0769277 36.7534754,31.1538462 C36.7534754,30.0109833 36.5122051,29.0109933 36.0296571,28.1538462 C35.5471091,27.296699 34.9110327,26.8241763 34.1214087,26.7362637 C32.7176328,26.78022 31.774485,27.5384542 31.291937,29.010989 C30.809389,30.4835238 30.4803839,32.4065815 30.304912,34.7802198 C27.7167001,35.1318699 25.1504607,35.3076923 22.6061168,35.3076923 C21.1584728,35.3076923 19.820519,35.1538477 18.592215,34.8461538 C18.285139,33.3076846 18.1316033,31.8351719 18.1316033,30.4285714 C18.1316033,28.2747145 18.4606084,26.2417678 19.1186284,24.3296703 C19.7766483,22.4175729 20.7417298,20.736271 22.0139018,19.2857143 C23.1106017,17.9670264 24.7994943,16.9560475 27.0806302,16.2527473 C29.3617661,15.549447 31.7744698,15.1978022 34.3188137,15.1978022 C37.3457056,15.1978022 39.8242103,15.5714248 41.7544022,16.3186813 C43.9478021,17.4615442 45.6476616,19.032957 46.8540315,21.032967 C48.0604015,23.032977 48.7951794,25.263724 49.0583874,27.7252747 L49.0583874,28.3186813 L49.1241891,28.9120879 C49.2119251,31.0659448 49.2338587,32.6483466 49.1899907,33.6593407 C48.9706507,36.2527602 47.9726688,38.3296625 46.1960148,39.8901099 C44.4193609,41.4505573 41.9956904,42.9780145 38.9249305,44.4725275 Z M89,29.8351648 C89.43868,32.2527593 89.6141493,34.9120734 89.5264133,37.8131868 C89.4825453,41.4615567 88.8464689,45.208772 87.618165,49.0549451 C86.389861,52.9011181 84.5364659,56.1208662 82.057924,58.7142857 C79.5793821,61.3077053 76.5415688,62.6043956 72.944393,62.6043956 C70.838729,62.6043956 69.0401681,62.3186842 67.5486562,61.7472527 C64.6095003,60.6483462 62.4161333,59.0659444 60.9684893,57 C59.5208454,54.9340556 58.6105981,52.7472643 58.2377201,50.4395604 C57.8648421,48.1318566 57.6345386,45.19782 57.5468026,41.6373626 L57.4810009,39.9230769 C57.3932649,38.428564 57.3493976,37.1758292 57.3493976,36.1648352 C57.3493976,33.3955905 57.6235685,30.791221 58.1719184,28.3516484 C58.7202684,25.9120757 59.6743831,23.6153954 61.034291,21.4615385 L60.9684893,21.3956044 L61.7581094,20.6043956 C63.2934893,18.9340576 64.9933487,17.6263784 66.8577386,16.6813187 C68.7221286,15.736259 70.8606614,15.2637363 73.2734013,15.2637363 C77.6163331,15.2637363 81.1257203,16.6703156 83.8016682,19.4835165 C86.4776161,22.2967174 88.210376,25.7472323 89,29.8351648 Z M76.5634847,41.8351648 C76.6073527,41.1318646 76.6292864,39.8351743 76.6292864,37.9450549 C76.6292864,35.8791105 76.4867175,33.8681416 76.2015755,31.9120879 C75.9164335,29.9560342 75.488727,28.4945103 74.918443,27.5274725 C74.216555,26.8241723 73.4927439,26.4725275 72.746988,26.4725275 C72.527648,26.4725275 72.3521786,26.4945053 72.2205746,26.5384615 C71.8696306,26.5824178 71.5296587,26.7362624 71.2006487,27 C70.8716388,27.2637376 70.6194016,27.5714268 70.4439296,27.9230769 C70.2245896,28.2307708 70.0381534,28.868127 69.8846154,29.8351648 C69.7310774,30.8022026 69.5885085,31.8131815 69.4569045,32.8681319 C69.2375646,35.3736389 69.1278962,37.5933969 69.1278962,39.5274725 C69.1278962,42.3406734 69.4130339,44.8900985 69.9833179,47.1758242 L69.9833179,47.1098901 C70.1587899,47.5494527 70.2684582,47.9010976 70.3123262,48.1648352 C70.7948742,49.7472607 71.2774149,50.6703284 71.7599629,50.9340659 L71.8915663,50.9340659 C72.2863782,51.0659347 72.703118,51.1318681 73.141798,51.1318681 C73.8436859,51.1318681 74.4029945,50.8681345 74.8197405,50.3406593 C75.2364865,49.8131842 75.5764584,49.0659389 75.8396664,48.0989011 C76.1467423,47.1318633 76.3441454,45.6373727 76.4318814,43.6153846 C76.4318814,43.0879095 76.4757487,42.472531 76.5634847,41.7692308 L76.5634847,41.8351648 Z M113.412419,62.7362637 C110.868075,62.7362637 108.38957,62.5164857 105.97683,62.0769231 L105.97683,55.4835165 C105.97683,52.6703156 106.108432,48.4505776 106.37164,42.8241758 L106.503244,40.7142857 C106.678716,36.6703095 106.76645,33.7033062 106.76645,31.8131868 C106.196166,32.5604433 105.56009,32.9340659 104.858202,32.9340659 C104.551126,32.9340659 103.618945,32.7582435 102.061631,32.4065934 C100.504317,32.0549433 99.0895955,31.6593429 97.8174235,31.2197802 C96.5452516,30.7802176 95.9091752,30.4285727 95.9091752,30.1648352 C95.9969112,29.3296662 96.6439544,27.8022089 97.8503244,25.5824176 C99.0566943,23.3626263 100.383681,21.1318793 101.831325,18.8901099 C103.278969,16.6483404 104.134382,15.3956057 104.39759,15.1318681 L105.18721,15.1318681 C107.38061,15.0439556 109.266906,15 110.846154,15 C113.653706,15 116.285746,15.109889 118.742354,15.3296703 C118.961694,18.4505651 119.071362,22.230747 119.071362,26.6703297 C119.071362,30.054962 118.93976,35.0439231 118.676552,41.6373626 C118.457212,47.1318956 118.347544,52.1208567 118.347544,56.6043956 C118.347544,58.67034 118.369478,60.2087862 118.413346,61.2197802 C118.413346,62.2307743 116.746387,62.7362637 113.412419,62.7362637 Z M159.736793,41.1098901 C159.736793,41.4615402 159.780661,42.2966967 159.868397,43.6153846 C159.956133,45.0219851 160,46.0549418 160,46.7142857 C160,47.769236 159.934199,48.8021927 159.802595,49.8131868 C159.276179,53.3296879 158.113695,56.3406468 156.315107,58.8461538 C155.130671,60.208798 153.562413,61.2417547 151.610287,61.9450549 C149.658161,62.6483552 147.497695,63 145.128823,63 C142.189667,63 139.316356,62.4175882 136.508804,61.2527473 C133.701253,60.0879063 131.59562,58.5824268 130.191844,56.7362637 C128.919672,54.8461444 128.283596,52.7142976 128.283596,50.3406593 C128.283596,49.285709 128.327463,48.5164859 128.415199,48.032967 L128.415199,47.4395604 L132.363299,47.3076923 L133.810936,47.2417582 C135.03924,47.1538457 136.048189,47.1098901 136.837813,47.1098901 C138.285457,47.1098901 139.55761,47.1978013 140.65431,47.3736264 C140.917518,48.2527516 141.334257,48.989008 141.904541,49.5824176 C142.474825,50.1758271 143.110902,50.4505497 143.81279,50.4065934 L143.746988,50.4065934 C144.79982,50.2747246 145.534598,49.5274793 145.951344,48.1648352 C146.36809,46.802191 146.532592,45.1978114 146.444856,43.3516484 C145.128816,43.7032985 143.812796,43.8791209 142.496756,43.8791209 C140.040148,43.8791209 137.74808,43.3186869 135.620482,42.1978022 C133.492884,41.0769175 131.793025,39.571438 130.520853,37.6813187 C129.775097,36.5824121 129.215788,35.2857218 128.84291,33.7912088 C128.470032,32.2966958 128.283596,30.7802275 128.283596,29.2417582 C128.283596,25.6373446 129.182876,22.7362747 130.981464,20.5384615 C132.341372,18.8681235 134.194767,17.6043999 136.541705,16.7472527 C138.888643,15.8901056 141.465849,15.4175829 144.273401,15.3296703 L145.260426,15.3956044 L146.247451,15.3956044 C149.098871,15.4395607 151.379973,15.6703276 153.090825,16.0879121 C154.801677,16.5054966 156.161564,17.5274644 157.170528,19.1538462 C158.179492,20.6483591 158.826535,22.3406499 159.111677,24.2307692 C159.396819,26.1208886 159.561322,28.4944912 159.60519,31.3516484 L159.736793,41.1098901 Z M144.668211,26.5384615 C144.185663,26.5384615 143.50572,26.7582396 142.62836,27.1978022 C141.97034,27.4615398 141.641335,28.1208738 141.641335,29.1758242 C141.685203,30.0549495 141.794871,30.8461503 141.970343,31.5494505 C142.277419,32.120882 142.683192,32.5824158 143.187674,32.9340659 C143.692156,33.285716 144.207597,33.4615385 144.734013,33.4615385 C145.172693,33.4615385 145.611366,33.3406605 146.050046,33.0989011 C146.488726,32.8571416 146.839665,32.5384635 147.102873,32.1428571 C147.322213,31.7032945 147.519616,30.9120936 147.695088,29.7692308 C147.738956,28.8901055 147.453818,28.1318713 146.839666,27.4945055 C146.225514,26.8571397 145.501703,26.5384615 144.668211,26.5384615 Z" id="2019" fill="#FFFFFF"></path>
        </g>
    </g>
</svg>