<svg version="1" xmlns="http://www.w3.org/2000/svg" width="933.333" height="933.333" viewBox="0 0 700.000000 700.000000"><path d="M320 65.1c-11.7.9-25.8 4.6-33.4 8.7-7.7 4.2-16.9 13.3-20.7 20.6l-3.3 6.4-5.3.6c-16.3 1.9-34 15-42.7 31.6-5 9.5-7.6 20.2-7.6 31.4.1 24.9 8.7 43.2 26.9 57.6l7.9 6.2-.9 3.9c-.5 2.2-1 6.8-1.2 10.3l-.2 6.2-10-.4c-9.4-.3-10.3-.2-15.4 2.5-7 3.6-9.6 7.1-9.6 12.8 0 4.7 2.1 8.4 6.9 11.9 2.4 1.8 4.2 2.1 14.5 2.1h11.8l.6 14c2.3 55.5 37.9 92.6 99.7 103.9 26.6 4.8 51.9 1.7 73.4-9.1 9.6-4.8 12.5-6.8 33.6-22.7 10.2-7.6 21.3-15.2 24.6-16.8 14.6-6.8 27.1-3.7 24.9 6.3-.4 1.6-1.5 3.9-2.6 5.3l-2 2.5 3.6.7c5.1.9 16.1-2 21-5.5 5.8-4.2 8.9-10.7 8.9-19 0-10.6-5.3-18.4-15.7-22.7l-4.5-1.8.5-5.3c1.7-16.5-13.6-29-30.9-25.4-11.6 2.4-18.8 10.7-18.8 21.5v5.1l5.3-.3c4.2-.3 5.6 0 7.1 1.6 1.3 1.6 1.5 2.5.7 4-1.7 3.3-6.9 4.7-17.1 4.7-8.1 0-10-.3-13.1-2.2-1.9-1.2-4.2-3.4-5-4.9-1.8-3.4-1.8-13.5 0-19.6l1.3-4.7 13.2-6.4c25.9-12.7 40.8-27.2 46-44.7 2.2-7.1 3.1-23.2 1.8-29-.9-3.5-.8-4.8.2-6 .8-.8 2.8-4.3 4.5-7.7 12.2-24.4 5.8-51.6-17.1-72.8-21.9-20.4-45.7-26-71.2-16.9-11.6 4.1-10.9 4.2-13-1.8-9.2-26.1-38.2-39.9-77.6-36.7zM352.5 76c15.7 4.2 29 13.2 35.2 23.8 2.8 4.8 6.3 16 6.3 20.3v2.7l-7.1-3c-8-3.4-22.6-7.2-31.1-8.3-5.5-.7-5.6-.8-6.3-4.3-1-5.6-6.2-15.5-10.6-20.5-5.9-6.8-14.2-11-25.9-13.1-1.4-.3 5.2-.3 14.5-.1 13.5.3 18.7.8 25 2.5zm-36.7 2.4c6.8 1.8 13.1 5.6 17.2 10.3 3.3 3.8 8.3 13.5 9.4 18.5l.6 2.8h-12.6l-2.9-6.8c-6.9-15.9-22.6-24.5-37.3-20.3-4.1 1.2-4 .8.1-1.8 6.5-4 16.5-5.1 25.5-2.7zm-8.2 11.4c5.2 2.7 11 9.1 14 15.6l2.4 5.1-8.8 2.1c-7.9 2-8.8 2-9.6.6-.5-.9-2.7-3.6-5-6-7.1-7.7-15.4-10.5-23.8-7.9l-4.8 1.5 1.8-3c5.5-9.6 22.7-13.7 33.8-8zm-20.5 17.3c4.1 1.4 9.5 5.3 10.9 7.9.9 1.6.5 2.2-2.1 3.5-3 1.6-3.2 1.6-5.8-.9-8.7-8.3-24.3 4.3-18.8 15.2 1.4 2.9 1.3 3.2-.9 5.3-2.3 2.1-2.5 2.2-4.4.4-4.5-4-5.2-16-1.3-21.3 2.9-3.9 8.6-8.2 12.9-9.7 4.8-1.7 5.3-1.8 9.5-.4zm160 2.5c11.9 3.6 24.4 11.6 33.3 21.5 2.6 2.8 4.5 5.3 4.4 5.5-.2.1-3-.6-6.2-1.7-14.7-5-35.6-2.3-49.3 6.4l-3.7 2.4-6.3-5.2c-3.4-2.8-9.2-6.8-12.8-9-4.5-2.6-6.4-4.3-6-5.2.3-.8.5-3.2.5-5.3 0-3.5.3-3.9 4.3-5.5 13.2-5.4 31-7.1 41.8-3.9zm-190.4 4.2c-2.2 2.4-4.7 8.6-4.7 11.6 0 1.8-1.1 3.1-4.7 5.2-11.1 6.4-20.4 18.2-23.9 29.9-1.8 6.3-2.5 23.8-1.2 30.5.6 3.1.4 2.9-1.8-1.7-2.9-6-5.4-16.8-5.4-23.4 0-6.8 3.8-20.5 7.8-28.3 6.1-11.7 16.3-20.4 28.1-24 6.6-2.1 7.8-2 5.8.2zm95.6 4.3c16.1 2.4 36.1 8.8 47.7 15.2 11.3 6.3 22.8 16.6 29.8 26.9 1.8 2.6 3.2 4.9 3.2 5.2 0 .3-2.1-.4-4.6-1.5-5.9-2.7-17.5-3.5-24.5-1.9-15.2 3.6-26.3 14-30.9 28.8-8 25.7 10.1 51.9 37.1 53.9 8.4.7 15.6-1 23.7-5.3 3.4-1.8 6.2-3.2 6.2-3 0 .1-.9 2.9-2 6.2-3 8.6-6.2 12.8-11.7 15.5-4.1 2-6.2 2.3-14.3 2.3-5.2-.1-14.4-1-20.5-2-13.1-2.1-29.8-2.4-37.5-.5-8.5 2.1-17.5 6.8-23.2 12l-5.3 4.8-.2-5.6c-.6-11.8-6.1-24.5-14.4-32.9-2.8-2.7-11-9.1-18.2-14.1-15.6-10.7-23.1-17.7-27.1-25-2.4-4.5-3-6.9-3.3-14.5-.4-7.9-.2-10 2-15.8 6.2-16.9 19.1-31.6 35.2-40.1 15.7-8.2 34.7-11.3 52.8-8.6zm-96.5 21.5c1.3 2.6 2.2 4.7 2 4.9-.2.1-2 1-4.1 2-5.2 2.4-12.9 9.5-16.5 15.2-5.4 8.4-7.5 17-7 28.1.3 5.3.8 10.6 1.2 11.7.3 1.1-.3.2-1.3-2-3.1-6.2-4.4-14-3.9-24.4.3-8.2.8-10.6 3.5-16.3 3.6-7.6 10.4-15.4 17.8-20.4 2.7-1.9 5.2-3.4 5.5-3.4.3 0 1.5 2.1 2.8 4.6zm224 .9c8.3 2.5 12.6 7 15.3 15.9l.9 2.9-2.8-2.5c-4.8-4.6-9.2-6.1-18.2-6.6-10.5-.5-18.7 1.4-28.7 6.8l-7.2 3.9-4-5.7-4.1-5.6 4.6-2.9c5.4-3.3 8.2-4.5 14.9-6.2 7.2-1.8 23.1-1.8 29.3 0zm-220.2 14.8c-4.9 11.2-7 19-6.9 26.7 0 9.3 2.3 15.6 8.6 23.8 6 7.8 11.3 12.4 27.2 23.7 7.2 5.1 15 11.4 17.4 14 8 8.6 11.4 20.2 10.9 36.5-.4 11.4.4 11.2-14.7 3.7l-10.4-5.2-.1-9c-.2-14.6-3.9-19.9-22.2-32-18.3-12.1-28.2-23.6-32.5-37.7-2.9-9.5-2.4-21.1 1.3-29 3.3-7 10.7-15.2 16.8-18.3 6.8-3.6 7.3-3.3 4.6 2.8zm228.3 3.5c3.5 1.7 6.2 3.9 7.4 6 1.9 3.2 1.9 3.7.5 11.1-.9 4.2-2.5 9.9-3.7 12.7l-2.2 5.1-7-7c-3.9-3.9-7.6-8.2-8.4-9.6-3.5-6.8-11.1-11-21.5-12l-6.5-.6 7.5-3.7c13.2-6.5 23.9-7.1 33.9-2zm-59.5 13.1c7.5 3.7 12.8 9.1 16.5 17 2.2 4.7 2.6 7 2.6 14.1 0 7.3-.4 9.4-2.9 14.8-7.7 16.7-26.8 24.5-44.2 18.1-8-2.9-17.2-12.1-20.3-20.2-4.4-12-2-26 6-35.1 11-12.4 27.7-15.9 42.3-8.7zM460 175c11.6 5.9 14.3 20.9 5.7 30.7-2.5 2.8-9.3 7.3-11.1 7.3-.2 0-.2-1.9.1-4.3.4-3 1.5-5.1 3.9-7.5 2.9-2.8 3.4-4 3.4-7.8 0-3.9-.5-5.1-3.4-8-2.3-2.3-4.3-3.4-6.2-3.4-2.3 0-3.5-.9-5.6-4.2-2-3.1-2.4-4.5-1.5-5.1 1.8-1.2 10.5.2 14.7 2.3zm24.5 28.5c1.9 6.2 2.1 22.5.5 28.5-.7 2.5-2.1 6.3-3.2 8.5-2.3 4.5-9.8 14.9-10.4 14.3-.2-.2.9-3.3 2.3-6.8 3.5-8.5 3.6-20.3.4-29.8l-2.2-6.3 2.5-3c2.6-3.1 4.6-8.6 4.6-12.9v-2.5l2 2.5c1.1 1.4 2.7 4.7 3.5 7.5zm-14.3 20c.6 2.2 1.1 7.5 1.1 11.8 0 6.9-.4 8.6-3.6 15-2 4-5.2 9-7.1 11.2l-3.5 4 3-6.1c3.6-7.2 5.5-17.1 4.5-23.5-.4-2.6-2.2-7.1-4-10.2l-3.3-5.5 4.6-1.9c5.4-2.3 6.3-1.7 8.3 5.2zm-12.6 11.8c3.3 10.1-.2 24.7-8.1 33.4-9.6 10.8-21.9 13.8-52.3 13-28.9-.8-37.6 1-45.4 9.5l-3.8 4.2-10.3-1.2c-11.1-1.3-14.7-2.1-14.7-3.1 0-2 11-14.7 15.7-18.1 12.7-9.1 24.3-10.6 54.8-7 11.1 1.3 21.4 2 24.7 1.6 6.8-.7 14.7-3.5 19.1-6.9 6-4.6 10.5-16 12.2-31.2l.7-6 2.9 3.4c1.6 1.9 3.6 5.7 4.5 8.4zM262.8 242c10.2 7.1 15.4 12.4 18.7 18.9 1.4 2.8 1.7 5.2 1.3 12.3l-.5 8.8 3.6 3.2c11.3 10 46.6 20.3 62.7 18.2 4.5-.5 5.8-1.2 7.5-3.5 4.7-6.6 19.2-10.6 33.9-9.4 4.1.4 9.9.7 12.8.7 2.8.1 5.2.3 5.2.5 0 .7-7.4 6.9-12.2 10.1-4.9 3.3-18.4 9.2-21.1 9.2-2.1 0-3 1.6-5.5 9.6-3.8 12.2-10.9 20.4-17.6 20.4-3.3 0-8.6-4.9-8.6-7.9 0-5.4 6.4-13.6 15.1-19.1 5.2-3.4 5.8-4.4 3.3-5.4-2.9-1.1-6.9-.6-11.4 1.5-3.8 1.8-5.6 2-12 1.4-28.7-2.5-61.5-16.4-86.6-36.7-7.7-6.3-8-6.4-11.9-5.5-2.2.4-7.9.7-12.7.5-7.4-.3-9.1-.6-10.9-2.5-2-1.9-2.1-2.5-1-5.2.8-1.8 2.7-3.6 4.9-4.7 5.4-2.5 18-1.5 26.1 2.1 3.4 1.5 6.3 2.6 6.6 2.4.2-.3-.3-1.8-1.1-3.4-1.8-3.3-3.1-17.8-2-22 .4-1.6 1.2-2.5 2-2.2.7.3 5.8 3.7 11.4 7.7zm-6.2 48.4c4.8 3.5 12.7 8.5 17.7 11.1l8.9 4.8-.5 4.9c-.8 6.6-5.8 15.7-12.2 21.9-8 7.8-7.9 7.8-11.5 1.2-3.9-7.3-7.7-17.9-9.5-26.3-1.5-7.5-3-24-2.1-24 .3 0 4.5 2.9 9.2 6.4zm164.7 8.3c-.6 8.9-1.2 9.3-6.8 4.9l-2.9-2.3 4.9-5.5c2.8-3.1 5.1-5.5 5.2-5.4.2.1 0 3.9-.4 8.3zm69.8-4.1c3.8 3.6 5.4 10.2 4.3 16.8l-1 5.3 5 1.8c7.2 2.5 14.1 9.6 15.1 15.3.4 2.6.3 4.8-.3 5.4-.6.6-1.2-.5-1.6-3.1-1.2-7.9-10.4-15-19.5-15.1-4 0-4.3-.2-3.6-2.3 1.2-3.8 1.8-12.5 1.1-16.1-.4-2-2.2-5.6-4.1-8l-3.4-4.5 2.7 1c1.5.6 3.9 2.2 5.3 3.5zm-11.1-.7c6.6 4.7 8.2 15.6 3.6 25.6l-2.4 5.3 7.7.4c9.2.5 14.4 2.7 17.7 7.8 4.6 7 4.1 15-1.2 18.5-1.3.8-2.6 1.5-2.9 1.5-.3 0-.5-2.3-.5-5.1 0-4.6-.4-5.5-3.5-8.5-4.2-3.9-8.1-4.8-17.7-4.2-6 .5-7.5.2-10.3-1.6-3-2-3.2-2.4-2.7-6.6.3-2.8 1.3-5.4 2.8-7 3.2-3.4 4.3-6.9 3.3-10.4-1.2-4.2-3.5-6.3-8.5-7.5-2.4-.6-4.4-1.4-4.4-1.7 0-.3.7-1.9 1.6-3.5 2.9-5.7 11.5-7.1 17.4-3zM419.1 312c2 .7 4.2 2.5 5.1 4.1 2.2 3.8 9.4 8.8 14.5 10.2 3.3.8 4.3 1.6 4.3 3.2 0 3.2-3.7 8.4-6.6 9.1-6.3 1.6-19.2-2.4-25.1-7.9-2.1-1.9-2.3-2.9-2.3-13.4v-11.4l3.3 2.4c1.7 1.4 4.8 3 6.8 3.7zm-15.5-1.5c1 4-1.4 18.4-3.8 22.9-4.6 8.3-15.7 10.8-25.7 5.7L370 337l2.1-4.2c1.2-2.3 2.7-6 3.3-8.2.8-2.8 2-4.4 3.6-5.1 1.4-.6 7-3.3 12.5-6.1s10.3-5.2 10.7-5.2c.4-.1 1 .9 1.4 2.3zm-84.8 6.5c5.9 1.1 12.8 2.2 15.4 2.5l4.8.6-2 3.9c-2.6 5.2-2.7 13.2 0 17.4 1 1.8 3.8 4.2 6.2 5.5 2.4 1.3 4.5 2.5 4.7 2.7 1 .9-5.7 7.6-9.5 9.5-4.1 1.9-4.9 2-9 .9-13.9-3.9-27.3-18.7-35.2-39-5.2-13.1-5.7-12.3 4.8-8.9 5 1.6 13.9 3.8 19.8 4.9zm-25.2 16.3c4.1 8.1 6.1 11.1 11.6 17.8 3.3 3.9 3.8 5.2 3.8 9.4 0 5.1-3.2 13.3-5.5 14.2-3.3 1.2-19.6-10.1-29.9-20.6l-7.7-7.9 5.2-4.9c6.4-5.9 12.2-14.6 13.9-20.9l1.4-4.8 1.7 5.3c1 2.8 3.5 8.4 5.5 12.4zm166.9-2.7c-3.6 5.6-15.3 10.5-12.5 5.4.6-1 1-3.2 1-4.9 0-2.7.4-3.1 3.8-3.6 2-.4 4.8-1 6.2-1.4 3.2-1 3.8 1 1.5 4.5zm-42 12.1c3.7 1.5 4.4 2.3 4.9 5.3.7 4.6-.8 10.2-3.5 12.6-3.3 3-15.7 3.2-23.1.4l-5.6-2.1-.4-6c-.3-5.7-.2-6 2.2-6.6 4.4-1.1 9.5-4.9 11.5-8.6l1.9-3.5 3.9 3.3c2.2 1.9 5.9 4.2 8.2 5.2zm47.5-5.2c1.4.8 2 1.4 1.4 1.5-.6 0-3.8 1.8-7.1 3.9l-6.1 3.9-.5-2.4c-.4-2.1.2-2.8 3.4-4.4 2.1-1.1 4-2.4 4.4-3 .8-1.3 1.5-1.2 4.5.5zm-86.7 8.5c5.3 1.4 6 3.3 4.7 11.7-1.9 11.4-5.6 14.7-15.7 14.1-7.1-.4-17.7-4.4-20.7-7.7-1.3-1.5-1.2-2 1.8-4.8 1.8-1.8 4.1-4.8 5.1-6.6 1-1.9 3.3-4.2 5.1-5.2 1.8-1 4.3-2.8 5.5-4.1l2.2-2.3 3.7 1.9c2.1 1 5.8 2.4 8.3 3zm68.1-1.8c2.8 4 1.9 7-3.2 10.9-2.6 1.9-7.5 5.7-11 8.4-5.7 4.4-6.4 4.7-7.8 3.3-1.5-1.4-1.4-1.9.6-4.5 2.6-3.6 4-9.4 3.3-13.7-.5-3.1-.4-3.2 3.5-3.3 2.1-.1 5.5-.8 7.3-1.7 4.7-2 5.6-1.9 7.3.6zm-122.7 21.9c2.1.6 6.3.9 9.9.6l6.3-.5 2.1 5c2.8 6.6 3.7 14 1.8 15.5-1.7 1.5-11.8-.5-25.5-4.8l-9.2-3 1.9-4.2c1.1-2.4 2-6.5 2-9.4v-5.2l3.5 2.4c2 1.3 5.2 2.9 7.2 3.6zm73 .5c6.7 2.2 8.8 2.5 14.9 2 5.6-.5 7.4-.4 8.3.8.7.8 1 2 .6 2.5-1.6 2.8-25.3 14-29.6 14.1-1.1 0-1.9-1.1-2.3-3.1-.3-1.7-1.9-4.3-3.6-5.9-2.9-2.7-2.9-2.8-1-4.5 1.1-1 2.5-3.3 3.2-5.1.7-1.9 1.3-3.4 1.5-3.4.1 0 3.8 1.2 8 2.6zm-26.4 10.9c7.6.1 9.2.4 11.2 2.2 2.2 1.9 4.3 6.8 3.4 7.8-1.2 1.1-21.5 2.7-27.2 2.1-6.4-.7-6.7-.9-6.1-3.1.5-2-1.2-9.4-3.2-14.2-.3-.7 2.5.2 6.3 2 6 2.8 7.8 3.2 15.6 3.2z"/><path d="M316.5 122.3c-11.5 3.9-20.8 11.9-25.6 22.1-12.1 25.9 2.9 54.8 31 59.7 17.5 3.1 36.7-6.7 44.3-22.7 10.4-22.1 1.4-46.8-20.8-57.1-4.9-2.2-7.5-2.8-15.4-3-5.9-.2-11 .2-13.5 1zm25.7 8.9c3.1 1.5 7.6 4.4 10 6.7 15.7 14.4 14.1 40.9-3.2 53.6-6.7 4.9-12.2 6.7-21.1 6.7-20.3.1-35.1-16.3-33.7-37.5 1-15.1 9.9-26.6 24.3-31.4 6.1-2 17-1.1 23.7 1.9z"/><path d="M323.2 160.1c-13.6 6.9-8.7 26.9 6.7 26.9 8.1 0 14.1-6.1 14.1-14.5 0-10.6-11.1-17.3-20.8-12.4zm14.8 14.4c2.3 2.8-.9 7.2-4.5 5.9-3.6-1.4-2.4-7.4 1.5-7.4 1 0 2.3.7 3 1.5zM345.5 204.3c-3.9.7-8.6 2.2-10.5 3.3-6.7 3.9-9.3 12.8-5.2 18.3 1.5 2 1.7 3.2 1 5.1-1.5 3.9-1.3 12.6.2 15.5 1.9 3.5 5.9 5.5 11 5.5 3.3 0 4.8-.7 8.5-4.1 2.4-2.2 4.7-4.9 5-5.8.4-1.3 1.4-1.6 3.8-1.3 9.7 1.1 17.1-13.1 11.8-22.8-1.1-1.9-2.7-4.9-3.5-6.7-3.4-6.9-10.1-9-22.1-7zm-3.7 26.5c1 .7.6 2.2-1.4 6.8-3.3 7.2-3.3 7.2-4.4 5.4-1.3-2-1.2-4.6.1-9.3 1-3.7 2.9-4.6 5.7-2.9zm7.8 9c-1.5 2.9-6.1 7.2-7.7 7.2-.4 0 .6-3.2 2.3-7.1 3.1-6.9 3.2-7 5.1-5.1 1.8 1.8 1.8 2.1.3 5zM397.2 195c-3.3 2-7.1 8.7-7.2 12.4 0 4.1 3.9 10.2 8.1 12.5 12.7 7.2 26.7-7.8 19-20.3-4-6.3-13.4-8.5-19.9-4.6zm15.6 13.2c2.8 2.8.1 7.5-3.7 6.3-2.5-.8-3.4-3.1-2.1-5.6 1.2-2.1 4-2.5 5.8-.7zM274.4 389.9c-.2.2-.4 22.2-.4 48.8V487H290.7l.6-5.2c.4-2.9.4-10.5 0-16.8-.7-13.3 0-18.3 2.8-21.1 2.2-2.2 7.6-2.5 10.2-.7 2.5 1.9 3.7 11 3.7 28.5V487h17.1l-.3-29.9c-.3-29.7-.3-30-2.6-32.4-2.9-3.1-10-5.1-15.3-4.4-2.3.3-6.4 1.7-9.1 3.1-2.7 1.4-5.2 2.6-5.4 2.6-.2 0-.4-8.3-.4-18.5v-18.6l-8.6.3c-4.7.2-8.7.5-9 .7zM467 390.9c-6.6 2.3-10.7 6.7-13.5 14.2-1.7 4.9-1.9 8.3-1.9 36 0 30.4.1 30.6 2.5 35.5 4.3 8.6 14.6 13.2 27.3 12 12.2-1.2 20.3-6.5 25.8-16.9 1.9-3.4 2.3-5.8 2.3-12.9 0-4.7-.3-9-.7-9.4-.5-.4-4.4-.9-8.9-1.2-9.3-.5-9.9-.2-9.9 6.6 0 7-3.1 11.1-8.3 11.2-8.2.1-9.7-4.5-9.7-30 0-18.7.1-20.1 2-22 1.3-1.3 3.3-2 5.9-2 5.4 0 7.7 3.1 8.6 11.4l.7 6.4 4.5.6c8 1.1 13 .7 14.8-1.1 2.6-2.6 1.7-16.3-1.5-22.6-6.9-13.7-25.4-21-40-15.8zM98.9 393c-9.9 1.7-16.6 7.2-18.9 15.4-1.7 6.1-2.4 38.3-1.1 50.3.6 5.6 2 12.6 3.1 15.5 4.7 12.5 16.2 17.2 33.5 13.4 7.2-1.5 11.1-3.5 14.8-7.4 4.1-4.3 6.1-16.4 5-30.4l-.8-10.3-12-.3c-16.7-.4-16.5-.5-16.5 6.7 0 8.5.4 9.1 6.1 9.1h4.9v3.9c0 5.4-2.9 8.8-8.4 9.6-8.8 1.4-11.3-2.6-12.2-19.7-.7-12.2.7-27.8 3.1-33.4 1.3-3.1 1.8-3.4 5.7-3.4 5.4 0 7.9 1.7 10.3 6.9 1.4 3.3 2.4 4.2 5.2 4.7 3.6.7 12 .1 13-1 .3-.3.6-2.9.7-5.8.2-16.2-16.4-27.3-35.5-23.8zM356.7 418.1c-6.1 1-13.1 4.4-15.7 7.6-6.8 8.6-7.6 35.8-1.5 49.2 4.7 10.1 8.2 12.5 19.7 13.6 15 1.4 23.5-1.3 27-8.5.9-1.9 2-7 2.4-11.3l.7-7.7H372v2.9c0 3.2-3.1 7.7-6 8.6-2.8.9-8.3-2-10.3-5.4-1-1.8-1.7-5-1.7-8.3v-5.3l15-.1c21.2-.3 20 .3 20-9.7 0-13.7-5.5-22.2-16-24.6-7.1-1.6-11.1-1.8-16.3-1zm14.3 15.6c2 1.8 3.2 3.9 3.3 5.8l.2 3-7 .2c-3.8.2-8.5 0-10.4-.3-3.1-.5-3.3-.7-2.7-3.6 1.1-5.3 4.1-7.6 10.3-7.7 2.2-.1 4.3.8 6.3 2.6zM155.7 419.5c-9.5 3.3-11.1 8.7-10.5 35.1.3 16.1.6 18.3 2.6 22.1 2.4 4.6 6.9 8.4 12.1 10.2 5.2 1.7 23.3 1.4 28.1-.5 8.1-3.2 9.9-10 10-36 0-22.2-2.2-27.7-12.9-31.3-4.8-1.6-24.7-1.3-29.4.4zm21.6 20.5c1.7 1.3 2.9 3.6 3.5 6.8 1.1 5.4 0 17.5-1.7 19.6-1.8 2.2-8.7 3-12.2 1.5-4.1-1.6-4.9-4.4-4.3-14.1.7-11.5 1-12.5 4.2-14.2 3.8-2.1 7.5-1.9 10.5.4zM529.7 419.4c-8.9 3.3-10.7 8.3-10.7 30.7 0 18.2 1 24.2 5 29.7 4.5 6.2 8.6 7.7 22.5 8 10.9.3 12.4.1 16.5-2 6.5-3.3 7.8-6.6 8.9-23.3 1.1-15.1.2-30.5-2.1-35.1-.7-1.6-3.3-4.2-5.6-5.9-4.3-2.9-4.7-3-17.5-3.3-9.4-.1-14.3.2-17 1.2zm21.8 20.8c1.4 1.3 3 4.1 3.6 6.3 1.1 5 .2 16.2-1.7 19.2-1.5 2.4-6.9 3.9-10.8 2.9-4.9-1.2-5.6-2.9-5.6-14.4 0-11.4.2-11.9 4-14.5 3.4-2.3 7.4-2.1 10.5.5zM211.3 419.7c-2.3.4-2.3.5-2.3 20.1 0 10.8.3 32.2.7 47.5l.6 27.8 8.1-.3 8.1-.3.3-15.1.3-15.1 4.2 1.4c6.1 2.2 19.8 1.3 23.5-1.4 7.1-5.2 10.2-18.4 8.3-35.8-2.1-20.5-8.9-28.5-24.3-28.5-3.9 0-5.2.5-7.7 3.1l-3.1 3.1v-2.6c0-1.3-.4-2.7-.8-3-1.3-.8-13.4-1.5-15.9-.9zm30.9 19.3c3.9 3 5.8 8 5.8 15.4 0 11.8-3.6 16.6-12.5 16.6-7.6 0-7.9-.6-8.4-11-.6-17 1.7-23 8.8-23 2.3 0 4.8.8 6.3 2zM406.3 419.7l-6.3.4V487h18v-20.8c0-19.7.1-21 2-22.7 2.7-2.4 11.1-3 17.8-1.2l5.2 1.4V420h-6.3c-5.6 0-11.4 1.2-16.9 3.5-1.5.6-1.8.2-1.8-1.9 0-2.2-.4-2.6-2.7-2.4-1.6.1-5.6.3-9 .5zM589.3 419.7l-6.3.4v23.7c0 13 .3 28.1.7 33.4l.6 9.8h7.8c9.5 0 9.2.6 8.9-17.3-.4-21.6-.2-23.5 2-25.7 2.3-2.3 7.7-2.7 10.4-.7s3.6 8 3.6 26.4V487h16.8l.7-21.5c.7-21.2.3-32.1-1.6-38-2.2-7.3-15.6-9.5-25.6-4.3-2.9 1.6-5.5 2.8-5.8 2.8-.3 0-.5-1.6-.5-3.5 0-3.2-.2-3.5-2.7-3.3-1.6.1-5.6.3-9 .5zM312 504c-7.2 1.5-16.6 6.7-20.5 11.2-5.8 6.9-7.6 13.3-8.2 29.3-.6 17.1 1.1 49.7 3.2 58.3 3.2 13.3 8.5 18.7 21.4 21.6 11.8 2.6 23.7 2.8 80.6 1.2 30.8-.9 75.1-2 98.5-2.6 45.4-1.1 49.3-1.6 55.9-6.4 7.8-5.8 9.5-11.3 11.6-39.6 2.4-31 2.5-46.5.2-51.5-3.4-7.6-9.2-12-20.3-15.5-8.9-2.8-28.9-3.9-76.4-4-19.5 0-49.4-.5-66.5-1-59.1-1.7-75-1.9-79.5-1zm33.5 23.1c10.6 3 17.1 18 13.5 31.1-1.3 4.4-5.4 8-16.1 14.1-4.4 2.5-8.3 5.6-9.7 7.7l-2.3 3.5 13.3.5 13.3.5.3 7.7.3 7.8h-47.3l.7-9.8c1.2-15.5 1.3-15.6 19.7-28.6 7.4-5.1 8.8-7 8.8-11.4 0-3.3-3-6.5-5.2-5.7-1.8.7-3.8 4.7-3.8 7.5 0 4.6-.8 5-10 5h-8.8l-.7-3.6c-1.4-7.6 2.4-18.8 7.7-22.5 6.3-4.5 17.8-6.1 26.3-3.8zm59.6.4c5.5 2 10.3 6.5 13.7 13 2.2 4.3 2.7 6.6 3 15.9.5 12-.6 18.6-4.4 27.1-6.5 14.8-19.3 20.2-32.2 13.6-8.6-4.4-11.6-11.4-12.7-29.6-1.4-22.6 4.1-35.4 17.2-40.1 5.1-1.8 10.1-1.7 15.4.1zm62.7 34.6c-.4 29.2-.8 36.3-1.9 37-1.6 1-12.3 1.2-15.8.2l-2.4-.6.6-22.7.7-22.6-3.5-.1c-3.3-.1-13.5-3-13.5-3.9 0-1 5.5-11.3 9.2-17.2l4-6.2h23.1l-.5 36.1zm56.2-33.3c1.4 1 3.6 4 4.9 6.6 2.3 4.5 2.4 5.7 2.5 26.4l.1 21.7-3 6c-2.5 4.9-3.8 6.4-7.6 8.3-8.7 4.3-24.3 2.4-32.4-4-3.5-2.7-5.5-7.6-5.5-13.3V576h9.2c8.7 0 9.3.1 11.3 2.6 2.5 3.1 4.9 2.4 6.4-1.8 2.1-6 1.7-6.4-5.1-6.4-9 0-16.6-4.5-19.9-11.8-2.2-4.9-2.5-15.2-.5-19.9 1.8-4.3 7.7-9.4 12.3-10.6 2.1-.5 4.7-1.2 5.8-1.5 4.2-1.1 18.9.4 21.5 2.2z"/><path d="M392.8 546.2c-1.9 3.4-1.8 28.4.2 32.3 2 3.9 4.4 4.3 6.6 1 3.6-5.5 2.9-32.3-.9-34.7-2.2-1.4-4.6-.8-5.9 1.4zM505.3 544.7c-1.6.6-1.7 6.5-.1 8.1 2.1 2.1 5.8 1.4 6.8-1.4 1.3-3.4 1.3-4-.6-5.8-1.5-1.6-3.7-1.9-6.1-.9zM162.9 507.5c-6.4 2.1-14.1 9.2-16.9 15.7-3.5 7.9-3.3 17.7.6 24.7 3.9 7.2 7.4 9.6 18.4 12.5 7.5 2 10.1 3.2 12.3 5.6 3.3 3.7 3.7 9 .7 12-4 4-13.7 1.5-15.5-4-.6-1.8-1.6-2-10.6-2H142v3.7c0 11.8 13.5 23 29 24.1 13.8 1 23.6-4.8 27.9-16.3 7.3-19.5-3.2-36.6-25.4-41.6-6.1-1.3-8.5-3.6-8.5-7.9 0-4.6 2.6-7 7.6-7s9.4 3.2 9.4 6.9c0 2.6 4.8 3.6 13.5 2.6l6.5-.7v-6c0-10.3-5.5-17.9-15.3-21.4-6.3-2.2-18.3-2.7-23.8-.9zM229 533.6c-6.3 2.1-9.3 4.2-12 8.2-4.6 7-5.5 11.2-5.5 27.7 0 14 .2 15.3 2.5 19.9 1.4 2.8 3.6 5.8 5 6.8 5.1 3.7 19 4.4 26.3 1.3 1.5-.6 1.7-.1 1.7 4.5 0 4.4-.4 5.6-2.9 8.1-1.7 1.6-4 2.9-5.4 2.9-3.1 0-7.7-3.6-7.7-5.9 0-1.5-1.1-2-5.4-2.5-3-.3-6.8-.3-8.5 0-2.6.5-3.1 1.1-3.1 3.5 0 6.6 4.6 12.9 11.8 16 3.4 1.5 6.8 1.9 15.5 1.9 12.4 0 16.1-1.3 20.9-7.5l2.3-2.9.3-41.3.3-41.3H247v3c0 3.2-1.4 4-2.4 1.5-1.2-3.2-10.6-5.5-15.6-3.9zm13.6 17.3c3.7 2.3 4.4 4.8 4.7 19.3.2 11.9-.9 13.8-8.3 13.8-8.5 0-13-5.7-13-16.2.1-9.3 4-16.7 9.5-18.1 3.4-.8 3.9-.7 7.1 1.2z"/></svg>